G04 #@! TF.GenerationSoftware,KiCad,Pcbnew,(5.1.4)-1*
G04 #@! TF.CreationDate,2020-09-27T20:38:17+10:00*
G04 #@! TF.ProjectId,merchants 60,6d657263-6861-46e7-9473-2036302e6b69,rev?*
G04 #@! TF.SameCoordinates,Original*
G04 #@! TF.FileFunction,Legend,Top*
G04 #@! TF.FilePolarity,Positive*
%FSLAX46Y46*%
G04 Gerber Fmt 4.6, Leading zero omitted, Abs format (unit mm)*
G04 Created by KiCad (PCBNEW (5.1.4)-1) date 2020-09-27 20:38:17*
%MOMM*%
%LPD*%
G04 APERTURE LIST*
%ADD10C,0.203200*%
%ADD11C,1.852000*%
%ADD12C,4.089800*%
%ADD13R,2.601360X2.301640*%
%ADD14R,0.602380X2.100980*%
%ADD15C,3.150000*%
%ADD16C,1.702000*%
%ADD17R,1.702000X1.702000*%
G04 APERTURE END LIST*
D10*
X214487276Y-70738395D02*
X214487276Y-71396376D01*
X214525980Y-71473785D01*
X214564685Y-71512490D01*
X214642095Y-71551195D01*
X214796914Y-71551195D01*
X214874323Y-71512490D01*
X214913028Y-71473785D01*
X214951733Y-71396376D01*
X214951733Y-70738395D01*
X215300076Y-71512490D02*
X215416190Y-71551195D01*
X215609714Y-71551195D01*
X215687123Y-71512490D01*
X215725828Y-71473785D01*
X215764533Y-71396376D01*
X215764533Y-71318966D01*
X215725828Y-71241557D01*
X215687123Y-71202852D01*
X215609714Y-71164147D01*
X215454895Y-71125442D01*
X215377485Y-71086738D01*
X215338780Y-71048033D01*
X215300076Y-70970623D01*
X215300076Y-70893214D01*
X215338780Y-70815804D01*
X215377485Y-70777100D01*
X215454895Y-70738395D01*
X215648419Y-70738395D01*
X215764533Y-70777100D01*
X216383809Y-71125442D02*
X216499923Y-71164147D01*
X216538628Y-71202852D01*
X216577333Y-71280261D01*
X216577333Y-71396376D01*
X216538628Y-71473785D01*
X216499923Y-71512490D01*
X216422514Y-71551195D01*
X216112876Y-71551195D01*
X216112876Y-70738395D01*
X216383809Y-70738395D01*
X216461219Y-70777100D01*
X216499923Y-70815804D01*
X216538628Y-70893214D01*
X216538628Y-70970623D01*
X216499923Y-71048033D01*
X216461219Y-71086738D01*
X216383809Y-71125442D01*
X216112876Y-71125442D01*
X217351428Y-71551195D02*
X216886971Y-71551195D01*
X217119200Y-71551195D02*
X217119200Y-70738395D01*
X217041790Y-70854509D01*
X216964380Y-70931919D01*
X216886971Y-70970623D01*
%LPC*%
D11*
X106680000Y-124618750D03*
X96520000Y-124618750D03*
D12*
X101600000Y-124618750D03*
D11*
X82867500Y-124618750D03*
X72707500Y-124618750D03*
D12*
X77787500Y-124618750D03*
D13*
X211696300Y-69171820D03*
X220098620Y-69171820D03*
X211698840Y-74470260D03*
X220098620Y-74470260D03*
D14*
X214297260Y-74569320D03*
X215097360Y-74569320D03*
X215897460Y-74569320D03*
X216697560Y-74569320D03*
X217497660Y-74569320D03*
D11*
X363855000Y-86518750D03*
X353695000Y-86518750D03*
D12*
X358775000Y-86518750D03*
D11*
X363855000Y-181768750D03*
X353695000Y-181768750D03*
D12*
X358775000Y-181768750D03*
D11*
X111442500Y-143668750D03*
X101282500Y-143668750D03*
D12*
X106362500Y-143668750D03*
D11*
X363855000Y-162718750D03*
X353695000Y-162718750D03*
D12*
X358775000Y-162718750D03*
D11*
X363855000Y-143668750D03*
X353695000Y-143668750D03*
D12*
X358775000Y-143668750D03*
D11*
X363855000Y-124618750D03*
X353695000Y-124618750D03*
D12*
X358775000Y-124618750D03*
D11*
X363855000Y-105568750D03*
X353695000Y-105568750D03*
D12*
X358775000Y-105568750D03*
D11*
X344805000Y-181768750D03*
X334645000Y-181768750D03*
D12*
X339725000Y-181768750D03*
D11*
X344805000Y-162718750D03*
X334645000Y-162718750D03*
D12*
X339725000Y-162718750D03*
D11*
X340042500Y-124618750D03*
X329882500Y-124618750D03*
D12*
X334962500Y-124618750D03*
X342138000Y-113823750D03*
X318262000Y-113823750D03*
D15*
X342138000Y-98583750D03*
X318262000Y-98583750D03*
D11*
X335280000Y-105568750D03*
X325120000Y-105568750D03*
D12*
X330200000Y-105568750D03*
D11*
X344805000Y-86518750D03*
X334645000Y-86518750D03*
D12*
X339725000Y-86518750D03*
D11*
X325755000Y-181768750D03*
X315595000Y-181768750D03*
D12*
X320675000Y-181768750D03*
D11*
X318611250Y-162718750D03*
X308451250Y-162718750D03*
D12*
X313531250Y-162718750D03*
X339756750Y-151923750D03*
X315880750Y-151923750D03*
D15*
X339756750Y-136683750D03*
X315880750Y-136683750D03*
D11*
X332898750Y-143668750D03*
X322738750Y-143668750D03*
D12*
X327818750Y-143668750D03*
D11*
X325755000Y-86518750D03*
X315595000Y-86518750D03*
D12*
X320675000Y-86518750D03*
D11*
X301942500Y-181768750D03*
X291782500Y-181768750D03*
D12*
X296862500Y-181768750D03*
D11*
X316230000Y-124618750D03*
X306070000Y-124618750D03*
D12*
X311150000Y-124618750D03*
D11*
X306705000Y-105568750D03*
X296545000Y-105568750D03*
D12*
X301625000Y-105568750D03*
D11*
X306705000Y-86518750D03*
X296545000Y-86518750D03*
D12*
X301625000Y-86518750D03*
D11*
X301942500Y-143668750D03*
X291782500Y-143668750D03*
D12*
X296862500Y-143668750D03*
D11*
X297180000Y-124618750D03*
X287020000Y-124618750D03*
D12*
X292100000Y-124618750D03*
D11*
X287655000Y-105568750D03*
X277495000Y-105568750D03*
D12*
X282575000Y-105568750D03*
D11*
X287655000Y-86518750D03*
X277495000Y-86518750D03*
D12*
X282575000Y-86518750D03*
D11*
X292417500Y-162718750D03*
X282257500Y-162718750D03*
D12*
X287337500Y-162718750D03*
D11*
X282892500Y-143668750D03*
X272732500Y-143668750D03*
D12*
X277812500Y-143668750D03*
D11*
X278130000Y-124618750D03*
X267970000Y-124618750D03*
D12*
X273050000Y-124618750D03*
D11*
X268605000Y-105568750D03*
X258445000Y-105568750D03*
D12*
X263525000Y-105568750D03*
D11*
X268605000Y-86518750D03*
X258445000Y-86518750D03*
D12*
X263525000Y-86518750D03*
D11*
X273367500Y-181768750D03*
X263207500Y-181768750D03*
D12*
X268287500Y-181768750D03*
D11*
X273367500Y-162718750D03*
X263207500Y-162718750D03*
D12*
X268287500Y-162718750D03*
D11*
X263842500Y-143668750D03*
X253682500Y-143668750D03*
D12*
X258762500Y-143668750D03*
D11*
X259080000Y-124618750D03*
X248920000Y-124618750D03*
D12*
X254000000Y-124618750D03*
D11*
X249555000Y-105568750D03*
X239395000Y-105568750D03*
D12*
X244475000Y-105568750D03*
D11*
X249555000Y-86518750D03*
X239395000Y-86518750D03*
D12*
X244475000Y-86518750D03*
D11*
X254317500Y-162718750D03*
X244157500Y-162718750D03*
D12*
X249237500Y-162718750D03*
D11*
X244792500Y-143668750D03*
X234632500Y-143668750D03*
D12*
X239712500Y-143668750D03*
D11*
X240030000Y-124618750D03*
X229870000Y-124618750D03*
D12*
X234950000Y-124618750D03*
D11*
X230505000Y-105568750D03*
X220345000Y-105568750D03*
D12*
X225425000Y-105568750D03*
D11*
X230505000Y-86518750D03*
X220345000Y-86518750D03*
D12*
X225425000Y-86518750D03*
D11*
X235267500Y-162718750D03*
X225107500Y-162718750D03*
D12*
X230187500Y-162718750D03*
D11*
X225742500Y-143668750D03*
X215582500Y-143668750D03*
D12*
X220662500Y-143668750D03*
D11*
X220980000Y-124618750D03*
X210820000Y-124618750D03*
D12*
X215900000Y-124618750D03*
D11*
X211455000Y-105568750D03*
X201295000Y-105568750D03*
D12*
X206375000Y-105568750D03*
D11*
X211455000Y-86518750D03*
X201295000Y-86518750D03*
D12*
X206375000Y-86518750D03*
D11*
X216217500Y-162718750D03*
X206057500Y-162718750D03*
D12*
X211137500Y-162718750D03*
D11*
X206692500Y-143668750D03*
X196532500Y-143668750D03*
D12*
X201612500Y-143668750D03*
D11*
X201930000Y-124618750D03*
X191770000Y-124618750D03*
D12*
X196850000Y-124618750D03*
D11*
X192405000Y-105568750D03*
X182245000Y-105568750D03*
D12*
X187325000Y-105568750D03*
D11*
X192405000Y-86518750D03*
X182245000Y-86518750D03*
D12*
X187325000Y-86518750D03*
X244468650Y-190023750D03*
X144468850Y-190023750D03*
D15*
X244468650Y-174783750D03*
X144468850Y-174783750D03*
D11*
X199548750Y-181768750D03*
X189388750Y-181768750D03*
D12*
X194468750Y-181768750D03*
D11*
X197167500Y-162718750D03*
X187007500Y-162718750D03*
D12*
X192087500Y-162718750D03*
D11*
X187642500Y-143668750D03*
X177482500Y-143668750D03*
D12*
X182562500Y-143668750D03*
D11*
X182880000Y-124618750D03*
X172720000Y-124618750D03*
D12*
X177800000Y-124618750D03*
D11*
X173355000Y-105568750D03*
X163195000Y-105568750D03*
D12*
X168275000Y-105568750D03*
D11*
X173355000Y-86518750D03*
X163195000Y-86518750D03*
D12*
X168275000Y-86518750D03*
D11*
X178117500Y-162718750D03*
X167957500Y-162718750D03*
D12*
X173037500Y-162718750D03*
D11*
X168592500Y-143668750D03*
X158432500Y-143668750D03*
D12*
X163512500Y-143668750D03*
D11*
X163830000Y-124618750D03*
X153670000Y-124618750D03*
D12*
X158750000Y-124618750D03*
D11*
X154305000Y-105568750D03*
X144145000Y-105568750D03*
D12*
X149225000Y-105568750D03*
D11*
X154305000Y-86518750D03*
X144145000Y-86518750D03*
D12*
X149225000Y-86518750D03*
D11*
X159067500Y-162718750D03*
X148907500Y-162718750D03*
D12*
X153987500Y-162718750D03*
D11*
X149542500Y-143668750D03*
X139382500Y-143668750D03*
D12*
X144462500Y-143668750D03*
D11*
X144780000Y-124618750D03*
X134620000Y-124618750D03*
D12*
X139700000Y-124618750D03*
D11*
X135255000Y-105568750D03*
X125095000Y-105568750D03*
D12*
X130175000Y-105568750D03*
D11*
X135255000Y-86518750D03*
X125095000Y-86518750D03*
D12*
X130175000Y-86518750D03*
D11*
X128111250Y-181768750D03*
X117951250Y-181768750D03*
D12*
X123031250Y-181768750D03*
D11*
X140017500Y-162718750D03*
X129857500Y-162718750D03*
D12*
X134937500Y-162718750D03*
D11*
X130492500Y-143668750D03*
X120332500Y-143668750D03*
D12*
X125412500Y-143668750D03*
D11*
X125730000Y-124618750D03*
X115570000Y-124618750D03*
D12*
X120650000Y-124618750D03*
D11*
X116205000Y-105568750D03*
X106045000Y-105568750D03*
D12*
X111125000Y-105568750D03*
D11*
X116205000Y-86518750D03*
X106045000Y-86518750D03*
D12*
X111125000Y-86518750D03*
D11*
X104298750Y-181768750D03*
X94138750Y-181768750D03*
D12*
X99218750Y-181768750D03*
D11*
X120967500Y-162718750D03*
X110807500Y-162718750D03*
D12*
X115887500Y-162718750D03*
D11*
X97155000Y-105568750D03*
X86995000Y-105568750D03*
D12*
X92075000Y-105568750D03*
D11*
X97155000Y-86518750D03*
X86995000Y-86518750D03*
D12*
X92075000Y-86518750D03*
D11*
X80486250Y-181768750D03*
X70326250Y-181768750D03*
D12*
X75406250Y-181768750D03*
X96869250Y-170973750D03*
X72993250Y-170973750D03*
D15*
X96869250Y-155733750D03*
X72993250Y-155733750D03*
D11*
X90011250Y-162718750D03*
X79851250Y-162718750D03*
D12*
X84931250Y-162718750D03*
D11*
X85248750Y-143668750D03*
X75088750Y-143668750D03*
D12*
X80168750Y-143668750D03*
D11*
X78105000Y-105568750D03*
X67945000Y-105568750D03*
D12*
X73025000Y-105568750D03*
D11*
X78105000Y-86518750D03*
X67945000Y-86518750D03*
D12*
X73025000Y-86518750D03*
D16*
X362452750Y-190182500D03*
D17*
X354652750Y-190182500D03*
D16*
X367061750Y-163422500D03*
D17*
X367061750Y-171222500D03*
D16*
X367061750Y-144372500D03*
D17*
X367061750Y-152172500D03*
D16*
X367061750Y-125322500D03*
D17*
X367061750Y-133122500D03*
D16*
X367061750Y-106272500D03*
D17*
X367061750Y-114072500D03*
D16*
X367061750Y-87222500D03*
D17*
X367061750Y-95022500D03*
D16*
X348011750Y-182472500D03*
D17*
X348011750Y-190272500D03*
D16*
X348011750Y-163422500D03*
D17*
X348011750Y-171222500D03*
D16*
X347884750Y-125322500D03*
D17*
X347884750Y-133122500D03*
D16*
X348011750Y-106272500D03*
D17*
X348011750Y-114072500D03*
D16*
X348011750Y-87222500D03*
D17*
X348011750Y-95022500D03*
D16*
X328961750Y-182472500D03*
D17*
X328961750Y-190272500D03*
D16*
X328834750Y-163422500D03*
D17*
X328834750Y-171222500D03*
D16*
X335946750Y-144245500D03*
D17*
X335946750Y-152045500D03*
D16*
X328961750Y-87222500D03*
D17*
X328961750Y-95022500D03*
D16*
X305085750Y-182472500D03*
D17*
X305085750Y-190272500D03*
D16*
X319436750Y-125322500D03*
D17*
X319436750Y-133122500D03*
D16*
X309911750Y-106272500D03*
D17*
X309911750Y-114072500D03*
D16*
X310038750Y-87222500D03*
D17*
X310038750Y-95022500D03*
D16*
X305085750Y-144372500D03*
D17*
X305085750Y-152172500D03*
D16*
X300386750Y-125322500D03*
D17*
X300386750Y-133122500D03*
D16*
X290861750Y-106272500D03*
D17*
X290861750Y-114072500D03*
D16*
X290861750Y-87222500D03*
D17*
X290861750Y-95022500D03*
D16*
X295560750Y-163422500D03*
D17*
X295560750Y-171222500D03*
D16*
X286035750Y-144372500D03*
D17*
X286035750Y-152172500D03*
D16*
X281336750Y-125322500D03*
D17*
X281336750Y-133122500D03*
D16*
X271811750Y-106272500D03*
D17*
X271811750Y-114072500D03*
D16*
X271811750Y-87222500D03*
D17*
X271811750Y-95022500D03*
D16*
X276637750Y-182472500D03*
D17*
X276637750Y-190272500D03*
D16*
X276510750Y-163422500D03*
D17*
X276510750Y-171222500D03*
D16*
X266985750Y-144372500D03*
D17*
X266985750Y-152172500D03*
D16*
X262286750Y-125322500D03*
D17*
X262286750Y-133122500D03*
D16*
X252761750Y-106272500D03*
D17*
X252761750Y-114072500D03*
D16*
X252761750Y-87222500D03*
D17*
X252761750Y-95022500D03*
D16*
X257460750Y-163422500D03*
D17*
X257460750Y-171222500D03*
D16*
X247935750Y-144372500D03*
D17*
X247935750Y-152172500D03*
D16*
X243236750Y-125322500D03*
D17*
X243236750Y-133122500D03*
D16*
X233711750Y-106272500D03*
D17*
X233711750Y-114072500D03*
D16*
X233711750Y-87222500D03*
D17*
X233711750Y-95022500D03*
D16*
X238410750Y-163422500D03*
D17*
X238410750Y-171222500D03*
D16*
X228885750Y-144372500D03*
D17*
X228885750Y-152172500D03*
D16*
X224186750Y-125322500D03*
D17*
X224186750Y-133122500D03*
D16*
X214661750Y-106272500D03*
D17*
X214661750Y-114072500D03*
D16*
X214661750Y-87222500D03*
D17*
X214661750Y-95022500D03*
D16*
X219360750Y-163422500D03*
D17*
X219360750Y-171222500D03*
D16*
X209835750Y-144372500D03*
D17*
X209835750Y-152172500D03*
D16*
X205136750Y-125322500D03*
D17*
X205136750Y-133122500D03*
D16*
X195611750Y-106272500D03*
D17*
X195611750Y-114072500D03*
D16*
X195611750Y-87222500D03*
D17*
X195611750Y-95022500D03*
D16*
X202723750Y-182472500D03*
D17*
X202723750Y-190272500D03*
D16*
X200310750Y-163422500D03*
D17*
X200310750Y-171222500D03*
D16*
X190785750Y-144372500D03*
D17*
X190785750Y-152172500D03*
D16*
X186086750Y-125322500D03*
D17*
X186086750Y-133122500D03*
D16*
X176561750Y-106272500D03*
D17*
X176561750Y-114072500D03*
D16*
X176561750Y-87222500D03*
D17*
X176561750Y-95022500D03*
D16*
X181260750Y-163422500D03*
D17*
X181260750Y-171222500D03*
D16*
X171735750Y-144372500D03*
D17*
X171735750Y-152172500D03*
D16*
X167036750Y-125322500D03*
D17*
X167036750Y-133122500D03*
D16*
X157511750Y-106272500D03*
D17*
X157511750Y-114072500D03*
D16*
X157511750Y-87222500D03*
D17*
X157511750Y-95022500D03*
D16*
X162210750Y-163422500D03*
D17*
X162210750Y-171222500D03*
D16*
X152685750Y-144372500D03*
D17*
X152685750Y-152172500D03*
D16*
X147986750Y-125322500D03*
D17*
X147986750Y-133122500D03*
D16*
X138461750Y-106272500D03*
D17*
X138461750Y-114072500D03*
D16*
X138461750Y-87222500D03*
D17*
X138461750Y-95022500D03*
D16*
X133635750Y-182345500D03*
D17*
X133635750Y-190145500D03*
D16*
X143160750Y-163422500D03*
D17*
X143160750Y-171222500D03*
D16*
X133762750Y-144372500D03*
D17*
X133762750Y-152172500D03*
D16*
X128936750Y-125322500D03*
D17*
X128936750Y-133122500D03*
D16*
X119411750Y-106272500D03*
D17*
X119411750Y-114072500D03*
D16*
X119411750Y-87146500D03*
D17*
X119411750Y-94946500D03*
D16*
X109886750Y-182472500D03*
D17*
X109886750Y-190272500D03*
D16*
X124110750Y-163422500D03*
D17*
X124110750Y-171222500D03*
D16*
X114585750Y-144372500D03*
D17*
X114585750Y-152172500D03*
D16*
X109886750Y-125322500D03*
D17*
X109886750Y-133122500D03*
D16*
X100361750Y-106272500D03*
D17*
X100361750Y-114072500D03*
D16*
X100361750Y-87222500D03*
D17*
X100361750Y-95022500D03*
D16*
X86010750Y-182472500D03*
D17*
X86010750Y-190272500D03*
D16*
X105060750Y-163422500D03*
D17*
X105060750Y-171222500D03*
D16*
X83216750Y-146226700D03*
D17*
X83216750Y-154026700D03*
D16*
X84625350Y-117589300D03*
D17*
X92425350Y-117589300D03*
D16*
X81311750Y-106272500D03*
D17*
X81311750Y-114072500D03*
D16*
X81311750Y-87222500D03*
D17*
X81311750Y-95022500D03*
M02*
