M48
; DRILL file {KiCad (5.1.4)-1} date 3/10/2020 5:09:25 PM
; FORMAT={-:-/ absolute / inch / decimal}
; #@! TF.CreationDate,2020-10-03T17:09:25+10:00
; #@! TF.GenerationSoftware,Kicad,Pcbnew,(5.1.4)-1
; #@! TF.FileFunction,Plated,1,2,PTH
FMAT,2
INCH
T1C0.0157
T2C0.0276
T3C0.0579
%
G90
G05
T1
X2.8302Y-4.6148
X3.185Y-5.335
X3.1973Y-4.6385
X3.3875Y-5.2525
X3.3919Y-5.1781
X3.445Y-5.935
X3.455Y-5.555
X3.51Y-5.93
X3.57Y-5.6625
X3.585Y-5.93
X3.63Y-4.745
X3.63Y-4.94
X3.7175Y-5.72
X3.74Y-5.9415
X3.775Y-5.08
X3.7939Y-4.6411
X3.8043Y-5.9405
X3.8228Y-5.8578
X3.8507Y-5.8857
X3.8785Y-5.9135
X3.9108Y-5.835
X3.945Y-5.8
X3.9495Y-6.1873
X3.9499Y-6.1474
X3.9661Y-6.1115
X3.97Y-5.74
X3.9925Y-5.3775
X4.0054Y-6.109
X4.0427Y-6.1274
X4.08Y-6.115
X4.1599Y-6.3501
X4.1914Y-6.71
X4.2005Y-6.3504
X4.2229Y-6.6718
X4.2266Y-6.8658
X4.2402Y-6.3498
X4.2466Y-6.8319
X4.2514Y-6.64
X4.2593Y-6.7946
X4.285Y-6.35
X4.29Y-6.7
X4.29Y-6.77
X4.395Y-4.565
X4.395Y-4.94
X4.5014Y-4.5986
X5.8702Y-6.1548
X6.5977Y-6.1323
X7.3277Y-6.1123
X8.0652Y-6.0998
X8.4606Y-3.07
X8.5Y-3.07
X8.5394Y-3.07
X8.5787Y-3.07
X8.7927Y-6.0773
X9.4977Y-6.0323
X9.85Y-5.2
X9.8901Y-7.0101
X9.9125Y-6.9475
X9.9523Y-6.8673
X9.9525Y-6.8225
X10.6Y-5.2
X11.35Y-5.165
X12.1367Y-5.1517
X12.8078Y-5.1328
X13.0633Y-5.1117
X13.975Y-5.075
T2
X12.2012Y-4.184
X12.2012Y-4.491
X14.4512Y-4.7215
X14.4512Y-5.0285
X8.0762Y-4.7215
X8.0762Y-5.0285
X12.0113Y-7.184
X12.0113Y-7.491
X6.3862Y-6.434
X6.3862Y-6.741
X8.6363Y-6.434
X8.6363Y-6.741
X12.9512Y-3.434
X12.9512Y-3.741
X3.9512Y-4.184
X3.9512Y-4.491
X14.4512Y-6.434
X14.4512Y-6.741
X11.0762Y-4.7215
X11.0762Y-5.0285
X8.4512Y-4.184
X8.4512Y-4.491
X12.5762Y-4.7215
X12.5762Y-5.0285
X5.2663Y-5.684
X5.2663Y-5.991
X10.8912Y-7.184
X10.8912Y-7.491
X6.9512Y-3.434
X6.9512Y-3.741
X5.4512Y-3.434
X5.4512Y-3.741
X3.2763Y-5.757
X3.2763Y-6.064
X9.2012Y-3.434
X9.2012Y-3.741
X7.9813Y-7.184
X7.9813Y-7.491
X4.1362Y-6.434
X4.1362Y-6.741
X9.9512Y-4.184
X9.9512Y-4.491
X6.2012Y-4.184
X6.2012Y-4.491
X5.0762Y-4.7215
X5.0762Y-5.0285
X5.8262Y-4.7215
X5.8262Y-5.0285
X11.2613Y-5.684
X11.2613Y-5.991
X4.3262Y-4.7215
X4.3262Y-5.0285
X12.9462Y-6.434
X12.9462Y-6.741
X9.3863Y-6.434
X9.3863Y-6.741
X3.9512Y-3.434
X3.9512Y-3.741
X12.2062Y-3.434
X12.2062Y-3.741
X4.8862Y-6.434
X4.8862Y-6.741
X11.6363Y-6.434
X11.6363Y-6.741
X7.1362Y-6.434
X7.1362Y-6.741
X13.7012Y-6.434
X13.7012Y-6.741
X4.5112Y-5.684
X4.5112Y-5.991
X9.0113Y-5.684
X9.0113Y-5.991
X7.3262Y-4.7215
X7.3262Y-5.0285
X11.8262Y-4.7215
X11.8262Y-5.0285
X14.4512Y-3.434
X14.4512Y-3.741
X10.5113Y-5.684
X10.5113Y-5.991
X8.2613Y-5.684
X8.2613Y-5.991
X11.4512Y-4.184
X11.4512Y-4.491
X3.3317Y-4.6295
X3.6388Y-4.6295
X9.5762Y-4.7215
X9.5762Y-5.0285
X7.8862Y-6.434
X7.8862Y-6.741
X3.3862Y-7.184
X3.3862Y-7.491
X3.2012Y-3.434
X3.2012Y-3.741
X10.8863Y-6.434
X10.8863Y-6.741
X7.5112Y-5.684
X7.5112Y-5.991
X4.3262Y-7.184
X4.3262Y-7.491
X10.3262Y-4.7215
X10.3262Y-5.0285
X7.7012Y-4.184
X7.7012Y-4.491
X10.7012Y-4.184
X10.7012Y-4.491
X5.2612Y-7.179
X5.2612Y-7.486
X12.0113Y-5.684
X12.0113Y-5.991
X13.9627Y-7.4875
X14.2698Y-7.4875
X13.2263Y-5.679
X13.2263Y-5.986
X3.2012Y-4.184
X3.2012Y-4.491
X13.7012Y-4.184
X13.7012Y-4.491
X14.4512Y-5.684
X14.4512Y-5.991
X6.7612Y-5.684
X6.7612Y-5.991
X13.6962Y-4.7215
X13.6962Y-5.0285
X5.4512Y-4.184
X5.4512Y-4.491
X8.8262Y-4.7215
X8.8262Y-5.0285
X6.2012Y-3.434
X6.2012Y-3.741
X12.9512Y-7.184
X12.9512Y-7.491
X6.0112Y-5.684
X6.0112Y-5.991
X14.4512Y-4.184
X14.4512Y-4.491
X9.9512Y-3.434
X9.9512Y-3.741
X6.9512Y-4.184
X6.9512Y-4.491
X11.4512Y-3.434
X11.4512Y-3.741
X4.7012Y-3.431
X4.7012Y-3.7381
X10.7012Y-3.434
X10.7012Y-3.741
X8.4512Y-3.434
X8.4512Y-3.741
X5.6362Y-6.434
X5.6362Y-6.741
X9.7613Y-5.684
X9.7613Y-5.991
X6.5762Y-4.7215
X6.5762Y-5.0285
X9.2012Y-4.184
X9.2012Y-4.491
X7.7012Y-3.434
X7.7012Y-3.741
X13.7012Y-7.184
X13.7012Y-7.491
X10.1363Y-6.434
X10.1363Y-6.741
X4.7012Y-4.184
X4.7012Y-4.491
X13.7012Y-3.434
X13.7012Y-3.741
T3
X6.1Y-4.8062
X6.1516Y-4.7488
X6.3484Y-4.7291
X6.35Y-4.7062
X4.225Y-4.0562
X4.2766Y-3.9988
X4.4734Y-3.9791
X4.475Y-3.9562
X9.1Y-4.8062
X9.1516Y-4.7488
X9.3484Y-4.7291
X9.35Y-4.7062
X8.5375Y-5.5562
X8.5891Y-5.4988
X8.7859Y-5.4791
X8.7875Y-5.4562
X7.225Y-4.0562
X7.2766Y-3.9988
X7.4734Y-3.9791
X7.475Y-3.9562
X3.0063Y-5.5562
X3.0578Y-5.4988
X3.2547Y-5.4791
X3.2563Y-5.4562
X13.225Y-7.0562
X13.2766Y-6.9988
X13.4734Y-6.9791
X13.475Y-6.9562
X12.1937Y-6.3062
X12.2453Y-6.2488
X12.4422Y-6.2291
X12.4437Y-6.2062
X7.975Y-4.0562
X8.0266Y-3.9988
X8.2234Y-3.9791
X8.225Y-3.9562
X5.5375Y-5.5562
X5.5891Y-5.4988
X5.7859Y-5.4791
X5.7875Y-5.4562
X4.6937Y-7.0562
X4.7453Y-6.9988
X4.9422Y-6.9791
X4.9437Y-6.9562
X12.1Y-4.8062
X12.1516Y-4.7488
X12.3484Y-4.7291
X12.35Y-4.7062
X6.475Y-3.3062
X6.5266Y-3.2488
X6.7234Y-3.2291
X6.725Y-3.2062
X3.7563Y-7.0562
X3.8078Y-6.9988
X4.0047Y-6.9791
X4.0062Y-6.9562
X3.85Y-4.8062
X3.9016Y-4.7488
X4.0984Y-4.7291
X4.1Y-4.7062
X10.975Y-4.0562
X11.0266Y-3.9988
X11.2234Y-3.9791
X11.225Y-3.9562
X8.1625Y-6.3062
X8.2141Y-6.2488
X8.4109Y-6.2291
X8.4125Y-6.2062
X4.6Y-4.8062
X4.6516Y-4.7488
X4.8484Y-4.7291
X4.85Y-4.7062
X4.0375Y-5.5562
X4.0891Y-5.4988
X4.2859Y-5.4791
X4.2875Y-5.4562
X10.975Y-3.3062
X11.0266Y-3.2488
X11.2234Y-3.2291
X11.225Y-3.2062
X10.4125Y-7.0562
X10.4641Y-6.9988
X10.6609Y-6.9791
X10.6625Y-6.9562
X13.0375Y-4.8062
X13.0891Y-4.7488
X13.2859Y-4.7291
X13.2875Y-4.7062
X9.6625Y-6.3062
X9.7141Y-6.2488
X9.9109Y-6.2291
X9.9125Y-6.2062
X12.7562Y-5.5562
X12.8078Y-5.4988
X13.0047Y-5.4791
X13.0062Y-5.4562
X10.0375Y-5.5562
X10.0891Y-5.4988
X10.2859Y-5.4791
X10.2875Y-5.4562
X7.225Y-3.3062
X7.2766Y-3.2488
X7.4734Y-3.2291
X7.475Y-3.2062
X5.1625Y-6.3062
X5.2141Y-6.2488
X5.4109Y-6.2291
X5.4125Y-6.2062
X9.475Y-4.0562
X9.5266Y-3.9988
X9.7234Y-3.9791
X9.725Y-3.9562
X7.0375Y-5.5562
X7.0891Y-5.4988
X7.2859Y-5.4791
X7.2875Y-5.4562
X13.975Y-6.3062
X14.0266Y-6.2488
X14.2234Y-6.2291
X14.225Y-6.2062
X10.6Y-4.8062
X10.6516Y-4.7488
X10.8484Y-4.7291
X10.85Y-4.7062
X5.725Y-4.0562
X5.7766Y-3.9988
X5.9734Y-3.9791
X5.975Y-3.9562
X2.8188Y-7.0562
X2.8703Y-6.9988
X3.0672Y-6.9791
X3.0688Y-6.9562
X4.4125Y-6.3062
X4.4641Y-6.2488
X4.6609Y-6.2291
X4.6625Y-6.2062
X8.35Y-4.8062
X8.4016Y-4.7488
X8.5984Y-4.7291
X8.6Y-4.7062
X6.6625Y-6.3062
X6.7141Y-6.2488
X6.9109Y-6.2291
X6.9125Y-6.2062
X13.975Y-4.8062
X14.0266Y-4.7488
X14.2234Y-4.7291
X14.225Y-4.7062
X13.225Y-3.3062
X13.2766Y-3.2488
X13.4734Y-3.2291
X13.475Y-3.2062
X6.475Y-4.0562
X6.5266Y-3.9988
X6.7234Y-3.9791
X6.725Y-3.9562
X4.225Y-3.3062
X4.2766Y-3.2488
X4.4734Y-3.2291
X4.475Y-3.2062
X13.225Y-6.3062
X13.2766Y-6.2488
X13.4734Y-6.2291
X13.475Y-6.2062
X6.2875Y-5.5562
X6.3391Y-5.4988
X6.5359Y-5.4791
X6.5375Y-5.4562
X13.975Y-7.0562
X14.0266Y-6.9988
X14.2234Y-6.9791
X14.225Y-6.9562
X11.1625Y-6.3062
X11.2141Y-6.2488
X11.4109Y-6.2291
X11.4125Y-6.2062
X4.7875Y-5.5562
X4.8391Y-5.4988
X5.0359Y-5.4791
X5.0375Y-5.4562
X12.475Y-7.0562
X12.5266Y-6.9988
X12.7234Y-6.9791
X12.725Y-6.9562
X9.85Y-4.8062
X9.9016Y-4.7488
X10.0984Y-4.7291
X10.1Y-4.7062
X11.725Y-4.0562
X11.7766Y-3.9988
X11.9734Y-3.9791
X11.975Y-3.9562
X8.725Y-3.3062
X8.7766Y-3.2488
X8.9734Y-3.2291
X8.975Y-3.2062
X12.85Y-4.0562
X12.9016Y-3.9988
X13.0984Y-3.9791
X13.1Y-3.9562
X8.9125Y-6.3062
X8.9641Y-6.2488
X9.1609Y-6.2291
X9.1625Y-6.2062
X7.7875Y-5.5562
X7.8391Y-5.4988
X8.0359Y-5.4791
X8.0375Y-5.4562
X5.35Y-4.8062
X5.4016Y-4.7488
X5.5984Y-4.7291
X5.6Y-4.7062
X10.225Y-3.3062
X10.2766Y-3.2488
X10.4734Y-3.2291
X10.475Y-3.2062
X6.85Y-4.8062
X6.9016Y-4.7488
X7.0984Y-4.7291
X7.1Y-4.7062
X2.725Y-3.3062
X2.7766Y-3.2488
X2.9734Y-3.2291
X2.975Y-3.2062
X13.975Y-4.0562
X14.0266Y-3.9988
X14.2234Y-3.9791
X14.225Y-3.9562
X8.725Y-4.0562
X8.7766Y-3.9988
X8.9734Y-3.9791
X8.975Y-3.9562
X5.725Y-3.3062
X5.7766Y-3.2488
X5.9734Y-3.2291
X5.975Y-3.2062
X2.725Y-4.0562
X2.7766Y-3.9988
X2.9734Y-3.9791
X2.975Y-3.9562
X5.9125Y-6.3062
X5.9641Y-6.2488
X6.1609Y-6.2291
X6.1625Y-6.2062
X13.975Y-5.5562
X14.0266Y-5.4988
X14.2234Y-5.4791
X14.225Y-5.4562
X7.975Y-3.3062
X8.0266Y-3.2488
X8.2234Y-3.2291
X8.225Y-3.2062
X7.4125Y-6.3062
X7.4641Y-6.2488
X7.6609Y-6.2291
X7.6625Y-6.2062
X3.1938Y-6.3062
X3.2453Y-6.2488
X3.4422Y-6.2291
X3.4438Y-6.2062
X11.5375Y-7.0562
X11.5891Y-6.9988
X11.7859Y-6.9791
X11.7875Y-6.9562
X4.975Y-4.0562
X5.0266Y-3.9988
X5.2234Y-3.9791
X5.225Y-3.9562
X11.5375Y-5.5562
X11.5891Y-5.4988
X11.7859Y-5.4791
X11.7875Y-5.4562
X7.6Y-4.8062
X7.6516Y-4.7488
X7.8484Y-4.7291
X7.85Y-4.7062
X3.475Y-4.0562
X3.5266Y-3.9988
X3.7234Y-3.9791
X3.725Y-3.9562
X13.975Y-3.3062
X14.0266Y-3.2488
X14.2234Y-3.2291
X14.225Y-3.2062
X10.7875Y-5.5562
X10.8391Y-5.4988
X11.0359Y-5.4791
X11.0375Y-5.4562
X11.725Y-3.3062
X11.7766Y-3.2488
X11.9734Y-3.2291
X11.975Y-3.2062
X9.475Y-3.3062
X9.5266Y-3.2488
X9.7234Y-3.2291
X9.725Y-3.2062
X4.975Y-3.3062
X5.0266Y-3.2488
X5.2234Y-3.2291
X5.225Y-3.2062
X11.35Y-4.8062
X11.4016Y-4.7488
X11.5984Y-4.7291
X11.6Y-4.7062
X10.225Y-4.0562
X10.2766Y-3.9988
X10.4734Y-3.9791
X10.475Y-3.9562
X12.475Y-3.3062
X12.5266Y-3.2488
X12.7234Y-3.2291
X12.725Y-3.2062
X3.475Y-3.3062
X3.5266Y-3.2488
X3.7234Y-3.2291
X3.725Y-3.2062
X10.4125Y-6.3062
X10.4641Y-6.2488
X10.6609Y-6.2291
X10.6625Y-6.2062
X7.5062Y-7.0562
X7.5578Y-6.9988
X7.7547Y-6.9791
X7.7562Y-6.9562
X2.9125Y-4.8062
X2.9641Y-4.7488
X3.1609Y-4.7291
X3.1625Y-4.7062
X9.2875Y-5.5562
X9.3391Y-5.4988
X9.5359Y-5.4791
X9.5375Y-5.4562
T0
M30
