M48
; DRILL file {KiCad (5.1.4)-1} date 3/10/2020 5:09:25 PM
; FORMAT={-:-/ absolute / inch / decimal}
; #@! TF.CreationDate,2020-10-03T17:09:25+10:00
; #@! TF.GenerationSoftware,Kicad,Pcbnew,(5.1.4)-1
; #@! TF.FileFunction,NonPlated,1,2,NPTH
FMAT,2
INCH
T1C0.0689
T2C0.1200
T3C0.1570
%
G90
G05
T1
X6.2375Y-5.6562
X6.6375Y-5.6562
X13.925Y-7.1562
X14.325Y-7.1562
X11.1125Y-6.4062
X11.5125Y-6.4062
X4.7375Y-5.6562
X5.1375Y-5.6562
X12.425Y-7.1562
X12.825Y-7.1562
X9.8Y-4.9062
X10.2Y-4.9062
X11.675Y-4.1562
X12.075Y-4.1562
X8.675Y-3.4062
X9.075Y-3.4062
X12.8Y-4.1562
X13.2Y-4.1562
X8.8625Y-6.4062
X9.2625Y-6.4062
X7.7375Y-5.6562
X8.1375Y-5.6562
X5.3Y-4.9062
X5.7Y-4.9062
X10.175Y-3.4062
X10.575Y-3.4062
X6.8Y-4.9062
X7.2Y-4.9062
X2.675Y-3.4062
X3.075Y-3.4062
X13.925Y-4.1562
X14.325Y-4.1562
X8.675Y-4.1562
X9.075Y-4.1562
X5.675Y-3.4062
X6.075Y-3.4062
X2.675Y-4.1562
X3.075Y-4.1562
X5.8625Y-6.4062
X6.2625Y-6.4062
X13.925Y-5.6562
X14.325Y-5.6562
X7.925Y-3.4062
X8.325Y-3.4062
X7.3625Y-6.4062
X7.7625Y-6.4062
X3.1437Y-6.4062
X3.5437Y-6.4062
X11.4875Y-7.1562
X11.8875Y-7.1562
X4.925Y-4.1562
X5.325Y-4.1562
X11.4875Y-5.6562
X11.8875Y-5.6562
X7.55Y-4.9062
X7.95Y-4.9062
X3.425Y-4.1562
X3.825Y-4.1562
X13.925Y-3.4062
X14.325Y-3.4062
X10.7375Y-5.6562
X11.1375Y-5.6562
X11.675Y-3.4062
X12.075Y-3.4062
X9.425Y-3.4062
X9.825Y-3.4062
X4.925Y-3.4062
X5.325Y-3.4062
X11.3Y-4.9062
X11.7Y-4.9062
X10.175Y-4.1562
X10.575Y-4.1562
X12.425Y-3.4062
X12.825Y-3.4062
X3.425Y-3.4062
X3.825Y-3.4062
X10.3625Y-6.4062
X10.7625Y-6.4062
X7.4562Y-7.1562
X7.8563Y-7.1562
X2.8625Y-4.9062
X3.2625Y-4.9062
X9.2375Y-5.6562
X9.6375Y-5.6562
X6.05Y-4.9062
X6.45Y-4.9062
X4.175Y-4.1562
X4.575Y-4.1562
X9.05Y-4.9062
X9.45Y-4.9062
X8.4875Y-5.6562
X8.8875Y-5.6562
X7.175Y-4.1562
X7.575Y-4.1562
X2.9562Y-5.6562
X3.3562Y-5.6562
X13.175Y-7.1562
X13.575Y-7.1562
X12.1437Y-6.4062
X12.5437Y-6.4062
X7.925Y-4.1562
X8.325Y-4.1562
X5.4875Y-5.6562
X5.8875Y-5.6562
X4.6437Y-7.1562
X5.0438Y-7.1562
X12.05Y-4.9062
X12.45Y-4.9062
X6.425Y-3.4062
X6.825Y-3.4062
X3.7062Y-7.1562
X4.1063Y-7.1562
X3.8Y-4.9062
X4.2Y-4.9062
X10.925Y-4.1562
X11.325Y-4.1562
X8.1125Y-6.4062
X8.5125Y-6.4062
X4.55Y-4.9062
X4.95Y-4.9062
X3.9875Y-5.6562
X4.3875Y-5.6562
X10.925Y-3.4062
X11.325Y-3.4062
X10.3625Y-7.1562
X10.7625Y-7.1562
X12.9875Y-4.9062
X13.3875Y-4.9062
X9.6125Y-6.4062
X10.0125Y-6.4062
X12.7062Y-5.6562
X13.1062Y-5.6562
X9.9875Y-5.6562
X10.3875Y-5.6562
X7.175Y-3.4062
X7.575Y-3.4062
X5.1125Y-6.4062
X5.5125Y-6.4062
X9.425Y-4.1562
X9.825Y-4.1562
X6.9875Y-5.6562
X7.3875Y-5.6562
X13.925Y-6.4062
X14.325Y-6.4062
X10.55Y-4.9062
X10.95Y-4.9062
X5.675Y-4.1562
X6.075Y-4.1562
X2.7687Y-7.1562
X3.1687Y-7.1562
X4.3625Y-6.4062
X4.7625Y-6.4062
X8.3Y-4.9062
X8.7Y-4.9062
X6.6125Y-6.4062
X7.0125Y-6.4062
X13.925Y-4.9062
X14.325Y-4.9062
X13.175Y-3.4062
X13.575Y-3.4062
X6.425Y-4.1562
X6.825Y-4.1562
X4.175Y-3.4062
X4.575Y-3.4062
X13.175Y-6.4062
X13.575Y-6.4062
T2
X12.53Y-3.8813
X13.47Y-3.8813
X2.8737Y-6.1312
X3.8137Y-6.1312
X5.6878Y-6.8812
X9.6248Y-6.8812
X12.4362Y-5.3812
X13.3762Y-5.3812
T3
X8.875Y-3.4062
X12.53Y-4.4813
X13.0Y-4.1562
X13.47Y-4.4813
X9.0625Y-6.4062
X7.9375Y-5.6562
X5.5Y-4.9062
X10.375Y-3.4062
X7.0Y-4.9062
X2.875Y-3.4062
X14.125Y-4.1562
X8.875Y-4.1562
X5.875Y-3.4062
X2.875Y-4.1562
X6.0625Y-6.4062
X14.125Y-5.6562
X8.125Y-3.4062
X7.5625Y-6.4062
X2.8737Y-6.7313
X3.3438Y-6.4062
X3.8137Y-6.7313
X11.6875Y-7.1562
X5.125Y-4.1562
X11.6875Y-5.6562
X7.75Y-4.9062
X3.625Y-4.1562
X14.125Y-3.4062
X10.9375Y-5.6562
X11.875Y-3.4062
X9.625Y-3.4062
X5.125Y-3.4062
X11.5Y-4.9062
X10.375Y-4.1562
X12.625Y-3.4062
X3.625Y-3.4062
X10.5625Y-6.4062
X5.6878Y-7.4813
X7.6562Y-7.1562
X9.6248Y-7.4813
X3.0625Y-4.9062
X9.4375Y-5.6562
X6.25Y-4.9062
X4.375Y-4.1562
X9.25Y-4.9062
X8.6875Y-5.6562
X7.375Y-4.1562
X3.1562Y-5.6562
X13.375Y-7.1562
X12.3438Y-6.4062
X8.125Y-4.1562
X5.6875Y-5.6562
X4.8438Y-7.1562
X12.25Y-4.9062
X6.625Y-3.4062
X3.9062Y-7.1562
X4.0Y-4.9062
X11.125Y-4.1562
X8.3125Y-6.4062
X4.75Y-4.9062
X4.1875Y-5.6562
X11.125Y-3.4062
X10.5625Y-7.1562
X13.1875Y-4.9062
X9.8125Y-6.4062
X12.4362Y-5.9813
X12.9062Y-5.6562
X13.3762Y-5.9813
X10.1875Y-5.6562
X7.375Y-3.4062
X5.3125Y-6.4062
X9.625Y-4.1562
X7.1875Y-5.6562
X14.125Y-6.4062
X10.75Y-4.9062
X5.875Y-4.1562
X2.9688Y-7.1562
X4.5625Y-6.4062
X8.5Y-4.9062
X6.8125Y-6.4062
X14.125Y-4.9062
X13.375Y-3.4062
X6.625Y-4.1562
X4.375Y-3.4062
X13.375Y-6.4062
X6.4375Y-5.6562
X14.125Y-7.1562
X11.3125Y-6.4062
X4.9375Y-5.6562
X12.625Y-7.1562
X10.0Y-4.9062
X11.875Y-4.1562
T0
M30
