G04 #@! TF.GenerationSoftware,KiCad,Pcbnew,(5.1.4)-1*
G04 #@! TF.CreationDate,2020-10-03T17:09:12+10:00*
G04 #@! TF.ProjectId,merchants 60,6d657263-6861-46e7-9473-2036302e6b69,rev?*
G04 #@! TF.SameCoordinates,Original*
G04 #@! TF.FileFunction,Copper,L1,Top*
G04 #@! TF.FilePolarity,Positive*
%FSLAX46Y46*%
G04 Gerber Fmt 4.6, Leading zero omitted, Abs format (unit mm)*
G04 Created by KiCad (PCBNEW (5.1.4)-1) date 2020-10-03 17:09:12*
%MOMM*%
%LPD*%
G04 APERTURE LIST*
%ADD10C,2.250000*%
%ADD11C,2.250000*%
%ADD12C,1.600000*%
%ADD13R,1.600000X1.600000*%
%ADD14C,0.800000*%
%ADD15C,0.400000*%
%ADD16C,0.250000*%
G04 APERTURE END LIST*
D10*
X151487500Y-158718750D03*
X150832501Y-159448750D03*
D11*
X150177500Y-160178750D02*
X151487502Y-158718750D01*
D10*
X156527500Y-157638750D03*
X156507500Y-157928750D03*
D11*
X156487500Y-158218750D02*
X156527500Y-157638750D01*
D10*
X137200000Y-120618750D03*
X136545001Y-121348750D03*
D11*
X135890000Y-122078750D02*
X137200002Y-120618750D01*
D10*
X142240000Y-119538750D03*
X142220000Y-119828750D03*
D11*
X142200000Y-120118750D02*
X142240000Y-119538750D01*
D10*
X113387500Y-158718750D03*
X112732501Y-159448750D03*
D11*
X112077500Y-160178750D02*
X113387502Y-158718750D01*
D10*
X118427500Y-157638750D03*
X118407500Y-157928750D03*
D11*
X118387500Y-158218750D02*
X118427500Y-157638750D01*
D10*
X75287500Y-120618750D03*
X74632501Y-121348750D03*
D11*
X73977500Y-122078750D02*
X75287502Y-120618750D01*
D10*
X80327500Y-119538750D03*
X80307500Y-119828750D03*
D11*
X80287500Y-120118750D02*
X80327500Y-119538750D01*
D10*
X89575000Y-82518750D03*
X88920001Y-83248750D03*
D11*
X88265000Y-83978750D02*
X89575002Y-82518750D01*
D10*
X94615000Y-81438750D03*
X94595000Y-81728750D03*
D11*
X94575000Y-82018750D02*
X94615000Y-81438750D01*
D10*
X70525000Y-82518750D03*
X69870001Y-83248750D03*
D11*
X69215000Y-83978750D02*
X70525002Y-82518750D01*
D10*
X75565000Y-81438750D03*
X75545000Y-81728750D03*
D11*
X75525000Y-82018750D02*
X75565000Y-81438750D01*
D10*
X232450000Y-120618750D03*
X231795001Y-121348750D03*
D11*
X231140000Y-122078750D02*
X232450002Y-120618750D01*
D10*
X237490000Y-119538750D03*
X237470000Y-119828750D03*
D11*
X237450000Y-120118750D02*
X237490000Y-119538750D01*
D10*
X132437500Y-158718750D03*
X131782501Y-159448750D03*
D11*
X131127500Y-160178750D02*
X132437502Y-158718750D01*
D10*
X137477500Y-157638750D03*
X137457500Y-157928750D03*
D11*
X137437500Y-158218750D02*
X137477500Y-157638750D01*
D10*
X82431250Y-158718750D03*
X81776251Y-159448750D03*
D11*
X81121250Y-160178750D02*
X82431252Y-158718750D01*
D10*
X87471250Y-157638750D03*
X87451250Y-157928750D03*
D11*
X87431250Y-158218750D02*
X87471250Y-157638750D01*
D10*
X99100000Y-120618750D03*
X98445001Y-121348750D03*
D11*
X97790000Y-122078750D02*
X99100002Y-120618750D01*
D10*
X104140000Y-119538750D03*
X104120000Y-119828750D03*
D11*
X104100000Y-120118750D02*
X104140000Y-119538750D01*
D10*
X356275000Y-82518750D03*
X355620001Y-83248750D03*
D11*
X354965000Y-83978750D02*
X356275002Y-82518750D01*
D10*
X361315000Y-81438750D03*
X361295000Y-81728750D03*
D11*
X361275000Y-82018750D02*
X361315000Y-81438750D01*
D10*
X356275000Y-177768750D03*
X355620001Y-178498750D03*
D11*
X354965000Y-179228750D02*
X356275002Y-177768750D01*
D10*
X361315000Y-176688750D03*
X361295000Y-176978750D03*
D11*
X361275000Y-177268750D02*
X361315000Y-176688750D01*
D10*
X103862500Y-139668750D03*
X103207501Y-140398750D03*
D11*
X102552500Y-141128750D02*
X103862502Y-139668750D01*
D10*
X108902500Y-138588750D03*
X108882500Y-138878750D03*
D11*
X108862500Y-139168750D02*
X108902500Y-138588750D01*
D10*
X356275000Y-158718750D03*
X355620001Y-159448750D03*
D11*
X354965000Y-160178750D02*
X356275002Y-158718750D01*
D10*
X361315000Y-157638750D03*
X361295000Y-157928750D03*
D11*
X361275000Y-158218750D02*
X361315000Y-157638750D01*
D10*
X356275000Y-139668750D03*
X355620001Y-140398750D03*
D11*
X354965000Y-141128750D02*
X356275002Y-139668750D01*
D10*
X361315000Y-138588750D03*
X361295000Y-138878750D03*
D11*
X361275000Y-139168750D02*
X361315000Y-138588750D01*
D10*
X356275000Y-120618750D03*
X355620001Y-121348750D03*
D11*
X354965000Y-122078750D02*
X356275002Y-120618750D01*
D10*
X361315000Y-119538750D03*
X361295000Y-119828750D03*
D11*
X361275000Y-120118750D02*
X361315000Y-119538750D01*
D10*
X356275000Y-101568750D03*
X355620001Y-102298750D03*
D11*
X354965000Y-103028750D02*
X356275002Y-101568750D01*
D10*
X361315000Y-100488750D03*
X361295000Y-100778750D03*
D11*
X361275000Y-101068750D02*
X361315000Y-100488750D01*
D10*
X337225000Y-177768750D03*
X336570001Y-178498750D03*
D11*
X335915000Y-179228750D02*
X337225002Y-177768750D01*
D10*
X342265000Y-176688750D03*
X342245000Y-176978750D03*
D11*
X342225000Y-177268750D02*
X342265000Y-176688750D01*
D10*
X337225000Y-158718750D03*
X336570001Y-159448750D03*
D11*
X335915000Y-160178750D02*
X337225002Y-158718750D01*
D10*
X342265000Y-157638750D03*
X342245000Y-157928750D03*
D11*
X342225000Y-158218750D02*
X342265000Y-157638750D01*
D10*
X332462500Y-120618750D03*
X331807501Y-121348750D03*
D11*
X331152500Y-122078750D02*
X332462502Y-120618750D01*
D10*
X337502500Y-119538750D03*
X337482500Y-119828750D03*
D11*
X337462500Y-120118750D02*
X337502500Y-119538750D01*
D10*
X327700000Y-101568750D03*
X327045001Y-102298750D03*
D11*
X326390000Y-103028750D02*
X327700002Y-101568750D01*
D10*
X332740000Y-100488750D03*
X332720000Y-100778750D03*
D11*
X332700000Y-101068750D02*
X332740000Y-100488750D01*
D10*
X337225000Y-82518750D03*
X336570001Y-83248750D03*
D11*
X335915000Y-83978750D02*
X337225002Y-82518750D01*
D10*
X342265000Y-81438750D03*
X342245000Y-81728750D03*
D11*
X342225000Y-82018750D02*
X342265000Y-81438750D01*
D10*
X318175000Y-177768750D03*
X317520001Y-178498750D03*
D11*
X316865000Y-179228750D02*
X318175002Y-177768750D01*
D10*
X323215000Y-176688750D03*
X323195000Y-176978750D03*
D11*
X323175000Y-177268750D02*
X323215000Y-176688750D01*
D10*
X311031250Y-158718750D03*
X310376251Y-159448750D03*
D11*
X309721250Y-160178750D02*
X311031252Y-158718750D01*
D10*
X316071250Y-157638750D03*
X316051250Y-157928750D03*
D11*
X316031250Y-158218750D02*
X316071250Y-157638750D01*
D10*
X325318750Y-139668750D03*
X324663751Y-140398750D03*
D11*
X324008750Y-141128750D02*
X325318752Y-139668750D01*
D10*
X330358750Y-138588750D03*
X330338750Y-138878750D03*
D11*
X330318750Y-139168750D02*
X330358750Y-138588750D01*
D10*
X318175000Y-82518750D03*
X317520001Y-83248750D03*
D11*
X316865000Y-83978750D02*
X318175002Y-82518750D01*
D10*
X323215000Y-81438750D03*
X323195000Y-81728750D03*
D11*
X323175000Y-82018750D02*
X323215000Y-81438750D01*
D10*
X294362500Y-177768750D03*
X293707501Y-178498750D03*
D11*
X293052500Y-179228750D02*
X294362502Y-177768750D01*
D10*
X299402500Y-176688750D03*
X299382500Y-176978750D03*
D11*
X299362500Y-177268750D02*
X299402500Y-176688750D01*
D10*
X308650000Y-120618750D03*
X307995001Y-121348750D03*
D11*
X307340000Y-122078750D02*
X308650002Y-120618750D01*
D10*
X313690000Y-119538750D03*
X313670000Y-119828750D03*
D11*
X313650000Y-120118750D02*
X313690000Y-119538750D01*
D10*
X299125000Y-101568750D03*
X298470001Y-102298750D03*
D11*
X297815000Y-103028750D02*
X299125002Y-101568750D01*
D10*
X304165000Y-100488750D03*
X304145000Y-100778750D03*
D11*
X304125000Y-101068750D02*
X304165000Y-100488750D01*
D10*
X299125000Y-82518750D03*
X298470001Y-83248750D03*
D11*
X297815000Y-83978750D02*
X299125002Y-82518750D01*
D10*
X304165000Y-81438750D03*
X304145000Y-81728750D03*
D11*
X304125000Y-82018750D02*
X304165000Y-81438750D01*
D10*
X294362500Y-139668750D03*
X293707501Y-140398750D03*
D11*
X293052500Y-141128750D02*
X294362502Y-139668750D01*
D10*
X299402500Y-138588750D03*
X299382500Y-138878750D03*
D11*
X299362500Y-139168750D02*
X299402500Y-138588750D01*
D10*
X289600000Y-120618750D03*
X288945001Y-121348750D03*
D11*
X288290000Y-122078750D02*
X289600002Y-120618750D01*
D10*
X294640000Y-119538750D03*
X294620000Y-119828750D03*
D11*
X294600000Y-120118750D02*
X294640000Y-119538750D01*
D10*
X280075000Y-101568750D03*
X279420001Y-102298750D03*
D11*
X278765000Y-103028750D02*
X280075002Y-101568750D01*
D10*
X285115000Y-100488750D03*
X285095000Y-100778750D03*
D11*
X285075000Y-101068750D02*
X285115000Y-100488750D01*
D10*
X280075000Y-82518750D03*
X279420001Y-83248750D03*
D11*
X278765000Y-83978750D02*
X280075002Y-82518750D01*
D10*
X285115000Y-81438750D03*
X285095000Y-81728750D03*
D11*
X285075000Y-82018750D02*
X285115000Y-81438750D01*
D10*
X284837500Y-158718750D03*
X284182501Y-159448750D03*
D11*
X283527500Y-160178750D02*
X284837502Y-158718750D01*
D10*
X289877500Y-157638750D03*
X289857500Y-157928750D03*
D11*
X289837500Y-158218750D02*
X289877500Y-157638750D01*
D10*
X275312500Y-139668750D03*
X274657501Y-140398750D03*
D11*
X274002500Y-141128750D02*
X275312502Y-139668750D01*
D10*
X280352500Y-138588750D03*
X280332500Y-138878750D03*
D11*
X280312500Y-139168750D02*
X280352500Y-138588750D01*
D10*
X270550000Y-120618750D03*
X269895001Y-121348750D03*
D11*
X269240000Y-122078750D02*
X270550002Y-120618750D01*
D10*
X275590000Y-119538750D03*
X275570000Y-119828750D03*
D11*
X275550000Y-120118750D02*
X275590000Y-119538750D01*
D10*
X261025000Y-101568750D03*
X260370001Y-102298750D03*
D11*
X259715000Y-103028750D02*
X261025002Y-101568750D01*
D10*
X266065000Y-100488750D03*
X266045000Y-100778750D03*
D11*
X266025000Y-101068750D02*
X266065000Y-100488750D01*
D10*
X261025000Y-82518750D03*
X260370001Y-83248750D03*
D11*
X259715000Y-83978750D02*
X261025002Y-82518750D01*
D10*
X266065000Y-81438750D03*
X266045000Y-81728750D03*
D11*
X266025000Y-82018750D02*
X266065000Y-81438750D01*
D10*
X265787500Y-177768750D03*
X265132501Y-178498750D03*
D11*
X264477500Y-179228750D02*
X265787502Y-177768750D01*
D10*
X270827500Y-176688750D03*
X270807500Y-176978750D03*
D11*
X270787500Y-177268750D02*
X270827500Y-176688750D01*
D10*
X265787500Y-158718750D03*
X265132501Y-159448750D03*
D11*
X264477500Y-160178750D02*
X265787502Y-158718750D01*
D10*
X270827500Y-157638750D03*
X270807500Y-157928750D03*
D11*
X270787500Y-158218750D02*
X270827500Y-157638750D01*
D10*
X256262500Y-139668750D03*
X255607501Y-140398750D03*
D11*
X254952500Y-141128750D02*
X256262502Y-139668750D01*
D10*
X261302500Y-138588750D03*
X261282500Y-138878750D03*
D11*
X261262500Y-139168750D02*
X261302500Y-138588750D01*
D10*
X251500000Y-120618750D03*
X250845001Y-121348750D03*
D11*
X250190000Y-122078750D02*
X251500002Y-120618750D01*
D10*
X256540000Y-119538750D03*
X256520000Y-119828750D03*
D11*
X256500000Y-120118750D02*
X256540000Y-119538750D01*
D10*
X241975000Y-101568750D03*
X241320001Y-102298750D03*
D11*
X240665000Y-103028750D02*
X241975002Y-101568750D01*
D10*
X247015000Y-100488750D03*
X246995000Y-100778750D03*
D11*
X246975000Y-101068750D02*
X247015000Y-100488750D01*
D10*
X241975000Y-82518750D03*
X241320001Y-83248750D03*
D11*
X240665000Y-83978750D02*
X241975002Y-82518750D01*
D10*
X247015000Y-81438750D03*
X246995000Y-81728750D03*
D11*
X246975000Y-82018750D02*
X247015000Y-81438750D01*
D10*
X246737500Y-158718750D03*
X246082501Y-159448750D03*
D11*
X245427500Y-160178750D02*
X246737502Y-158718750D01*
D10*
X251777500Y-157638750D03*
X251757500Y-157928750D03*
D11*
X251737500Y-158218750D02*
X251777500Y-157638750D01*
D10*
X237212500Y-139668750D03*
X236557501Y-140398750D03*
D11*
X235902500Y-141128750D02*
X237212502Y-139668750D01*
D10*
X242252500Y-138588750D03*
X242232500Y-138878750D03*
D11*
X242212500Y-139168750D02*
X242252500Y-138588750D01*
D10*
X222925000Y-101568750D03*
X222270001Y-102298750D03*
D11*
X221615000Y-103028750D02*
X222925002Y-101568750D01*
D10*
X227965000Y-100488750D03*
X227945000Y-100778750D03*
D11*
X227925000Y-101068750D02*
X227965000Y-100488750D01*
D10*
X222925000Y-82518750D03*
X222270001Y-83248750D03*
D11*
X221615000Y-83978750D02*
X222925002Y-82518750D01*
D10*
X227965000Y-81438750D03*
X227945000Y-81728750D03*
D11*
X227925000Y-82018750D02*
X227965000Y-81438750D01*
D10*
X227687500Y-158718750D03*
X227032501Y-159448750D03*
D11*
X226377500Y-160178750D02*
X227687502Y-158718750D01*
D10*
X232727500Y-157638750D03*
X232707500Y-157928750D03*
D11*
X232687500Y-158218750D02*
X232727500Y-157638750D01*
D10*
X218162500Y-139668750D03*
X217507501Y-140398750D03*
D11*
X216852500Y-141128750D02*
X218162502Y-139668750D01*
D10*
X223202500Y-138588750D03*
X223182500Y-138878750D03*
D11*
X223162500Y-139168750D02*
X223202500Y-138588750D01*
D10*
X213400000Y-120618750D03*
X212745001Y-121348750D03*
D11*
X212090000Y-122078750D02*
X213400002Y-120618750D01*
D10*
X218440000Y-119538750D03*
X218420000Y-119828750D03*
D11*
X218400000Y-120118750D02*
X218440000Y-119538750D01*
D10*
X203875000Y-101568750D03*
X203220001Y-102298750D03*
D11*
X202565000Y-103028750D02*
X203875002Y-101568750D01*
D10*
X208915000Y-100488750D03*
X208895000Y-100778750D03*
D11*
X208875000Y-101068750D02*
X208915000Y-100488750D01*
D10*
X203875000Y-82518750D03*
X203220001Y-83248750D03*
D11*
X202565000Y-83978750D02*
X203875002Y-82518750D01*
D10*
X208915000Y-81438750D03*
X208895000Y-81728750D03*
D11*
X208875000Y-82018750D02*
X208915000Y-81438750D01*
D10*
X208637500Y-158718750D03*
X207982501Y-159448750D03*
D11*
X207327500Y-160178750D02*
X208637502Y-158718750D01*
D10*
X213677500Y-157638750D03*
X213657500Y-157928750D03*
D11*
X213637500Y-158218750D02*
X213677500Y-157638750D01*
D10*
X199112500Y-139668750D03*
X198457501Y-140398750D03*
D11*
X197802500Y-141128750D02*
X199112502Y-139668750D01*
D10*
X204152500Y-138588750D03*
X204132500Y-138878750D03*
D11*
X204112500Y-139168750D02*
X204152500Y-138588750D01*
D10*
X194350000Y-120618750D03*
X193695001Y-121348750D03*
D11*
X193040000Y-122078750D02*
X194350002Y-120618750D01*
D10*
X199390000Y-119538750D03*
X199370000Y-119828750D03*
D11*
X199350000Y-120118750D02*
X199390000Y-119538750D01*
D10*
X184825000Y-101568750D03*
X184170001Y-102298750D03*
D11*
X183515000Y-103028750D02*
X184825002Y-101568750D01*
D10*
X189865000Y-100488750D03*
X189845000Y-100778750D03*
D11*
X189825000Y-101068750D02*
X189865000Y-100488750D01*
D10*
X184825000Y-82518750D03*
X184170001Y-83248750D03*
D11*
X183515000Y-83978750D02*
X184825002Y-82518750D01*
D10*
X189865000Y-81438750D03*
X189845000Y-81728750D03*
D11*
X189825000Y-82018750D02*
X189865000Y-81438750D01*
D10*
X191968750Y-177768750D03*
X191313751Y-178498750D03*
D11*
X190658750Y-179228750D02*
X191968752Y-177768750D01*
D10*
X197008750Y-176688750D03*
X196988750Y-176978750D03*
D11*
X196968750Y-177268750D02*
X197008750Y-176688750D01*
D10*
X189587500Y-158718750D03*
X188932501Y-159448750D03*
D11*
X188277500Y-160178750D02*
X189587502Y-158718750D01*
D10*
X194627500Y-157638750D03*
X194607500Y-157928750D03*
D11*
X194587500Y-158218750D02*
X194627500Y-157638750D01*
D10*
X180062500Y-139668750D03*
X179407501Y-140398750D03*
D11*
X178752500Y-141128750D02*
X180062502Y-139668750D01*
D10*
X185102500Y-138588750D03*
X185082500Y-138878750D03*
D11*
X185062500Y-139168750D02*
X185102500Y-138588750D01*
D10*
X175300000Y-120618750D03*
X174645001Y-121348750D03*
D11*
X173990000Y-122078750D02*
X175300002Y-120618750D01*
D10*
X180340000Y-119538750D03*
X180320000Y-119828750D03*
D11*
X180300000Y-120118750D02*
X180340000Y-119538750D01*
D10*
X165775000Y-101568750D03*
X165120001Y-102298750D03*
D11*
X164465000Y-103028750D02*
X165775002Y-101568750D01*
D10*
X170815000Y-100488750D03*
X170795000Y-100778750D03*
D11*
X170775000Y-101068750D02*
X170815000Y-100488750D01*
D10*
X165775000Y-82518750D03*
X165120001Y-83248750D03*
D11*
X164465000Y-83978750D02*
X165775002Y-82518750D01*
D10*
X170815000Y-81438750D03*
X170795000Y-81728750D03*
D11*
X170775000Y-82018750D02*
X170815000Y-81438750D01*
D10*
X170537500Y-158718750D03*
X169882501Y-159448750D03*
D11*
X169227500Y-160178750D02*
X170537502Y-158718750D01*
D10*
X175577500Y-157638750D03*
X175557500Y-157928750D03*
D11*
X175537500Y-158218750D02*
X175577500Y-157638750D01*
D10*
X161012500Y-139668750D03*
X160357501Y-140398750D03*
D11*
X159702500Y-141128750D02*
X161012502Y-139668750D01*
D10*
X166052500Y-138588750D03*
X166032500Y-138878750D03*
D11*
X166012500Y-139168750D02*
X166052500Y-138588750D01*
D10*
X156250000Y-120618750D03*
X155595001Y-121348750D03*
D11*
X154940000Y-122078750D02*
X156250002Y-120618750D01*
D10*
X161290000Y-119538750D03*
X161270000Y-119828750D03*
D11*
X161250000Y-120118750D02*
X161290000Y-119538750D01*
D10*
X146725000Y-101568750D03*
X146070001Y-102298750D03*
D11*
X145415000Y-103028750D02*
X146725002Y-101568750D01*
D10*
X151765000Y-100488750D03*
X151745000Y-100778750D03*
D11*
X151725000Y-101068750D02*
X151765000Y-100488750D01*
D10*
X146725000Y-82518750D03*
X146070001Y-83248750D03*
D11*
X145415000Y-83978750D02*
X146725002Y-82518750D01*
D10*
X151765000Y-81438750D03*
X151745000Y-81728750D03*
D11*
X151725000Y-82018750D02*
X151765000Y-81438750D01*
D10*
X141962500Y-139668750D03*
X141307501Y-140398750D03*
D11*
X140652500Y-141128750D02*
X141962502Y-139668750D01*
D10*
X147002500Y-138588750D03*
X146982500Y-138878750D03*
D11*
X146962500Y-139168750D02*
X147002500Y-138588750D01*
D10*
X127675000Y-101568750D03*
X127020001Y-102298750D03*
D11*
X126365000Y-103028750D02*
X127675002Y-101568750D01*
D10*
X132715000Y-100488750D03*
X132695000Y-100778750D03*
D11*
X132675000Y-101068750D02*
X132715000Y-100488750D01*
D10*
X127675000Y-82518750D03*
X127020001Y-83248750D03*
D11*
X126365000Y-83978750D02*
X127675002Y-82518750D01*
D10*
X132715000Y-81438750D03*
X132695000Y-81728750D03*
D11*
X132675000Y-82018750D02*
X132715000Y-81438750D01*
D10*
X120531250Y-177768750D03*
X119876251Y-178498750D03*
D11*
X119221250Y-179228750D02*
X120531252Y-177768750D01*
D10*
X125571250Y-176688750D03*
X125551250Y-176978750D03*
D11*
X125531250Y-177268750D02*
X125571250Y-176688750D01*
D10*
X122912500Y-139668750D03*
X122257501Y-140398750D03*
D11*
X121602500Y-141128750D02*
X122912502Y-139668750D01*
D10*
X127952500Y-138588750D03*
X127932500Y-138878750D03*
D11*
X127912500Y-139168750D02*
X127952500Y-138588750D01*
D10*
X118150000Y-120618750D03*
X117495001Y-121348750D03*
D11*
X116840000Y-122078750D02*
X118150002Y-120618750D01*
D10*
X123190000Y-119538750D03*
X123170000Y-119828750D03*
D11*
X123150000Y-120118750D02*
X123190000Y-119538750D01*
D10*
X108625000Y-101568750D03*
X107970001Y-102298750D03*
D11*
X107315000Y-103028750D02*
X108625002Y-101568750D01*
D10*
X113665000Y-100488750D03*
X113645000Y-100778750D03*
D11*
X113625000Y-101068750D02*
X113665000Y-100488750D01*
D10*
X108625000Y-82518750D03*
X107970001Y-83248750D03*
D11*
X107315000Y-83978750D02*
X108625002Y-82518750D01*
D10*
X113665000Y-81438750D03*
X113645000Y-81728750D03*
D11*
X113625000Y-82018750D02*
X113665000Y-81438750D01*
D10*
X96718750Y-177768750D03*
X96063751Y-178498750D03*
D11*
X95408750Y-179228750D02*
X96718752Y-177768750D01*
D10*
X101758750Y-176688750D03*
X101738750Y-176978750D03*
D11*
X101718750Y-177268750D02*
X101758750Y-176688750D01*
D10*
X89575000Y-101568750D03*
X88920001Y-102298750D03*
D11*
X88265000Y-103028750D02*
X89575002Y-101568750D01*
D10*
X94615000Y-100488750D03*
X94595000Y-100778750D03*
D11*
X94575000Y-101068750D02*
X94615000Y-100488750D01*
D10*
X72906250Y-177768750D03*
X72251251Y-178498750D03*
D11*
X71596250Y-179228750D02*
X72906252Y-177768750D01*
D10*
X77946250Y-176688750D03*
X77926250Y-176978750D03*
D11*
X77906250Y-177268750D02*
X77946250Y-176688750D01*
D10*
X77668750Y-139668750D03*
X77013751Y-140398750D03*
D11*
X76358750Y-141128750D02*
X77668752Y-139668750D01*
D10*
X82708750Y-138588750D03*
X82688750Y-138878750D03*
D11*
X82668750Y-139168750D02*
X82708750Y-138588750D01*
D10*
X70525000Y-101568750D03*
X69870001Y-102298750D03*
D11*
X69215000Y-103028750D02*
X70525002Y-101568750D01*
D10*
X75565000Y-100488750D03*
X75545000Y-100778750D03*
D11*
X75525000Y-101068750D02*
X75565000Y-100488750D01*
D12*
X362452750Y-190182500D03*
D13*
X354652750Y-190182500D03*
D12*
X367061750Y-163422500D03*
D13*
X367061750Y-171222500D03*
D12*
X367061750Y-144372500D03*
D13*
X367061750Y-152172500D03*
D12*
X367061750Y-119925000D03*
D13*
X367061750Y-127725000D03*
D12*
X367061750Y-106272500D03*
D13*
X367061750Y-114072500D03*
D12*
X367061750Y-87222500D03*
D13*
X367061750Y-95022500D03*
D12*
X348011750Y-182472500D03*
D13*
X348011750Y-190272500D03*
D12*
X348011750Y-163422500D03*
D13*
X348011750Y-171222500D03*
D12*
X347884750Y-119925000D03*
D13*
X347884750Y-127725000D03*
D12*
X348011750Y-106272500D03*
D13*
X348011750Y-114072500D03*
D12*
X348011750Y-87222500D03*
D13*
X348011750Y-95022500D03*
D12*
X328961750Y-182472500D03*
D13*
X328961750Y-190272500D03*
D12*
X328834750Y-163422500D03*
D13*
X328834750Y-171222500D03*
D12*
X335946750Y-144245500D03*
D13*
X335946750Y-152045500D03*
D12*
X328961750Y-87222500D03*
D13*
X328961750Y-95022500D03*
D12*
X305085750Y-182472500D03*
D13*
X305085750Y-190272500D03*
D12*
X319436750Y-119925000D03*
D13*
X319436750Y-127725000D03*
D12*
X309911750Y-106272500D03*
D13*
X309911750Y-114072500D03*
D12*
X310038750Y-87222500D03*
D13*
X310038750Y-95022500D03*
D12*
X305085750Y-144372500D03*
D13*
X305085750Y-152172500D03*
D12*
X300386750Y-119925000D03*
D13*
X300386750Y-127725000D03*
D12*
X290861750Y-106272500D03*
D13*
X290861750Y-114072500D03*
D12*
X290861750Y-87222500D03*
D13*
X290861750Y-95022500D03*
D12*
X295560750Y-163422500D03*
D13*
X295560750Y-171222500D03*
D12*
X286035750Y-144372500D03*
D13*
X286035750Y-152172500D03*
D12*
X281336750Y-119925000D03*
D13*
X281336750Y-127725000D03*
D12*
X271811750Y-106272500D03*
D13*
X271811750Y-114072500D03*
D12*
X271811750Y-87222500D03*
D13*
X271811750Y-95022500D03*
D12*
X276637750Y-182472500D03*
D13*
X276637750Y-190272500D03*
D12*
X276510750Y-163422500D03*
D13*
X276510750Y-171222500D03*
D12*
X266985750Y-144372500D03*
D13*
X266985750Y-152172500D03*
D12*
X262286750Y-119925000D03*
D13*
X262286750Y-127725000D03*
D12*
X252761750Y-106272500D03*
D13*
X252761750Y-114072500D03*
D12*
X252761750Y-87222500D03*
D13*
X252761750Y-95022500D03*
D12*
X257460750Y-163422500D03*
D13*
X257460750Y-171222500D03*
D12*
X247935750Y-144372500D03*
D13*
X247935750Y-152172500D03*
D12*
X243236750Y-119925000D03*
D13*
X243236750Y-127725000D03*
D12*
X233711750Y-106272500D03*
D13*
X233711750Y-114072500D03*
D12*
X233711750Y-87222500D03*
D13*
X233711750Y-95022500D03*
D12*
X238410750Y-163422500D03*
D13*
X238410750Y-171222500D03*
D12*
X228885750Y-144372500D03*
D13*
X228885750Y-152172500D03*
D12*
X224186750Y-119925000D03*
D13*
X224186750Y-127725000D03*
D12*
X214661750Y-106272500D03*
D13*
X214661750Y-114072500D03*
D12*
X214661750Y-87222500D03*
D13*
X214661750Y-95022500D03*
D12*
X219360750Y-163422500D03*
D13*
X219360750Y-171222500D03*
D12*
X209835750Y-144372500D03*
D13*
X209835750Y-152172500D03*
D12*
X205136750Y-119925000D03*
D13*
X205136750Y-127725000D03*
D12*
X195611750Y-106272500D03*
D13*
X195611750Y-114072500D03*
D12*
X195611750Y-87222500D03*
D13*
X195611750Y-95022500D03*
D12*
X202723750Y-182472500D03*
D13*
X202723750Y-190272500D03*
D12*
X200310750Y-163422500D03*
D13*
X200310750Y-171222500D03*
D12*
X190785750Y-144372500D03*
D13*
X190785750Y-152172500D03*
D12*
X186086750Y-119925000D03*
D13*
X186086750Y-127725000D03*
D12*
X176561750Y-106272500D03*
D13*
X176561750Y-114072500D03*
D12*
X176561750Y-87222500D03*
D13*
X176561750Y-95022500D03*
D12*
X181260750Y-163422500D03*
D13*
X181260750Y-171222500D03*
D12*
X171735750Y-144372500D03*
D13*
X171735750Y-152172500D03*
D12*
X167036750Y-119925000D03*
D13*
X167036750Y-127725000D03*
D12*
X157511750Y-106272500D03*
D13*
X157511750Y-114072500D03*
D12*
X157511750Y-87222500D03*
D13*
X157511750Y-95022500D03*
D12*
X162210750Y-163422500D03*
D13*
X162210750Y-171222500D03*
D12*
X152685750Y-144372500D03*
D13*
X152685750Y-152172500D03*
D12*
X147986750Y-119925000D03*
D13*
X147986750Y-127725000D03*
D12*
X138461750Y-106272500D03*
D13*
X138461750Y-114072500D03*
D12*
X138461750Y-87222500D03*
D13*
X138461750Y-95022500D03*
D12*
X133635750Y-182345500D03*
D13*
X133635750Y-190145500D03*
D12*
X143160750Y-163422500D03*
D13*
X143160750Y-171222500D03*
D12*
X133762750Y-144372500D03*
D13*
X133762750Y-152172500D03*
D12*
X128936750Y-119925000D03*
D13*
X128936750Y-127725000D03*
D12*
X119411750Y-106272500D03*
D13*
X119411750Y-114072500D03*
D12*
X119411750Y-87146500D03*
D13*
X119411750Y-94946500D03*
D12*
X109886750Y-182472500D03*
D13*
X109886750Y-190272500D03*
D12*
X124110750Y-163422500D03*
D13*
X124110750Y-171222500D03*
D12*
X114585750Y-144372500D03*
D13*
X114585750Y-152172500D03*
D12*
X109886750Y-119925000D03*
D13*
X109886750Y-127725000D03*
D12*
X100361750Y-106272500D03*
D13*
X100361750Y-114072500D03*
D12*
X100361750Y-87222500D03*
D13*
X100361750Y-95022500D03*
D12*
X86010750Y-182472500D03*
D13*
X86010750Y-190272500D03*
D12*
X105060750Y-163422500D03*
D13*
X105060750Y-171222500D03*
D12*
X83216750Y-146226700D03*
D13*
X83216750Y-154026700D03*
D12*
X84625350Y-117589300D03*
D13*
X92425350Y-117589300D03*
D12*
X81311750Y-106272500D03*
D13*
X81311750Y-114072500D03*
D12*
X81311750Y-87222500D03*
D13*
X81311750Y-95022500D03*
D14*
X86042500Y-133413500D03*
X95885000Y-129032000D03*
X101409500Y-136588500D03*
X94424500Y-145288000D03*
X90678000Y-143827500D03*
X87757000Y-141097000D03*
X100838000Y-145796000D03*
X81211847Y-117819000D03*
X111633000Y-125476000D03*
X111633000Y-115951000D03*
X92202000Y-125476000D03*
X92202000Y-120523000D03*
X217900006Y-77978000D03*
X94996000Y-150913000D03*
X108839000Y-161290000D03*
X108966000Y-170180000D03*
X108966000Y-171958000D03*
X252793500Y-173291500D03*
X71885875Y-117217125D03*
X96365125Y-117883875D03*
X114335625Y-116804375D03*
X100316782Y-157157657D03*
X149101875Y-156333125D03*
X96630235Y-150888833D03*
X97100108Y-148789108D03*
X100328037Y-156143606D03*
X167580375Y-155761625D03*
X97807216Y-149496216D03*
X100738523Y-155231737D03*
X186122375Y-155253625D03*
X98514324Y-150203324D03*
X101736601Y-155169735D03*
X204854875Y-154936125D03*
X99335586Y-148209000D03*
X102683315Y-155637228D03*
X223333375Y-154364625D03*
X100203000Y-147320000D03*
X103632000Y-155321000D03*
X241240375Y-153221625D03*
X250190000Y-132080000D03*
X269240000Y-132080000D03*
X288290000Y-131191000D03*
X308271859Y-130852859D03*
X325318750Y-130373750D03*
X331808751Y-129836249D03*
X354965000Y-128905000D03*
X216900003Y-77978000D03*
X91059000Y-150622000D03*
X107701814Y-161284186D03*
X252787686Y-174428686D03*
X107985752Y-168656000D03*
X108185130Y-172582696D03*
X215900000Y-77978000D03*
X89154000Y-150622000D03*
X106692960Y-161300638D03*
X251776339Y-176465339D03*
X107260752Y-169463089D03*
X107863807Y-173529667D03*
X214899997Y-77978000D03*
X87503000Y-150749000D03*
X105660508Y-161293492D03*
X106460752Y-170434000D03*
X107355344Y-174390753D03*
X251209492Y-178057492D03*
X80899000Y-135509000D03*
X86154787Y-131523213D03*
D15*
X86042500Y-133413500D02*
X91313000Y-128143000D01*
X94996000Y-128143000D02*
X95885000Y-129032000D01*
X91313000Y-128143000D02*
X94996000Y-128143000D01*
X101409500Y-134556500D02*
X101409500Y-136588500D01*
X95885000Y-129032000D02*
X101409500Y-134556500D01*
X101409500Y-138303000D02*
X94424500Y-145288000D01*
X101409500Y-136588500D02*
X101409500Y-138303000D01*
X90487500Y-143827500D02*
X90678000Y-143827500D01*
X87757000Y-141097000D02*
X90487500Y-143827500D01*
X92138500Y-145288000D02*
X94424500Y-145288000D01*
X90678000Y-143827500D02*
X92138500Y-145288000D01*
D16*
X100330000Y-145288000D02*
X94424500Y-145288000D01*
X100838000Y-145796000D02*
X100330000Y-145288000D01*
D15*
X76108000Y-82018750D02*
X81311750Y-87222500D01*
X75525000Y-82018750D02*
X76108000Y-82018750D01*
X76108000Y-101068750D02*
X81311750Y-106272500D01*
X75525000Y-101068750D02*
X76108000Y-101068750D01*
D16*
X81211847Y-114172403D02*
X81311750Y-114072500D01*
X81211847Y-117819000D02*
X81211847Y-114172403D01*
D15*
X82095900Y-120118750D02*
X84625350Y-117589300D01*
X80287500Y-120118750D02*
X82095900Y-120118750D01*
D16*
X111633000Y-125476000D02*
X111633000Y-115951000D01*
X92202000Y-125476000D02*
X92202000Y-120523000D01*
D15*
X83216750Y-139716750D02*
X83216750Y-146226700D01*
X82668750Y-139168750D02*
X83216750Y-139716750D01*
X80807000Y-177268750D02*
X86010750Y-182472500D01*
X77906250Y-177268750D02*
X80807000Y-177268750D01*
X95158000Y-82018750D02*
X100361750Y-87222500D01*
X94575000Y-82018750D02*
X95158000Y-82018750D01*
X95158000Y-101068750D02*
X100361750Y-106272500D01*
X94575000Y-101068750D02*
X95158000Y-101068750D01*
D16*
X104992000Y-119925000D02*
X104140000Y-120777000D01*
X104293750Y-119925000D02*
X109886750Y-119925000D01*
X104100000Y-120118750D02*
X104293750Y-119925000D01*
D15*
X109382000Y-139168750D02*
X114585750Y-144372500D01*
X108862500Y-139168750D02*
X109382000Y-139168750D01*
X118907000Y-158218750D02*
X124110750Y-163422500D01*
X118387500Y-158218750D02*
X118907000Y-158218750D01*
X104683000Y-177268750D02*
X109886750Y-182472500D01*
X101718750Y-177268750D02*
X104683000Y-177268750D01*
X114284000Y-82018750D02*
X119411750Y-87146500D01*
X113625000Y-82018750D02*
X114284000Y-82018750D01*
X114208000Y-101068750D02*
X119411750Y-106272500D01*
X113625000Y-101068750D02*
X114208000Y-101068750D01*
D16*
X123150000Y-120118750D02*
X123733000Y-120118750D01*
D15*
X123576250Y-119925000D02*
X123190000Y-119538750D01*
X128936750Y-119925000D02*
X123576250Y-119925000D01*
X128559000Y-139168750D02*
X133762750Y-144372500D01*
X127912500Y-139168750D02*
X128559000Y-139168750D01*
X137957000Y-158218750D02*
X143160750Y-163422500D01*
X137437500Y-158218750D02*
X137957000Y-158218750D01*
X128559000Y-177268750D02*
X133635750Y-182345500D01*
X125531250Y-177268750D02*
X128559000Y-177268750D01*
X133258000Y-82018750D02*
X138461750Y-87222500D01*
X132675000Y-82018750D02*
X133258000Y-82018750D01*
X133258000Y-101068750D02*
X138461750Y-106272500D01*
X132675000Y-101068750D02*
X133258000Y-101068750D01*
X142393750Y-119925000D02*
X142200000Y-120118750D01*
X147986750Y-119925000D02*
X142393750Y-119925000D01*
X147482000Y-139168750D02*
X152685750Y-144372500D01*
X146962500Y-139168750D02*
X147482000Y-139168750D01*
X157007000Y-158218750D02*
X162210750Y-163422500D01*
X156487500Y-158218750D02*
X157007000Y-158218750D01*
X152308000Y-82018750D02*
X157511750Y-87222500D01*
X151725000Y-82018750D02*
X152308000Y-82018750D01*
X152308000Y-101068750D02*
X157511750Y-106272500D01*
X151725000Y-101068750D02*
X152308000Y-101068750D01*
D16*
X161250000Y-120118750D02*
X161833000Y-120118750D01*
D15*
X161676250Y-119925000D02*
X161290000Y-119538750D01*
X167036750Y-119925000D02*
X161676250Y-119925000D01*
X166532000Y-139168750D02*
X171735750Y-144372500D01*
X166012500Y-139168750D02*
X166532000Y-139168750D01*
X176057000Y-158218750D02*
X181260750Y-163422500D01*
X175537500Y-158218750D02*
X176057000Y-158218750D01*
X171358000Y-82018750D02*
X176561750Y-87222500D01*
X170775000Y-82018750D02*
X171358000Y-82018750D01*
X171358000Y-101068750D02*
X176561750Y-106272500D01*
X170775000Y-101068750D02*
X171358000Y-101068750D01*
D16*
X180300000Y-120118750D02*
X180883000Y-120118750D01*
D15*
X180726250Y-119925000D02*
X180340000Y-119538750D01*
X186086750Y-119925000D02*
X180726250Y-119925000D01*
X185062500Y-139168750D02*
X185582000Y-139168750D01*
X185582000Y-139168750D02*
X190785750Y-144372500D01*
X195107000Y-158218750D02*
X200310750Y-163422500D01*
X194587500Y-158218750D02*
X195107000Y-158218750D01*
X197520000Y-177268750D02*
X202723750Y-182472500D01*
X196968750Y-177268750D02*
X197520000Y-177268750D01*
X190408000Y-82018750D02*
X195611750Y-87222500D01*
X189825000Y-82018750D02*
X190408000Y-82018750D01*
X189825000Y-101068750D02*
X190408000Y-101068750D01*
X191320250Y-101981000D02*
X195611750Y-106272500D01*
X190408000Y-101068750D02*
X191320250Y-101981000D01*
D16*
X199350000Y-120118750D02*
X199933000Y-120118750D01*
D15*
X199543750Y-119925000D02*
X199350000Y-120118750D01*
X205136750Y-119925000D02*
X199543750Y-119925000D01*
X204632000Y-139168750D02*
X209835750Y-144372500D01*
X204112500Y-139168750D02*
X204632000Y-139168750D01*
X214157000Y-158218750D02*
X219360750Y-163422500D01*
X213637500Y-158218750D02*
X214157000Y-158218750D01*
X209458000Y-82018750D02*
X214661750Y-87222500D01*
X208875000Y-82018750D02*
X209458000Y-82018750D01*
X209458000Y-101068750D02*
X214661750Y-106272500D01*
X208875000Y-101068750D02*
X209458000Y-101068750D01*
D16*
X218400000Y-120118750D02*
X218983000Y-120118750D01*
D15*
X218826250Y-119925000D02*
X218440000Y-119538750D01*
X224186750Y-119925000D02*
X218826250Y-119925000D01*
X223682000Y-139168750D02*
X228885750Y-144372500D01*
X223162500Y-139168750D02*
X223682000Y-139168750D01*
X233207000Y-158218750D02*
X238410750Y-163422500D01*
X232687500Y-158218750D02*
X233207000Y-158218750D01*
X228508000Y-82018750D02*
X233711750Y-87222500D01*
X227925000Y-82018750D02*
X228508000Y-82018750D01*
D16*
X227925000Y-101068750D02*
X228508000Y-101068750D01*
X229089999Y-101613749D02*
X227965000Y-100488750D01*
X232911751Y-105435501D02*
X229089999Y-101613749D01*
X232911751Y-105472501D02*
X232911751Y-105435501D01*
X233711750Y-106272500D02*
X232911751Y-105472501D01*
X237450000Y-120118750D02*
X238033000Y-120118750D01*
D15*
X237643750Y-119925000D02*
X237450000Y-120118750D01*
X243236750Y-119925000D02*
X237643750Y-119925000D01*
X242732000Y-139168750D02*
X247935750Y-144372500D01*
X242212500Y-139168750D02*
X242732000Y-139168750D01*
X252257000Y-158218750D02*
X257460750Y-163422500D01*
X251737500Y-158218750D02*
X252257000Y-158218750D01*
X247558000Y-82018750D02*
X252761750Y-87222500D01*
X246975000Y-82018750D02*
X247558000Y-82018750D01*
X247558000Y-101068750D02*
X252761750Y-106272500D01*
X246975000Y-101068750D02*
X247558000Y-101068750D01*
D16*
X256500000Y-120118750D02*
X257083000Y-120118750D01*
D15*
X256926250Y-119925000D02*
X256540000Y-119538750D01*
X262286750Y-119925000D02*
X256926250Y-119925000D01*
X261782000Y-139168750D02*
X266985750Y-144372500D01*
X261262500Y-139168750D02*
X261782000Y-139168750D01*
X271307000Y-158218750D02*
X276510750Y-163422500D01*
X270787500Y-158218750D02*
X271307000Y-158218750D01*
X271434000Y-177268750D02*
X276637750Y-182472500D01*
X270787500Y-177268750D02*
X271434000Y-177268750D01*
X266608000Y-82018750D02*
X271811750Y-87222500D01*
X266025000Y-82018750D02*
X266608000Y-82018750D01*
X266608000Y-101068750D02*
X271811750Y-106272500D01*
X266025000Y-101068750D02*
X266608000Y-101068750D01*
D16*
X275550000Y-120118750D02*
X276133000Y-120118750D01*
D15*
X275976250Y-119925000D02*
X275590000Y-119538750D01*
X281336750Y-119925000D02*
X275976250Y-119925000D01*
X280832000Y-139168750D02*
X286035750Y-144372500D01*
X280312500Y-139168750D02*
X280832000Y-139168750D01*
X290357000Y-158218750D02*
X295560750Y-163422500D01*
X289837500Y-158218750D02*
X290357000Y-158218750D01*
X285658000Y-82018750D02*
X290861750Y-87222500D01*
X285075000Y-82018750D02*
X285658000Y-82018750D01*
X285658000Y-101068750D02*
X290861750Y-106272500D01*
X285075000Y-101068750D02*
X285658000Y-101068750D01*
D16*
X294600000Y-120118750D02*
X295183000Y-120118750D01*
D15*
X294793750Y-119925000D02*
X294600000Y-120118750D01*
X300386750Y-119925000D02*
X294793750Y-119925000D01*
X299882000Y-139168750D02*
X305085750Y-144372500D01*
X299362500Y-139168750D02*
X299882000Y-139168750D01*
X304835000Y-82018750D02*
X310038750Y-87222500D01*
X304125000Y-82018750D02*
X304835000Y-82018750D01*
X304708000Y-101068750D02*
X309911750Y-106272500D01*
X304125000Y-101068750D02*
X304708000Y-101068750D01*
D16*
X313650000Y-120118750D02*
X314233000Y-120118750D01*
D15*
X313843750Y-119925000D02*
X313650000Y-120118750D01*
X319436750Y-119925000D02*
X313843750Y-119925000D01*
X299882000Y-177268750D02*
X305085750Y-182472500D01*
X299362500Y-177268750D02*
X299882000Y-177268750D01*
X323758000Y-82018750D02*
X328961750Y-87222500D01*
X323175000Y-82018750D02*
X323758000Y-82018750D01*
D16*
X330318750Y-139168750D02*
X330870000Y-139168750D01*
D15*
X323631000Y-158218750D02*
X328834750Y-163422500D01*
X316031250Y-158218750D02*
X323631000Y-158218750D01*
X323758000Y-177268750D02*
X328961750Y-182472500D01*
X323175000Y-177268750D02*
X323758000Y-177268750D01*
X342808000Y-82018750D02*
X348011750Y-87222500D01*
X342225000Y-82018750D02*
X342808000Y-82018750D01*
X342808000Y-101068750D02*
X348011750Y-106272500D01*
X332700000Y-101068750D02*
X342808000Y-101068750D01*
X337656250Y-119925000D02*
X347884750Y-119925000D01*
X337462500Y-120118750D02*
X337656250Y-119925000D01*
X342808000Y-158218750D02*
X348011750Y-163422500D01*
X342225000Y-158218750D02*
X342808000Y-158218750D01*
X342808000Y-177268750D02*
X348011750Y-182472500D01*
X342225000Y-177268750D02*
X342808000Y-177268750D01*
X361858000Y-82018750D02*
X367061750Y-87222500D01*
X361275000Y-82018750D02*
X361858000Y-82018750D01*
X361858000Y-101068750D02*
X367061750Y-106272500D01*
X361275000Y-101068750D02*
X361858000Y-101068750D01*
D16*
X361275000Y-120118750D02*
X361858000Y-120118750D01*
D15*
X361468750Y-119925000D02*
X367061750Y-119925000D01*
X361275000Y-120118750D02*
X361468750Y-119925000D01*
X361858000Y-139168750D02*
X367061750Y-144372500D01*
X361275000Y-139168750D02*
X361858000Y-139168750D01*
X361858000Y-158218750D02*
X367061750Y-163422500D01*
X361275000Y-158218750D02*
X361858000Y-158218750D01*
D16*
X361275000Y-177268750D02*
X361858000Y-177268750D01*
D15*
X361275000Y-189004750D02*
X362452750Y-190182500D01*
X361275000Y-177268750D02*
X361275000Y-189004750D01*
X94996000Y-150913000D02*
X94996000Y-153416000D01*
X94996000Y-153416000D02*
X93980000Y-154432000D01*
X93980000Y-154432000D02*
X93980000Y-157226000D01*
X93980000Y-157226000D02*
X95377000Y-158623000D01*
X95377000Y-158623000D02*
X106172000Y-158623000D01*
X106172000Y-158623000D02*
X108839000Y-161290000D01*
X108966000Y-170180000D02*
X108966000Y-171958000D01*
X241935000Y-162433000D02*
X252793500Y-173291500D01*
X241935000Y-155100252D02*
X241935000Y-162433000D01*
X233299000Y-146464252D02*
X241935000Y-155100252D01*
X230614991Y-133813717D02*
X233299000Y-136497726D01*
X230614990Y-129014990D02*
X230614991Y-133813717D01*
X228594999Y-126994999D02*
X230614990Y-129014990D01*
X228594999Y-117506225D02*
X228594999Y-126994999D01*
X233299000Y-136497726D02*
X233299000Y-146464252D01*
X217900006Y-77978000D02*
X219069999Y-79147993D01*
X219069999Y-79147993D02*
X219069999Y-107981225D01*
X219069999Y-107981225D02*
X228594999Y-117506225D01*
D16*
X81121250Y-160178750D02*
X80615248Y-160178750D01*
X69400001Y-100443751D02*
X70525000Y-101568750D01*
X69145001Y-100188751D02*
X69400001Y-100443751D01*
X69145001Y-84048749D02*
X69145001Y-100188751D01*
X69215000Y-83978750D02*
X69145001Y-84048749D01*
X69215000Y-103028750D02*
X69215000Y-114546250D01*
X73977500Y-135977500D02*
X77668750Y-139668750D01*
X73977500Y-122078750D02*
X73977500Y-135977500D01*
X81306251Y-157593751D02*
X82431250Y-158718750D01*
X76288751Y-152576251D02*
X81306251Y-157593751D01*
X76288751Y-141198749D02*
X76288751Y-152576251D01*
X76358750Y-141128750D02*
X76288751Y-141198749D01*
X81121250Y-169553750D02*
X72906250Y-177768750D01*
X81121250Y-160178750D02*
X81121250Y-169553750D01*
X69215000Y-114546250D02*
X71885875Y-117217125D01*
X71885875Y-117217125D02*
X75287500Y-120618750D01*
D15*
X88265000Y-103028750D02*
X88519000Y-103282750D01*
D16*
X102552500Y-147883750D02*
X113387500Y-158718750D01*
X102552500Y-141128750D02*
X102552500Y-147883750D01*
X96718750Y-176177760D02*
X96718750Y-177768750D01*
X96718750Y-175031498D02*
X96718750Y-176177760D01*
X111571498Y-160178750D02*
X96718750Y-175031498D01*
X112077500Y-160178750D02*
X111571498Y-160178750D01*
X88265000Y-100258750D02*
X89575000Y-101568750D01*
X88265000Y-83978750D02*
X88265000Y-100258750D01*
X88265000Y-103028750D02*
X88265000Y-109783750D01*
X88265000Y-109783750D02*
X96365125Y-117883875D01*
X97790000Y-119308750D02*
X96365125Y-117883875D01*
X103862500Y-139668750D02*
X103862500Y-136267024D01*
X97790000Y-130194524D02*
X98034238Y-130438762D01*
X97790000Y-122078750D02*
X97790000Y-130194524D01*
X103862500Y-136267024D02*
X98034238Y-130438762D01*
X97790000Y-119308750D02*
X99100000Y-120618750D01*
X119221250Y-179078750D02*
X119221250Y-179228750D01*
X107315000Y-100258750D02*
X108625000Y-101568750D01*
X107315000Y-83978750D02*
X107315000Y-100258750D01*
X107315000Y-103028750D02*
X107315000Y-109783750D01*
X121787501Y-138543751D02*
X122912500Y-139668750D01*
X116770001Y-133526251D02*
X121787501Y-138543751D01*
X116770001Y-122148749D02*
X116770001Y-133526251D01*
X116840000Y-122078750D02*
X116770001Y-122148749D01*
X121602500Y-147883750D02*
X132437500Y-158718750D01*
X121602500Y-141128750D02*
X121602500Y-147883750D01*
X131127500Y-167172500D02*
X120531250Y-177768750D01*
X131127500Y-160178750D02*
X131127500Y-167172500D01*
X107315000Y-109783750D02*
X114335625Y-116804375D01*
X114335625Y-116804375D02*
X118150000Y-120618750D01*
X126365000Y-100258750D02*
X127675000Y-101568750D01*
X126365000Y-83978750D02*
X126365000Y-100258750D01*
X126365000Y-109783750D02*
X137200000Y-120618750D01*
X126365000Y-103028750D02*
X126365000Y-109783750D01*
X135890000Y-133596250D02*
X141962500Y-139668750D01*
X135890000Y-122078750D02*
X135890000Y-133596250D01*
X140652500Y-141128750D02*
X140652500Y-147883750D01*
X99451013Y-154793377D02*
X99451014Y-156291889D01*
X99451014Y-156291889D02*
X100316782Y-157157657D01*
X149101875Y-156333125D02*
X151487500Y-158718750D01*
X140652500Y-147883750D02*
X149101875Y-156333125D01*
X96630235Y-151972599D02*
X96630235Y-150888833D01*
X96788818Y-152131182D02*
X96630235Y-151972599D01*
X96788818Y-152131182D02*
X99451013Y-154793377D01*
X154940000Y-122078750D02*
X154870001Y-122148749D01*
X145415000Y-100258750D02*
X146725000Y-101568750D01*
X145415000Y-83978750D02*
X145415000Y-100258750D01*
X145415000Y-109783750D02*
X156250000Y-120618750D01*
X145415000Y-103028750D02*
X145415000Y-109783750D01*
X154940000Y-133596250D02*
X161012500Y-139668750D01*
X154940000Y-122078750D02*
X154940000Y-133596250D01*
X159702500Y-141128750D02*
X159702500Y-147883750D01*
X97082215Y-149148215D02*
X97082215Y-149844217D01*
X97100108Y-148789108D02*
X97100108Y-149130322D01*
X97100108Y-149130322D02*
X97082215Y-149148215D01*
X97339313Y-150101315D02*
X97339314Y-150737726D01*
X97082215Y-149844217D02*
X97339313Y-150101315D01*
X97614306Y-152320260D02*
X99901023Y-154606977D01*
X97339314Y-150737726D02*
X97614306Y-151012718D01*
X97614306Y-151012718D02*
X97614306Y-152320260D01*
X99901023Y-154606977D02*
X99901023Y-155716592D01*
X99901023Y-155716592D02*
X100328037Y-156143606D01*
X167580375Y-155761625D02*
X170537500Y-158718750D01*
X159702500Y-147883750D02*
X167580375Y-155761625D01*
X164465000Y-103028750D02*
X164395001Y-103098749D01*
X178752500Y-141128750D02*
X178682501Y-141198749D01*
X164465000Y-100258750D02*
X165775000Y-101568750D01*
X164465000Y-83978750D02*
X164465000Y-100258750D01*
X164465000Y-109783750D02*
X175300000Y-120618750D01*
X164465000Y-103028750D02*
X164465000Y-109783750D01*
X178937501Y-138543751D02*
X180062500Y-139668750D01*
X173920001Y-133526251D02*
X178937501Y-138543751D01*
X173920001Y-122148749D02*
X173920001Y-133526251D01*
X173990000Y-122078750D02*
X173920001Y-122148749D01*
X178752500Y-141128750D02*
X178752500Y-147883750D01*
X188277500Y-176847500D02*
X190658750Y-179228750D01*
X188277500Y-160178750D02*
X188277500Y-176847500D01*
X97789323Y-150551325D02*
X98064314Y-150826316D01*
X97789323Y-149855323D02*
X97789323Y-150551325D01*
X97807216Y-149496216D02*
X97807216Y-149837430D01*
X97807216Y-149837430D02*
X97789323Y-149855323D01*
X98064314Y-150826316D02*
X98064315Y-152133859D01*
X98064315Y-152133859D02*
X100738523Y-154808067D01*
X100738523Y-154808067D02*
X100738523Y-155231737D01*
X186122375Y-155253625D02*
X189587500Y-158718750D01*
X178752500Y-147883750D02*
X186122375Y-155253625D01*
X197078065Y-141128750D02*
X197802500Y-141128750D01*
X183515000Y-100258750D02*
X184825000Y-101568750D01*
X183515000Y-83978750D02*
X183515000Y-100258750D01*
X183515000Y-109783750D02*
X194350000Y-120618750D01*
X183515000Y-103028750D02*
X183515000Y-109783750D01*
X193040000Y-133596250D02*
X199112500Y-139668750D01*
X193040000Y-122078750D02*
X193040000Y-133596250D01*
X197802500Y-141128750D02*
X197802500Y-147883750D01*
X98514324Y-150203324D02*
X98514324Y-151947458D01*
X98514324Y-151947458D02*
X101736601Y-155169735D01*
X197802500Y-147883750D02*
X204854875Y-154936125D01*
X204854875Y-154936125D02*
X208637500Y-158718750D01*
X202565000Y-100258750D02*
X203875000Y-101568750D01*
X202565000Y-83978750D02*
X202565000Y-100258750D01*
X202565000Y-109783750D02*
X213400000Y-120618750D01*
X202565000Y-103028750D02*
X202565000Y-109783750D01*
X212090000Y-133596250D02*
X218162500Y-139668750D01*
X212090000Y-122078750D02*
X212090000Y-133596250D01*
X216852500Y-141128750D02*
X216852500Y-147883750D01*
X99335586Y-148209000D02*
X99335586Y-151743414D01*
X99335586Y-151743414D02*
X102683315Y-155091143D01*
X102683315Y-155091143D02*
X102683315Y-155637228D01*
X216852500Y-147883750D02*
X223333375Y-154364625D01*
X223333375Y-154364625D02*
X227687500Y-158718750D01*
X231140000Y-122078750D02*
X231070001Y-122148749D01*
X235902500Y-141128750D02*
X235832501Y-141198749D01*
X221615000Y-100258750D02*
X222925000Y-101568750D01*
X221615000Y-83978750D02*
X221615000Y-100258750D01*
X221615000Y-109783750D02*
X232450000Y-120618750D01*
X221615000Y-103028750D02*
X221615000Y-109783750D01*
X231140000Y-133596250D02*
X237212500Y-139668750D01*
X231140000Y-122078750D02*
X231140000Y-133596250D01*
X235902500Y-141128750D02*
X235902500Y-147883750D01*
X100203000Y-147320000D02*
X100203000Y-151892000D01*
X100203000Y-151892000D02*
X103632000Y-155321000D01*
X241240375Y-153221625D02*
X246737500Y-158718750D01*
X235902500Y-147883750D02*
X241240375Y-153221625D01*
X240665000Y-83978750D02*
X240595001Y-84048749D01*
X264477500Y-160178750D02*
X264407501Y-160248749D01*
X263971498Y-160178750D02*
X264477500Y-160178750D01*
X240665000Y-100258750D02*
X241975000Y-101568750D01*
X240665000Y-83978750D02*
X240665000Y-100258750D01*
X250375001Y-119493751D02*
X251500000Y-120618750D01*
X240595001Y-109713751D02*
X250375001Y-119493751D01*
X240595001Y-103098749D02*
X240595001Y-109713751D01*
X240665000Y-103028750D02*
X240595001Y-103098749D01*
X250190000Y-133596250D02*
X256262500Y-139668750D01*
X254952500Y-147883750D02*
X265787500Y-158718750D01*
X254952500Y-141128750D02*
X254952500Y-147883750D01*
X264477500Y-176458750D02*
X264477500Y-179228750D01*
X264477500Y-160178750D02*
X264477500Y-176458750D01*
X250190000Y-122078750D02*
X250190000Y-132080000D01*
X250190000Y-132080000D02*
X250190000Y-133596250D01*
X269240000Y-122078750D02*
X269170001Y-122148749D01*
X259715000Y-100258750D02*
X261025000Y-101568750D01*
X259715000Y-83978750D02*
X259715000Y-100258750D01*
X269425001Y-119493751D02*
X270550000Y-120618750D01*
X259645001Y-109713751D02*
X269425001Y-119493751D01*
X259645001Y-103098749D02*
X259645001Y-109713751D01*
X259715000Y-103028750D02*
X259645001Y-103098749D01*
X269240000Y-133596250D02*
X275312500Y-139668750D01*
X274002500Y-147883750D02*
X284837500Y-158718750D01*
X274002500Y-141128750D02*
X274002500Y-147883750D01*
X269240000Y-122078750D02*
X269240000Y-132080000D01*
X269240000Y-132080000D02*
X269240000Y-133596250D01*
X278765000Y-103028750D02*
X278695001Y-103098749D01*
X278765000Y-100258750D02*
X280075000Y-101568750D01*
X278765000Y-83978750D02*
X278765000Y-100258750D01*
X278765000Y-109783750D02*
X289600000Y-120618750D01*
X278765000Y-103028750D02*
X278765000Y-109783750D01*
X288290000Y-133596250D02*
X294362500Y-139668750D01*
X288290000Y-122078750D02*
X288290000Y-131191000D01*
X288290000Y-131191000D02*
X288290000Y-133596250D01*
X297815000Y-83978750D02*
X297745001Y-84048749D01*
X297815000Y-100258750D02*
X299125000Y-101568750D01*
X297815000Y-83978750D02*
X297815000Y-100258750D01*
X297815000Y-109783750D02*
X308650000Y-120618750D01*
X297815000Y-103028750D02*
X297815000Y-109783750D01*
X307340000Y-122078750D02*
X308271859Y-123010609D01*
X308271859Y-156548141D02*
X299466000Y-165354000D01*
X299466000Y-172665250D02*
X294362500Y-177768750D01*
X299466000Y-165354000D02*
X299466000Y-172665250D01*
X308271859Y-123010609D02*
X308271859Y-130852859D01*
X308271859Y-130852859D02*
X308271859Y-156548141D01*
X309721250Y-160178750D02*
X309651251Y-160248749D01*
X316865000Y-83978750D02*
X316865000Y-94742000D01*
X316865000Y-94742000D02*
X314833000Y-96774000D01*
X314833000Y-96774000D02*
X314833000Y-101346000D01*
X314833000Y-101346000D02*
X325318750Y-111831750D01*
X323243776Y-141128750D02*
X324008750Y-141128750D01*
X309721250Y-154651276D02*
X323243776Y-141128750D01*
X309721250Y-160178750D02*
X309721250Y-154651276D01*
X309721250Y-172085000D02*
X309721250Y-160178750D01*
X316865000Y-179228750D02*
X309721250Y-172085000D01*
X325318750Y-111831750D02*
X325318750Y-130373750D01*
X325318750Y-130373750D02*
X325318750Y-139668750D01*
X328824999Y-100443751D02*
X327700000Y-101568750D01*
X335845001Y-93423749D02*
X328824999Y-100443751D01*
X335845001Y-84048749D02*
X335845001Y-93423749D01*
X335915000Y-83978750D02*
X335845001Y-84048749D01*
X326390000Y-114546250D02*
X332462500Y-120618750D01*
X326390000Y-103028750D02*
X326390000Y-114546250D01*
X331152500Y-122078750D02*
X331808751Y-122735001D01*
X331808751Y-136355751D02*
X332486000Y-137033000D01*
X332486000Y-137033000D02*
X332486000Y-140970000D01*
X332486000Y-140970000D02*
X331470000Y-141986000D01*
X331470000Y-152963750D02*
X337225000Y-158718750D01*
X331470000Y-141986000D02*
X331470000Y-152963750D01*
X335915000Y-176458750D02*
X337225000Y-177768750D01*
X335915000Y-160178750D02*
X335915000Y-176458750D01*
X331808751Y-122735001D02*
X331808751Y-129836249D01*
X331808751Y-129836249D02*
X331808751Y-136355751D01*
X354965000Y-83978750D02*
X354895001Y-84048749D01*
X354965000Y-122078750D02*
X354895001Y-122148749D01*
X354965000Y-160178750D02*
X354895001Y-160248749D01*
X354965000Y-100258750D02*
X356275000Y-101568750D01*
X354965000Y-83978750D02*
X354965000Y-100258750D01*
X354965000Y-119308750D02*
X356275000Y-120618750D01*
X354965000Y-103028750D02*
X354965000Y-119308750D01*
X354965000Y-138358750D02*
X356275000Y-139668750D01*
X354965000Y-157408750D02*
X356275000Y-158718750D01*
X354965000Y-141128750D02*
X354965000Y-157408750D01*
X354965000Y-176458750D02*
X356275000Y-177768750D01*
X354965000Y-160178750D02*
X354965000Y-176458750D01*
X354965000Y-122078750D02*
X354965000Y-128905000D01*
X354965000Y-128905000D02*
X354965000Y-138358750D01*
X91059000Y-155047476D02*
X95159534Y-159148010D01*
X91059000Y-150622000D02*
X91059000Y-155047476D01*
X95159534Y-159148010D02*
X105565638Y-159148010D01*
X105565638Y-159148010D02*
X107701814Y-161284186D01*
X107985752Y-168656000D02*
X107985752Y-172383318D01*
X107985752Y-172383318D02*
X108185130Y-172582696D01*
X241409991Y-163050991D02*
X241409990Y-162650466D01*
X252787686Y-174428686D02*
X241409991Y-163050991D01*
X241409990Y-162650466D02*
X241409990Y-155317718D01*
X232773990Y-146681718D02*
X232773990Y-144254990D01*
X241409990Y-155317718D02*
X232773990Y-146681718D01*
X232773990Y-144254990D02*
X232773990Y-136715192D01*
X232773990Y-136715192D02*
X230089982Y-134031182D01*
X230089982Y-134031182D02*
X230089982Y-129232458D01*
X230089982Y-129232458D02*
X228069989Y-127212465D01*
X228069989Y-127212465D02*
X228069989Y-117723691D01*
X218544989Y-108198691D02*
X218544989Y-105260989D01*
X228069989Y-117723691D02*
X218544989Y-108198691D01*
X218544989Y-105260989D02*
X218544989Y-85090000D01*
X218544989Y-79695985D02*
X218544989Y-81048011D01*
X216900003Y-78050999D02*
X218544989Y-79695985D01*
X216900003Y-77978000D02*
X216900003Y-78050999D01*
X218544989Y-85090000D02*
X218544989Y-81048011D01*
X89154000Y-153778886D02*
X94973134Y-159598020D01*
X89154000Y-150622000D02*
X89154000Y-153778886D01*
X94973134Y-159598020D02*
X104990342Y-159598020D01*
X104990342Y-159598020D02*
X106692960Y-161300638D01*
X107260752Y-169463089D02*
X107260752Y-172926612D01*
X107260752Y-172926612D02*
X107863807Y-173529667D01*
X232323980Y-136901590D02*
X232323981Y-146868119D01*
X229639972Y-129418858D02*
X229639973Y-134217583D01*
X227619980Y-127398866D02*
X229639972Y-129418858D01*
X227619979Y-117910091D02*
X227619980Y-127398866D01*
X215900000Y-78543685D02*
X216604315Y-79248000D01*
X229639973Y-134217583D02*
X232323980Y-136901590D01*
X215900000Y-77978000D02*
X215900000Y-78543685D01*
X251776339Y-174053749D02*
X251776339Y-176465339D01*
X216604315Y-79248000D02*
X217460594Y-79248000D01*
X232323981Y-146868119D02*
X240959980Y-155504118D01*
X218094979Y-79882385D02*
X218094980Y-108385092D01*
X240959980Y-155504118D02*
X240959980Y-163237390D01*
X217460594Y-79248000D02*
X218094979Y-79882385D01*
X218094980Y-108385092D02*
X227619979Y-117910091D01*
X240959980Y-163237390D02*
X251776339Y-174053749D01*
D15*
X87503000Y-152870362D02*
X94755668Y-160123030D01*
X87503000Y-150749000D02*
X87503000Y-152870362D01*
X94755668Y-160123030D02*
X104490046Y-160123030D01*
X104490046Y-160123030D02*
X105660508Y-161293492D01*
X106460752Y-170434000D02*
X106460752Y-173496161D01*
X106460752Y-173496161D02*
X107355344Y-174390753D01*
X214899997Y-78543685D02*
X214899997Y-77978000D01*
X214899997Y-78543685D02*
X216528754Y-80172442D01*
X217332442Y-80172442D02*
X217569971Y-80409971D01*
X216528754Y-80172442D02*
X217332442Y-80172442D01*
X217569971Y-80409971D02*
X217569971Y-84182029D01*
X217569971Y-84182029D02*
X217551000Y-84201000D01*
X217569971Y-100729971D02*
X217569971Y-108603971D01*
X217551000Y-84201000D02*
X217551000Y-100711000D01*
X217551000Y-100711000D02*
X217569971Y-100729971D01*
X220599000Y-111633000D02*
X220600412Y-111633000D01*
X217569971Y-108603971D02*
X220599000Y-111633000D01*
X220600412Y-111633000D02*
X227094970Y-118127558D01*
X227094970Y-118127558D02*
X227094971Y-127616333D01*
X229114964Y-129636326D02*
X229114964Y-134435050D01*
X227094971Y-127616333D02*
X229114964Y-129636326D01*
X231798972Y-137119058D02*
X231798972Y-147085586D01*
X229114964Y-134435050D02*
X231798972Y-137119058D01*
X240434970Y-155721584D02*
X240434971Y-163454857D01*
X231798972Y-147085586D02*
X240434970Y-155721584D01*
X240434971Y-163454857D02*
X250770557Y-173790443D01*
X250770557Y-177618557D02*
X251209492Y-178057492D01*
X250770557Y-173790443D02*
X250770557Y-177618557D01*
D16*
X80899000Y-135509000D02*
X82169000Y-135509000D01*
X82169000Y-135509000D02*
X86154787Y-131523213D01*
M02*
