G04 #@! TF.GenerationSoftware,KiCad,Pcbnew,(5.1.4)-1*
G04 #@! TF.CreationDate,2020-09-27T22:15:01+10:00*
G04 #@! TF.ProjectId,merchants 60,6d657263-6861-46e7-9473-2036302e6b69,rev?*
G04 #@! TF.SameCoordinates,Original*
G04 #@! TF.FileFunction,Copper,L2,Bot*
G04 #@! TF.FilePolarity,Positive*
%FSLAX46Y46*%
G04 Gerber Fmt 4.6, Leading zero omitted, Abs format (unit mm)*
G04 Created by KiCad (PCBNEW (5.1.4)-1) date 2020-09-27 22:15:01*
%MOMM*%
%LPD*%
G04 APERTURE LIST*
%ADD10C,2.250000*%
%ADD11C,2.250000*%
%ADD12R,2.499360X2.199640*%
%ADD13R,0.500380X1.998980*%
%ADD14R,1.500000X0.550000*%
%ADD15R,0.550000X1.500000*%
%ADD16R,1.200000X1.400000*%
%ADD17R,1.100000X1.800000*%
%ADD18C,0.100000*%
%ADD19C,0.975000*%
%ADD20C,1.250000*%
%ADD21R,2.500000X0.500000*%
%ADD22C,1.600000*%
%ADD23R,1.600000X1.600000*%
%ADD24R,1.200000X1.200000*%
%ADD25R,0.500000X2.500000*%
%ADD26C,0.800000*%
%ADD27C,0.250000*%
%ADD28C,0.400000*%
%ADD29C,0.254000*%
G04 APERTURE END LIST*
D10*
X99100000Y-120618750D03*
X98445001Y-121348750D03*
D11*
X97790000Y-122078750D02*
X99100002Y-120618750D01*
D10*
X104140000Y-119538750D03*
X104120000Y-119828750D03*
D11*
X104100000Y-120118750D02*
X104140000Y-119538750D01*
D10*
X75287500Y-120618750D03*
X74632501Y-121348750D03*
D11*
X73977500Y-122078750D02*
X75287502Y-120618750D01*
D10*
X80327500Y-119538750D03*
X80307500Y-119828750D03*
D11*
X80287500Y-120118750D02*
X80327500Y-119538750D01*
D12*
X220103700Y-69171820D03*
X211701380Y-69171820D03*
X220101160Y-74470260D03*
X211701380Y-74470260D03*
D13*
X217502740Y-74569320D03*
X216702640Y-74569320D03*
X215902540Y-74569320D03*
X215102440Y-74569320D03*
X214302340Y-74569320D03*
D14*
X99076750Y-132588500D03*
X99076750Y-133388500D03*
X99076750Y-134188500D03*
X99076750Y-134988500D03*
X99076750Y-135788500D03*
X99076750Y-136588500D03*
X99076750Y-137388500D03*
X99076750Y-138188500D03*
X99076750Y-138988500D03*
X99076750Y-139788500D03*
X99076750Y-140588500D03*
D15*
X97376750Y-142288500D03*
X96576750Y-142288500D03*
X95776750Y-142288500D03*
X94976750Y-142288500D03*
X94176750Y-142288500D03*
X93376750Y-142288500D03*
X92576750Y-142288500D03*
X91776750Y-142288500D03*
X90976750Y-142288500D03*
X90176750Y-142288500D03*
X89376750Y-142288500D03*
D14*
X87676750Y-140588500D03*
X87676750Y-139788500D03*
X87676750Y-138988500D03*
X87676750Y-138188500D03*
X87676750Y-137388500D03*
X87676750Y-136588500D03*
X87676750Y-135788500D03*
X87676750Y-134988500D03*
X87676750Y-134188500D03*
X87676750Y-133388500D03*
X87676750Y-132588500D03*
D15*
X89376750Y-130888500D03*
X90176750Y-130888500D03*
X90976750Y-130888500D03*
X91776750Y-130888500D03*
X92576750Y-130888500D03*
X93376750Y-130888500D03*
X94176750Y-130888500D03*
X94976750Y-130888500D03*
X95776750Y-130888500D03*
X96576750Y-130888500D03*
X97376750Y-130888500D03*
D10*
X356275000Y-82518750D03*
X355620001Y-83248750D03*
D11*
X354965000Y-83978750D02*
X356275002Y-82518750D01*
D10*
X361315000Y-81438750D03*
X361295000Y-81728750D03*
D11*
X361275000Y-82018750D02*
X361315000Y-81438750D01*
D10*
X356275000Y-177768750D03*
X355620001Y-178498750D03*
D11*
X354965000Y-179228750D02*
X356275002Y-177768750D01*
D10*
X361315000Y-176688750D03*
X361295000Y-176978750D03*
D11*
X361275000Y-177268750D02*
X361315000Y-176688750D01*
D10*
X103862500Y-139668750D03*
X103207501Y-140398750D03*
D11*
X102552500Y-141128750D02*
X103862502Y-139668750D01*
D10*
X108902500Y-138588750D03*
X108882500Y-138878750D03*
D11*
X108862500Y-139168750D02*
X108902500Y-138588750D01*
D16*
X94353750Y-147848500D03*
X94353750Y-145648500D03*
X92653750Y-145648500D03*
X92653750Y-147848500D03*
D17*
X107545750Y-153531500D03*
X103845750Y-147331500D03*
X103845750Y-153531500D03*
X107545750Y-147331500D03*
D18*
G36*
X86041142Y-130238174D02*
G01*
X86064803Y-130241684D01*
X86088007Y-130247496D01*
X86110529Y-130255554D01*
X86132153Y-130265782D01*
X86152670Y-130278079D01*
X86171883Y-130292329D01*
X86189607Y-130308393D01*
X86205671Y-130326117D01*
X86219921Y-130345330D01*
X86232218Y-130365847D01*
X86242446Y-130387471D01*
X86250504Y-130409993D01*
X86256316Y-130433197D01*
X86259826Y-130456858D01*
X86261000Y-130480750D01*
X86261000Y-131393250D01*
X86259826Y-131417142D01*
X86256316Y-131440803D01*
X86250504Y-131464007D01*
X86242446Y-131486529D01*
X86232218Y-131508153D01*
X86219921Y-131528670D01*
X86205671Y-131547883D01*
X86189607Y-131565607D01*
X86171883Y-131581671D01*
X86152670Y-131595921D01*
X86132153Y-131608218D01*
X86110529Y-131618446D01*
X86088007Y-131626504D01*
X86064803Y-131632316D01*
X86041142Y-131635826D01*
X86017250Y-131637000D01*
X85529750Y-131637000D01*
X85505858Y-131635826D01*
X85482197Y-131632316D01*
X85458993Y-131626504D01*
X85436471Y-131618446D01*
X85414847Y-131608218D01*
X85394330Y-131595921D01*
X85375117Y-131581671D01*
X85357393Y-131565607D01*
X85341329Y-131547883D01*
X85327079Y-131528670D01*
X85314782Y-131508153D01*
X85304554Y-131486529D01*
X85296496Y-131464007D01*
X85290684Y-131440803D01*
X85287174Y-131417142D01*
X85286000Y-131393250D01*
X85286000Y-130480750D01*
X85287174Y-130456858D01*
X85290684Y-130433197D01*
X85296496Y-130409993D01*
X85304554Y-130387471D01*
X85314782Y-130365847D01*
X85327079Y-130345330D01*
X85341329Y-130326117D01*
X85357393Y-130308393D01*
X85375117Y-130292329D01*
X85394330Y-130278079D01*
X85414847Y-130265782D01*
X85436471Y-130255554D01*
X85458993Y-130247496D01*
X85482197Y-130241684D01*
X85505858Y-130238174D01*
X85529750Y-130237000D01*
X86017250Y-130237000D01*
X86041142Y-130238174D01*
X86041142Y-130238174D01*
G37*
D19*
X85773500Y-130937000D03*
D18*
G36*
X84166142Y-130238174D02*
G01*
X84189803Y-130241684D01*
X84213007Y-130247496D01*
X84235529Y-130255554D01*
X84257153Y-130265782D01*
X84277670Y-130278079D01*
X84296883Y-130292329D01*
X84314607Y-130308393D01*
X84330671Y-130326117D01*
X84344921Y-130345330D01*
X84357218Y-130365847D01*
X84367446Y-130387471D01*
X84375504Y-130409993D01*
X84381316Y-130433197D01*
X84384826Y-130456858D01*
X84386000Y-130480750D01*
X84386000Y-131393250D01*
X84384826Y-131417142D01*
X84381316Y-131440803D01*
X84375504Y-131464007D01*
X84367446Y-131486529D01*
X84357218Y-131508153D01*
X84344921Y-131528670D01*
X84330671Y-131547883D01*
X84314607Y-131565607D01*
X84296883Y-131581671D01*
X84277670Y-131595921D01*
X84257153Y-131608218D01*
X84235529Y-131618446D01*
X84213007Y-131626504D01*
X84189803Y-131632316D01*
X84166142Y-131635826D01*
X84142250Y-131637000D01*
X83654750Y-131637000D01*
X83630858Y-131635826D01*
X83607197Y-131632316D01*
X83583993Y-131626504D01*
X83561471Y-131618446D01*
X83539847Y-131608218D01*
X83519330Y-131595921D01*
X83500117Y-131581671D01*
X83482393Y-131565607D01*
X83466329Y-131547883D01*
X83452079Y-131528670D01*
X83439782Y-131508153D01*
X83429554Y-131486529D01*
X83421496Y-131464007D01*
X83415684Y-131440803D01*
X83412174Y-131417142D01*
X83411000Y-131393250D01*
X83411000Y-130480750D01*
X83412174Y-130456858D01*
X83415684Y-130433197D01*
X83421496Y-130409993D01*
X83429554Y-130387471D01*
X83439782Y-130365847D01*
X83452079Y-130345330D01*
X83466329Y-130326117D01*
X83482393Y-130308393D01*
X83500117Y-130292329D01*
X83519330Y-130278079D01*
X83539847Y-130265782D01*
X83561471Y-130255554D01*
X83583993Y-130247496D01*
X83607197Y-130241684D01*
X83630858Y-130238174D01*
X83654750Y-130237000D01*
X84142250Y-130237000D01*
X84166142Y-130238174D01*
X84166142Y-130238174D01*
G37*
D19*
X83898500Y-130937000D03*
D18*
G36*
X102619892Y-148215674D02*
G01*
X102643553Y-148219184D01*
X102666757Y-148224996D01*
X102689279Y-148233054D01*
X102710903Y-148243282D01*
X102731420Y-148255579D01*
X102750633Y-148269829D01*
X102768357Y-148285893D01*
X102784421Y-148303617D01*
X102798671Y-148322830D01*
X102810968Y-148343347D01*
X102821196Y-148364971D01*
X102829254Y-148387493D01*
X102835066Y-148410697D01*
X102838576Y-148434358D01*
X102839750Y-148458250D01*
X102839750Y-148945750D01*
X102838576Y-148969642D01*
X102835066Y-148993303D01*
X102829254Y-149016507D01*
X102821196Y-149039029D01*
X102810968Y-149060653D01*
X102798671Y-149081170D01*
X102784421Y-149100383D01*
X102768357Y-149118107D01*
X102750633Y-149134171D01*
X102731420Y-149148421D01*
X102710903Y-149160718D01*
X102689279Y-149170946D01*
X102666757Y-149179004D01*
X102643553Y-149184816D01*
X102619892Y-149188326D01*
X102596000Y-149189500D01*
X101683500Y-149189500D01*
X101659608Y-149188326D01*
X101635947Y-149184816D01*
X101612743Y-149179004D01*
X101590221Y-149170946D01*
X101568597Y-149160718D01*
X101548080Y-149148421D01*
X101528867Y-149134171D01*
X101511143Y-149118107D01*
X101495079Y-149100383D01*
X101480829Y-149081170D01*
X101468532Y-149060653D01*
X101458304Y-149039029D01*
X101450246Y-149016507D01*
X101444434Y-148993303D01*
X101440924Y-148969642D01*
X101439750Y-148945750D01*
X101439750Y-148458250D01*
X101440924Y-148434358D01*
X101444434Y-148410697D01*
X101450246Y-148387493D01*
X101458304Y-148364971D01*
X101468532Y-148343347D01*
X101480829Y-148322830D01*
X101495079Y-148303617D01*
X101511143Y-148285893D01*
X101528867Y-148269829D01*
X101548080Y-148255579D01*
X101568597Y-148243282D01*
X101590221Y-148233054D01*
X101612743Y-148224996D01*
X101635947Y-148219184D01*
X101659608Y-148215674D01*
X101683500Y-148214500D01*
X102596000Y-148214500D01*
X102619892Y-148215674D01*
X102619892Y-148215674D01*
G37*
D19*
X102139750Y-148702000D03*
D18*
G36*
X102619892Y-146340674D02*
G01*
X102643553Y-146344184D01*
X102666757Y-146349996D01*
X102689279Y-146358054D01*
X102710903Y-146368282D01*
X102731420Y-146380579D01*
X102750633Y-146394829D01*
X102768357Y-146410893D01*
X102784421Y-146428617D01*
X102798671Y-146447830D01*
X102810968Y-146468347D01*
X102821196Y-146489971D01*
X102829254Y-146512493D01*
X102835066Y-146535697D01*
X102838576Y-146559358D01*
X102839750Y-146583250D01*
X102839750Y-147070750D01*
X102838576Y-147094642D01*
X102835066Y-147118303D01*
X102829254Y-147141507D01*
X102821196Y-147164029D01*
X102810968Y-147185653D01*
X102798671Y-147206170D01*
X102784421Y-147225383D01*
X102768357Y-147243107D01*
X102750633Y-147259171D01*
X102731420Y-147273421D01*
X102710903Y-147285718D01*
X102689279Y-147295946D01*
X102666757Y-147304004D01*
X102643553Y-147309816D01*
X102619892Y-147313326D01*
X102596000Y-147314500D01*
X101683500Y-147314500D01*
X101659608Y-147313326D01*
X101635947Y-147309816D01*
X101612743Y-147304004D01*
X101590221Y-147295946D01*
X101568597Y-147285718D01*
X101548080Y-147273421D01*
X101528867Y-147259171D01*
X101511143Y-147243107D01*
X101495079Y-147225383D01*
X101480829Y-147206170D01*
X101468532Y-147185653D01*
X101458304Y-147164029D01*
X101450246Y-147141507D01*
X101444434Y-147118303D01*
X101440924Y-147094642D01*
X101439750Y-147070750D01*
X101439750Y-146583250D01*
X101440924Y-146559358D01*
X101444434Y-146535697D01*
X101450246Y-146512493D01*
X101458304Y-146489971D01*
X101468532Y-146468347D01*
X101480829Y-146447830D01*
X101495079Y-146428617D01*
X101511143Y-146410893D01*
X101528867Y-146394829D01*
X101548080Y-146380579D01*
X101568597Y-146368282D01*
X101590221Y-146358054D01*
X101612743Y-146349996D01*
X101635947Y-146344184D01*
X101659608Y-146340674D01*
X101683500Y-146339500D01*
X102596000Y-146339500D01*
X102619892Y-146340674D01*
X102619892Y-146340674D01*
G37*
D19*
X102139750Y-146827000D03*
D18*
G36*
X115536892Y-135508674D02*
G01*
X115560553Y-135512184D01*
X115583757Y-135517996D01*
X115606279Y-135526054D01*
X115627903Y-135536282D01*
X115648420Y-135548579D01*
X115667633Y-135562829D01*
X115685357Y-135578893D01*
X115701421Y-135596617D01*
X115715671Y-135615830D01*
X115727968Y-135636347D01*
X115738196Y-135657971D01*
X115746254Y-135680493D01*
X115752066Y-135703697D01*
X115755576Y-135727358D01*
X115756750Y-135751250D01*
X115756750Y-136663750D01*
X115755576Y-136687642D01*
X115752066Y-136711303D01*
X115746254Y-136734507D01*
X115738196Y-136757029D01*
X115727968Y-136778653D01*
X115715671Y-136799170D01*
X115701421Y-136818383D01*
X115685357Y-136836107D01*
X115667633Y-136852171D01*
X115648420Y-136866421D01*
X115627903Y-136878718D01*
X115606279Y-136888946D01*
X115583757Y-136897004D01*
X115560553Y-136902816D01*
X115536892Y-136906326D01*
X115513000Y-136907500D01*
X115025500Y-136907500D01*
X115001608Y-136906326D01*
X114977947Y-136902816D01*
X114954743Y-136897004D01*
X114932221Y-136888946D01*
X114910597Y-136878718D01*
X114890080Y-136866421D01*
X114870867Y-136852171D01*
X114853143Y-136836107D01*
X114837079Y-136818383D01*
X114822829Y-136799170D01*
X114810532Y-136778653D01*
X114800304Y-136757029D01*
X114792246Y-136734507D01*
X114786434Y-136711303D01*
X114782924Y-136687642D01*
X114781750Y-136663750D01*
X114781750Y-135751250D01*
X114782924Y-135727358D01*
X114786434Y-135703697D01*
X114792246Y-135680493D01*
X114800304Y-135657971D01*
X114810532Y-135636347D01*
X114822829Y-135615830D01*
X114837079Y-135596617D01*
X114853143Y-135578893D01*
X114870867Y-135562829D01*
X114890080Y-135548579D01*
X114910597Y-135536282D01*
X114932221Y-135526054D01*
X114954743Y-135517996D01*
X114977947Y-135512184D01*
X115001608Y-135508674D01*
X115025500Y-135507500D01*
X115513000Y-135507500D01*
X115536892Y-135508674D01*
X115536892Y-135508674D01*
G37*
D19*
X115269250Y-136207500D03*
D18*
G36*
X113661892Y-135508674D02*
G01*
X113685553Y-135512184D01*
X113708757Y-135517996D01*
X113731279Y-135526054D01*
X113752903Y-135536282D01*
X113773420Y-135548579D01*
X113792633Y-135562829D01*
X113810357Y-135578893D01*
X113826421Y-135596617D01*
X113840671Y-135615830D01*
X113852968Y-135636347D01*
X113863196Y-135657971D01*
X113871254Y-135680493D01*
X113877066Y-135703697D01*
X113880576Y-135727358D01*
X113881750Y-135751250D01*
X113881750Y-136663750D01*
X113880576Y-136687642D01*
X113877066Y-136711303D01*
X113871254Y-136734507D01*
X113863196Y-136757029D01*
X113852968Y-136778653D01*
X113840671Y-136799170D01*
X113826421Y-136818383D01*
X113810357Y-136836107D01*
X113792633Y-136852171D01*
X113773420Y-136866421D01*
X113752903Y-136878718D01*
X113731279Y-136888946D01*
X113708757Y-136897004D01*
X113685553Y-136902816D01*
X113661892Y-136906326D01*
X113638000Y-136907500D01*
X113150500Y-136907500D01*
X113126608Y-136906326D01*
X113102947Y-136902816D01*
X113079743Y-136897004D01*
X113057221Y-136888946D01*
X113035597Y-136878718D01*
X113015080Y-136866421D01*
X112995867Y-136852171D01*
X112978143Y-136836107D01*
X112962079Y-136818383D01*
X112947829Y-136799170D01*
X112935532Y-136778653D01*
X112925304Y-136757029D01*
X112917246Y-136734507D01*
X112911434Y-136711303D01*
X112907924Y-136687642D01*
X112906750Y-136663750D01*
X112906750Y-135751250D01*
X112907924Y-135727358D01*
X112911434Y-135703697D01*
X112917246Y-135680493D01*
X112925304Y-135657971D01*
X112935532Y-135636347D01*
X112947829Y-135615830D01*
X112962079Y-135596617D01*
X112978143Y-135578893D01*
X112995867Y-135562829D01*
X113015080Y-135548579D01*
X113035597Y-135536282D01*
X113057221Y-135526054D01*
X113079743Y-135517996D01*
X113102947Y-135512184D01*
X113126608Y-135508674D01*
X113150500Y-135507500D01*
X113638000Y-135507500D01*
X113661892Y-135508674D01*
X113661892Y-135508674D01*
G37*
D19*
X113394250Y-136207500D03*
D18*
G36*
X115536892Y-133540174D02*
G01*
X115560553Y-133543684D01*
X115583757Y-133549496D01*
X115606279Y-133557554D01*
X115627903Y-133567782D01*
X115648420Y-133580079D01*
X115667633Y-133594329D01*
X115685357Y-133610393D01*
X115701421Y-133628117D01*
X115715671Y-133647330D01*
X115727968Y-133667847D01*
X115738196Y-133689471D01*
X115746254Y-133711993D01*
X115752066Y-133735197D01*
X115755576Y-133758858D01*
X115756750Y-133782750D01*
X115756750Y-134695250D01*
X115755576Y-134719142D01*
X115752066Y-134742803D01*
X115746254Y-134766007D01*
X115738196Y-134788529D01*
X115727968Y-134810153D01*
X115715671Y-134830670D01*
X115701421Y-134849883D01*
X115685357Y-134867607D01*
X115667633Y-134883671D01*
X115648420Y-134897921D01*
X115627903Y-134910218D01*
X115606279Y-134920446D01*
X115583757Y-134928504D01*
X115560553Y-134934316D01*
X115536892Y-134937826D01*
X115513000Y-134939000D01*
X115025500Y-134939000D01*
X115001608Y-134937826D01*
X114977947Y-134934316D01*
X114954743Y-134928504D01*
X114932221Y-134920446D01*
X114910597Y-134910218D01*
X114890080Y-134897921D01*
X114870867Y-134883671D01*
X114853143Y-134867607D01*
X114837079Y-134849883D01*
X114822829Y-134830670D01*
X114810532Y-134810153D01*
X114800304Y-134788529D01*
X114792246Y-134766007D01*
X114786434Y-134742803D01*
X114782924Y-134719142D01*
X114781750Y-134695250D01*
X114781750Y-133782750D01*
X114782924Y-133758858D01*
X114786434Y-133735197D01*
X114792246Y-133711993D01*
X114800304Y-133689471D01*
X114810532Y-133667847D01*
X114822829Y-133647330D01*
X114837079Y-133628117D01*
X114853143Y-133610393D01*
X114870867Y-133594329D01*
X114890080Y-133580079D01*
X114910597Y-133567782D01*
X114932221Y-133557554D01*
X114954743Y-133549496D01*
X114977947Y-133543684D01*
X115001608Y-133540174D01*
X115025500Y-133539000D01*
X115513000Y-133539000D01*
X115536892Y-133540174D01*
X115536892Y-133540174D01*
G37*
D19*
X115269250Y-134239000D03*
D18*
G36*
X113661892Y-133540174D02*
G01*
X113685553Y-133543684D01*
X113708757Y-133549496D01*
X113731279Y-133557554D01*
X113752903Y-133567782D01*
X113773420Y-133580079D01*
X113792633Y-133594329D01*
X113810357Y-133610393D01*
X113826421Y-133628117D01*
X113840671Y-133647330D01*
X113852968Y-133667847D01*
X113863196Y-133689471D01*
X113871254Y-133711993D01*
X113877066Y-133735197D01*
X113880576Y-133758858D01*
X113881750Y-133782750D01*
X113881750Y-134695250D01*
X113880576Y-134719142D01*
X113877066Y-134742803D01*
X113871254Y-134766007D01*
X113863196Y-134788529D01*
X113852968Y-134810153D01*
X113840671Y-134830670D01*
X113826421Y-134849883D01*
X113810357Y-134867607D01*
X113792633Y-134883671D01*
X113773420Y-134897921D01*
X113752903Y-134910218D01*
X113731279Y-134920446D01*
X113708757Y-134928504D01*
X113685553Y-134934316D01*
X113661892Y-134937826D01*
X113638000Y-134939000D01*
X113150500Y-134939000D01*
X113126608Y-134937826D01*
X113102947Y-134934316D01*
X113079743Y-134928504D01*
X113057221Y-134920446D01*
X113035597Y-134910218D01*
X113015080Y-134897921D01*
X112995867Y-134883671D01*
X112978143Y-134867607D01*
X112962079Y-134849883D01*
X112947829Y-134830670D01*
X112935532Y-134810153D01*
X112925304Y-134788529D01*
X112917246Y-134766007D01*
X112911434Y-134742803D01*
X112907924Y-134719142D01*
X112906750Y-134695250D01*
X112906750Y-133782750D01*
X112907924Y-133758858D01*
X112911434Y-133735197D01*
X112917246Y-133711993D01*
X112925304Y-133689471D01*
X112935532Y-133667847D01*
X112947829Y-133647330D01*
X112962079Y-133628117D01*
X112978143Y-133610393D01*
X112995867Y-133594329D01*
X113015080Y-133580079D01*
X113035597Y-133567782D01*
X113057221Y-133557554D01*
X113079743Y-133549496D01*
X113102947Y-133543684D01*
X113126608Y-133540174D01*
X113150500Y-133539000D01*
X113638000Y-133539000D01*
X113661892Y-133540174D01*
X113661892Y-133540174D01*
G37*
D19*
X113394250Y-134239000D03*
D10*
X356275000Y-158718750D03*
X355620001Y-159448750D03*
D11*
X354965000Y-160178750D02*
X356275002Y-158718750D01*
D10*
X361315000Y-157638750D03*
X361295000Y-157928750D03*
D11*
X361275000Y-158218750D02*
X361315000Y-157638750D01*
D10*
X356275000Y-139668750D03*
X355620001Y-140398750D03*
D11*
X354965000Y-141128750D02*
X356275002Y-139668750D01*
D10*
X361315000Y-138588750D03*
X361295000Y-138878750D03*
D11*
X361275000Y-139168750D02*
X361315000Y-138588750D01*
D10*
X356275000Y-120618750D03*
X355620001Y-121348750D03*
D11*
X354965000Y-122078750D02*
X356275002Y-120618750D01*
D10*
X361315000Y-119538750D03*
X361295000Y-119828750D03*
D11*
X361275000Y-120118750D02*
X361315000Y-119538750D01*
D10*
X356275000Y-101568750D03*
X355620001Y-102298750D03*
D11*
X354965000Y-103028750D02*
X356275002Y-101568750D01*
D10*
X361315000Y-100488750D03*
X361295000Y-100778750D03*
D11*
X361275000Y-101068750D02*
X361315000Y-100488750D01*
D10*
X337225000Y-177768750D03*
X336570001Y-178498750D03*
D11*
X335915000Y-179228750D02*
X337225002Y-177768750D01*
D10*
X342265000Y-176688750D03*
X342245000Y-176978750D03*
D11*
X342225000Y-177268750D02*
X342265000Y-176688750D01*
D10*
X337225000Y-158718750D03*
X336570001Y-159448750D03*
D11*
X335915000Y-160178750D02*
X337225002Y-158718750D01*
D10*
X342265000Y-157638750D03*
X342245000Y-157928750D03*
D11*
X342225000Y-158218750D02*
X342265000Y-157638750D01*
D10*
X332462500Y-120618750D03*
X331807501Y-121348750D03*
D11*
X331152500Y-122078750D02*
X332462502Y-120618750D01*
D10*
X337502500Y-119538750D03*
X337482500Y-119828750D03*
D11*
X337462500Y-120118750D02*
X337502500Y-119538750D01*
D10*
X327700000Y-101568750D03*
X327045001Y-102298750D03*
D11*
X326390000Y-103028750D02*
X327700002Y-101568750D01*
D10*
X332740000Y-100488750D03*
X332720000Y-100778750D03*
D11*
X332700000Y-101068750D02*
X332740000Y-100488750D01*
D10*
X337225000Y-82518750D03*
X336570001Y-83248750D03*
D11*
X335915000Y-83978750D02*
X337225002Y-82518750D01*
D10*
X342265000Y-81438750D03*
X342245000Y-81728750D03*
D11*
X342225000Y-82018750D02*
X342265000Y-81438750D01*
D10*
X318175000Y-177768750D03*
X317520001Y-178498750D03*
D11*
X316865000Y-179228750D02*
X318175002Y-177768750D01*
D10*
X323215000Y-176688750D03*
X323195000Y-176978750D03*
D11*
X323175000Y-177268750D02*
X323215000Y-176688750D01*
D10*
X311031250Y-158718750D03*
X310376251Y-159448750D03*
D11*
X309721250Y-160178750D02*
X311031252Y-158718750D01*
D10*
X316071250Y-157638750D03*
X316051250Y-157928750D03*
D11*
X316031250Y-158218750D02*
X316071250Y-157638750D01*
D10*
X325318750Y-139668750D03*
X324663751Y-140398750D03*
D11*
X324008750Y-141128750D02*
X325318752Y-139668750D01*
D10*
X330358750Y-138588750D03*
X330338750Y-138878750D03*
D11*
X330318750Y-139168750D02*
X330358750Y-138588750D01*
D10*
X318175000Y-82518750D03*
X317520001Y-83248750D03*
D11*
X316865000Y-83978750D02*
X318175002Y-82518750D01*
D10*
X323215000Y-81438750D03*
X323195000Y-81728750D03*
D11*
X323175000Y-82018750D02*
X323215000Y-81438750D01*
D10*
X294362500Y-177768750D03*
X293707501Y-178498750D03*
D11*
X293052500Y-179228750D02*
X294362502Y-177768750D01*
D10*
X299402500Y-176688750D03*
X299382500Y-176978750D03*
D11*
X299362500Y-177268750D02*
X299402500Y-176688750D01*
D10*
X308650000Y-120618750D03*
X307995001Y-121348750D03*
D11*
X307340000Y-122078750D02*
X308650002Y-120618750D01*
D10*
X313690000Y-119538750D03*
X313670000Y-119828750D03*
D11*
X313650000Y-120118750D02*
X313690000Y-119538750D01*
D10*
X299125000Y-101568750D03*
X298470001Y-102298750D03*
D11*
X297815000Y-103028750D02*
X299125002Y-101568750D01*
D10*
X304165000Y-100488750D03*
X304145000Y-100778750D03*
D11*
X304125000Y-101068750D02*
X304165000Y-100488750D01*
D10*
X299125000Y-82518750D03*
X298470001Y-83248750D03*
D11*
X297815000Y-83978750D02*
X299125002Y-82518750D01*
D10*
X304165000Y-81438750D03*
X304145000Y-81728750D03*
D11*
X304125000Y-82018750D02*
X304165000Y-81438750D01*
D10*
X294362500Y-139668750D03*
X293707501Y-140398750D03*
D11*
X293052500Y-141128750D02*
X294362502Y-139668750D01*
D10*
X299402500Y-138588750D03*
X299382500Y-138878750D03*
D11*
X299362500Y-139168750D02*
X299402500Y-138588750D01*
D10*
X289600000Y-120618750D03*
X288945001Y-121348750D03*
D11*
X288290000Y-122078750D02*
X289600002Y-120618750D01*
D10*
X294640000Y-119538750D03*
X294620000Y-119828750D03*
D11*
X294600000Y-120118750D02*
X294640000Y-119538750D01*
D10*
X280075000Y-101568750D03*
X279420001Y-102298750D03*
D11*
X278765000Y-103028750D02*
X280075002Y-101568750D01*
D10*
X285115000Y-100488750D03*
X285095000Y-100778750D03*
D11*
X285075000Y-101068750D02*
X285115000Y-100488750D01*
D10*
X280075000Y-82518750D03*
X279420001Y-83248750D03*
D11*
X278765000Y-83978750D02*
X280075002Y-82518750D01*
D10*
X285115000Y-81438750D03*
X285095000Y-81728750D03*
D11*
X285075000Y-82018750D02*
X285115000Y-81438750D01*
D10*
X284837500Y-158718750D03*
X284182501Y-159448750D03*
D11*
X283527500Y-160178750D02*
X284837502Y-158718750D01*
D10*
X289877500Y-157638750D03*
X289857500Y-157928750D03*
D11*
X289837500Y-158218750D02*
X289877500Y-157638750D01*
D10*
X275312500Y-139668750D03*
X274657501Y-140398750D03*
D11*
X274002500Y-141128750D02*
X275312502Y-139668750D01*
D10*
X280352500Y-138588750D03*
X280332500Y-138878750D03*
D11*
X280312500Y-139168750D02*
X280352500Y-138588750D01*
D10*
X270550000Y-120618750D03*
X269895001Y-121348750D03*
D11*
X269240000Y-122078750D02*
X270550002Y-120618750D01*
D10*
X275590000Y-119538750D03*
X275570000Y-119828750D03*
D11*
X275550000Y-120118750D02*
X275590000Y-119538750D01*
D10*
X261025000Y-101568750D03*
X260370001Y-102298750D03*
D11*
X259715000Y-103028750D02*
X261025002Y-101568750D01*
D10*
X266065000Y-100488750D03*
X266045000Y-100778750D03*
D11*
X266025000Y-101068750D02*
X266065000Y-100488750D01*
D10*
X261025000Y-82518750D03*
X260370001Y-83248750D03*
D11*
X259715000Y-83978750D02*
X261025002Y-82518750D01*
D10*
X266065000Y-81438750D03*
X266045000Y-81728750D03*
D11*
X266025000Y-82018750D02*
X266065000Y-81438750D01*
D10*
X265787500Y-177768750D03*
X265132501Y-178498750D03*
D11*
X264477500Y-179228750D02*
X265787502Y-177768750D01*
D10*
X270827500Y-176688750D03*
X270807500Y-176978750D03*
D11*
X270787500Y-177268750D02*
X270827500Y-176688750D01*
D10*
X265787500Y-158718750D03*
X265132501Y-159448750D03*
D11*
X264477500Y-160178750D02*
X265787502Y-158718750D01*
D10*
X270827500Y-157638750D03*
X270807500Y-157928750D03*
D11*
X270787500Y-158218750D02*
X270827500Y-157638750D01*
D10*
X256262500Y-139668750D03*
X255607501Y-140398750D03*
D11*
X254952500Y-141128750D02*
X256262502Y-139668750D01*
D10*
X261302500Y-138588750D03*
X261282500Y-138878750D03*
D11*
X261262500Y-139168750D02*
X261302500Y-138588750D01*
D10*
X251500000Y-120618750D03*
X250845001Y-121348750D03*
D11*
X250190000Y-122078750D02*
X251500002Y-120618750D01*
D10*
X256540000Y-119538750D03*
X256520000Y-119828750D03*
D11*
X256500000Y-120118750D02*
X256540000Y-119538750D01*
D10*
X241975000Y-101568750D03*
X241320001Y-102298750D03*
D11*
X240665000Y-103028750D02*
X241975002Y-101568750D01*
D10*
X247015000Y-100488750D03*
X246995000Y-100778750D03*
D11*
X246975000Y-101068750D02*
X247015000Y-100488750D01*
D10*
X241975000Y-82518750D03*
X241320001Y-83248750D03*
D11*
X240665000Y-83978750D02*
X241975002Y-82518750D01*
D10*
X247015000Y-81438750D03*
X246995000Y-81728750D03*
D11*
X246975000Y-82018750D02*
X247015000Y-81438750D01*
D10*
X246737500Y-158718750D03*
X246082501Y-159448750D03*
D11*
X245427500Y-160178750D02*
X246737502Y-158718750D01*
D10*
X251777500Y-157638750D03*
X251757500Y-157928750D03*
D11*
X251737500Y-158218750D02*
X251777500Y-157638750D01*
D10*
X237212500Y-139668750D03*
X236557501Y-140398750D03*
D11*
X235902500Y-141128750D02*
X237212502Y-139668750D01*
D10*
X242252500Y-138588750D03*
X242232500Y-138878750D03*
D11*
X242212500Y-139168750D02*
X242252500Y-138588750D01*
D10*
X232450000Y-120618750D03*
X231795001Y-121348750D03*
D11*
X231140000Y-122078750D02*
X232450002Y-120618750D01*
D10*
X237490000Y-119538750D03*
X237470000Y-119828750D03*
D11*
X237450000Y-120118750D02*
X237490000Y-119538750D01*
D10*
X222925000Y-101568750D03*
X222270001Y-102298750D03*
D11*
X221615000Y-103028750D02*
X222925002Y-101568750D01*
D10*
X227965000Y-100488750D03*
X227945000Y-100778750D03*
D11*
X227925000Y-101068750D02*
X227965000Y-100488750D01*
D10*
X222925000Y-82518750D03*
X222270001Y-83248750D03*
D11*
X221615000Y-83978750D02*
X222925002Y-82518750D01*
D10*
X227965000Y-81438750D03*
X227945000Y-81728750D03*
D11*
X227925000Y-82018750D02*
X227965000Y-81438750D01*
D10*
X227687500Y-158718750D03*
X227032501Y-159448750D03*
D11*
X226377500Y-160178750D02*
X227687502Y-158718750D01*
D10*
X232727500Y-157638750D03*
X232707500Y-157928750D03*
D11*
X232687500Y-158218750D02*
X232727500Y-157638750D01*
D10*
X218162500Y-139668750D03*
X217507501Y-140398750D03*
D11*
X216852500Y-141128750D02*
X218162502Y-139668750D01*
D10*
X223202500Y-138588750D03*
X223182500Y-138878750D03*
D11*
X223162500Y-139168750D02*
X223202500Y-138588750D01*
D10*
X213400000Y-120618750D03*
X212745001Y-121348750D03*
D11*
X212090000Y-122078750D02*
X213400002Y-120618750D01*
D10*
X218440000Y-119538750D03*
X218420000Y-119828750D03*
D11*
X218400000Y-120118750D02*
X218440000Y-119538750D01*
D10*
X203875000Y-101568750D03*
X203220001Y-102298750D03*
D11*
X202565000Y-103028750D02*
X203875002Y-101568750D01*
D10*
X208915000Y-100488750D03*
X208895000Y-100778750D03*
D11*
X208875000Y-101068750D02*
X208915000Y-100488750D01*
D10*
X203875000Y-82518750D03*
X203220001Y-83248750D03*
D11*
X202565000Y-83978750D02*
X203875002Y-82518750D01*
D10*
X208915000Y-81438750D03*
X208895000Y-81728750D03*
D11*
X208875000Y-82018750D02*
X208915000Y-81438750D01*
D10*
X208637500Y-158718750D03*
X207982501Y-159448750D03*
D11*
X207327500Y-160178750D02*
X208637502Y-158718750D01*
D10*
X213677500Y-157638750D03*
X213657500Y-157928750D03*
D11*
X213637500Y-158218750D02*
X213677500Y-157638750D01*
D10*
X199112500Y-139668750D03*
X198457501Y-140398750D03*
D11*
X197802500Y-141128750D02*
X199112502Y-139668750D01*
D10*
X204152500Y-138588750D03*
X204132500Y-138878750D03*
D11*
X204112500Y-139168750D02*
X204152500Y-138588750D01*
D10*
X194350000Y-120618750D03*
X193695001Y-121348750D03*
D11*
X193040000Y-122078750D02*
X194350002Y-120618750D01*
D10*
X199390000Y-119538750D03*
X199370000Y-119828750D03*
D11*
X199350000Y-120118750D02*
X199390000Y-119538750D01*
D10*
X184825000Y-101568750D03*
X184170001Y-102298750D03*
D11*
X183515000Y-103028750D02*
X184825002Y-101568750D01*
D10*
X189865000Y-100488750D03*
X189845000Y-100778750D03*
D11*
X189825000Y-101068750D02*
X189865000Y-100488750D01*
D10*
X184825000Y-82518750D03*
X184170001Y-83248750D03*
D11*
X183515000Y-83978750D02*
X184825002Y-82518750D01*
D10*
X189865000Y-81438750D03*
X189845000Y-81728750D03*
D11*
X189825000Y-82018750D02*
X189865000Y-81438750D01*
D10*
X191968750Y-177768750D03*
X191313751Y-178498750D03*
D11*
X190658750Y-179228750D02*
X191968752Y-177768750D01*
D10*
X197008750Y-176688750D03*
X196988750Y-176978750D03*
D11*
X196968750Y-177268750D02*
X197008750Y-176688750D01*
D10*
X189587500Y-158718750D03*
X188932501Y-159448750D03*
D11*
X188277500Y-160178750D02*
X189587502Y-158718750D01*
D10*
X194627500Y-157638750D03*
X194607500Y-157928750D03*
D11*
X194587500Y-158218750D02*
X194627500Y-157638750D01*
D10*
X180062500Y-139668750D03*
X179407501Y-140398750D03*
D11*
X178752500Y-141128750D02*
X180062502Y-139668750D01*
D10*
X185102500Y-138588750D03*
X185082500Y-138878750D03*
D11*
X185062500Y-139168750D02*
X185102500Y-138588750D01*
D10*
X175300000Y-120618750D03*
X174645001Y-121348750D03*
D11*
X173990000Y-122078750D02*
X175300002Y-120618750D01*
D10*
X180340000Y-119538750D03*
X180320000Y-119828750D03*
D11*
X180300000Y-120118750D02*
X180340000Y-119538750D01*
D10*
X165775000Y-101568750D03*
X165120001Y-102298750D03*
D11*
X164465000Y-103028750D02*
X165775002Y-101568750D01*
D10*
X170815000Y-100488750D03*
X170795000Y-100778750D03*
D11*
X170775000Y-101068750D02*
X170815000Y-100488750D01*
D10*
X165775000Y-82518750D03*
X165120001Y-83248750D03*
D11*
X164465000Y-83978750D02*
X165775002Y-82518750D01*
D10*
X170815000Y-81438750D03*
X170795000Y-81728750D03*
D11*
X170775000Y-82018750D02*
X170815000Y-81438750D01*
D10*
X170537500Y-158718750D03*
X169882501Y-159448750D03*
D11*
X169227500Y-160178750D02*
X170537502Y-158718750D01*
D10*
X175577500Y-157638750D03*
X175557500Y-157928750D03*
D11*
X175537500Y-158218750D02*
X175577500Y-157638750D01*
D10*
X161012500Y-139668750D03*
X160357501Y-140398750D03*
D11*
X159702500Y-141128750D02*
X161012502Y-139668750D01*
D10*
X166052500Y-138588750D03*
X166032500Y-138878750D03*
D11*
X166012500Y-139168750D02*
X166052500Y-138588750D01*
D10*
X156250000Y-120618750D03*
X155595001Y-121348750D03*
D11*
X154940000Y-122078750D02*
X156250002Y-120618750D01*
D10*
X161290000Y-119538750D03*
X161270000Y-119828750D03*
D11*
X161250000Y-120118750D02*
X161290000Y-119538750D01*
D10*
X146725000Y-101568750D03*
X146070001Y-102298750D03*
D11*
X145415000Y-103028750D02*
X146725002Y-101568750D01*
D10*
X151765000Y-100488750D03*
X151745000Y-100778750D03*
D11*
X151725000Y-101068750D02*
X151765000Y-100488750D01*
D10*
X146725000Y-82518750D03*
X146070001Y-83248750D03*
D11*
X145415000Y-83978750D02*
X146725002Y-82518750D01*
D10*
X151765000Y-81438750D03*
X151745000Y-81728750D03*
D11*
X151725000Y-82018750D02*
X151765000Y-81438750D01*
D10*
X151487500Y-158718750D03*
X150832501Y-159448750D03*
D11*
X150177500Y-160178750D02*
X151487502Y-158718750D01*
D10*
X156527500Y-157638750D03*
X156507500Y-157928750D03*
D11*
X156487500Y-158218750D02*
X156527500Y-157638750D01*
D10*
X141962500Y-139668750D03*
X141307501Y-140398750D03*
D11*
X140652500Y-141128750D02*
X141962502Y-139668750D01*
D10*
X147002500Y-138588750D03*
X146982500Y-138878750D03*
D11*
X146962500Y-139168750D02*
X147002500Y-138588750D01*
D10*
X137200000Y-120618750D03*
X136545001Y-121348750D03*
D11*
X135890000Y-122078750D02*
X137200002Y-120618750D01*
D10*
X142240000Y-119538750D03*
X142220000Y-119828750D03*
D11*
X142200000Y-120118750D02*
X142240000Y-119538750D01*
D10*
X127675000Y-101568750D03*
X127020001Y-102298750D03*
D11*
X126365000Y-103028750D02*
X127675002Y-101568750D01*
D10*
X132715000Y-100488750D03*
X132695000Y-100778750D03*
D11*
X132675000Y-101068750D02*
X132715000Y-100488750D01*
D10*
X127675000Y-82518750D03*
X127020001Y-83248750D03*
D11*
X126365000Y-83978750D02*
X127675002Y-82518750D01*
D10*
X132715000Y-81438750D03*
X132695000Y-81728750D03*
D11*
X132675000Y-82018750D02*
X132715000Y-81438750D01*
D10*
X120531250Y-177768750D03*
X119876251Y-178498750D03*
D11*
X119221250Y-179228750D02*
X120531252Y-177768750D01*
D10*
X125571250Y-176688750D03*
X125551250Y-176978750D03*
D11*
X125531250Y-177268750D02*
X125571250Y-176688750D01*
D10*
X132437500Y-158718750D03*
X131782501Y-159448750D03*
D11*
X131127500Y-160178750D02*
X132437502Y-158718750D01*
D10*
X137477500Y-157638750D03*
X137457500Y-157928750D03*
D11*
X137437500Y-158218750D02*
X137477500Y-157638750D01*
D10*
X122912500Y-139668750D03*
X122257501Y-140398750D03*
D11*
X121602500Y-141128750D02*
X122912502Y-139668750D01*
D10*
X127952500Y-138588750D03*
X127932500Y-138878750D03*
D11*
X127912500Y-139168750D02*
X127952500Y-138588750D01*
D10*
X118150000Y-120618750D03*
X117495001Y-121348750D03*
D11*
X116840000Y-122078750D02*
X118150002Y-120618750D01*
D10*
X123190000Y-119538750D03*
X123170000Y-119828750D03*
D11*
X123150000Y-120118750D02*
X123190000Y-119538750D01*
D10*
X108625000Y-101568750D03*
X107970001Y-102298750D03*
D11*
X107315000Y-103028750D02*
X108625002Y-101568750D01*
D10*
X113665000Y-100488750D03*
X113645000Y-100778750D03*
D11*
X113625000Y-101068750D02*
X113665000Y-100488750D01*
D10*
X108625000Y-82518750D03*
X107970001Y-83248750D03*
D11*
X107315000Y-83978750D02*
X108625002Y-82518750D01*
D10*
X113665000Y-81438750D03*
X113645000Y-81728750D03*
D11*
X113625000Y-82018750D02*
X113665000Y-81438750D01*
D10*
X96718750Y-177768750D03*
X96063751Y-178498750D03*
D11*
X95408750Y-179228750D02*
X96718752Y-177768750D01*
D10*
X101758750Y-176688750D03*
X101738750Y-176978750D03*
D11*
X101718750Y-177268750D02*
X101758750Y-176688750D01*
D10*
X113387500Y-158718750D03*
X112732501Y-159448750D03*
D11*
X112077500Y-160178750D02*
X113387502Y-158718750D01*
D10*
X118427500Y-157638750D03*
X118407500Y-157928750D03*
D11*
X118387500Y-158218750D02*
X118427500Y-157638750D01*
D10*
X89575000Y-101568750D03*
X88920001Y-102298750D03*
D11*
X88265000Y-103028750D02*
X89575002Y-101568750D01*
D10*
X94615000Y-100488750D03*
X94595000Y-100778750D03*
D11*
X94575000Y-101068750D02*
X94615000Y-100488750D01*
D10*
X89575000Y-82518750D03*
X88920001Y-83248750D03*
D11*
X88265000Y-83978750D02*
X89575002Y-82518750D01*
D10*
X94615000Y-81438750D03*
X94595000Y-81728750D03*
D11*
X94575000Y-82018750D02*
X94615000Y-81438750D01*
D10*
X72906250Y-177768750D03*
X72251251Y-178498750D03*
D11*
X71596250Y-179228750D02*
X72906252Y-177768750D01*
D10*
X77946250Y-176688750D03*
X77926250Y-176978750D03*
D11*
X77906250Y-177268750D02*
X77946250Y-176688750D01*
D10*
X82431250Y-158718750D03*
X81776251Y-159448750D03*
D11*
X81121250Y-160178750D02*
X82431252Y-158718750D01*
D10*
X87471250Y-157638750D03*
X87451250Y-157928750D03*
D11*
X87431250Y-158218750D02*
X87471250Y-157638750D01*
D10*
X77668750Y-139668750D03*
X77013751Y-140398750D03*
D11*
X76358750Y-141128750D02*
X77668752Y-139668750D01*
D10*
X82708750Y-138588750D03*
X82688750Y-138878750D03*
D11*
X82668750Y-139168750D02*
X82708750Y-138588750D01*
D10*
X70525000Y-101568750D03*
X69870001Y-102298750D03*
D11*
X69215000Y-103028750D02*
X70525002Y-101568750D01*
D10*
X75565000Y-100488750D03*
X75545000Y-100778750D03*
D11*
X75525000Y-101068750D02*
X75565000Y-100488750D01*
D10*
X70525000Y-82518750D03*
X69870001Y-83248750D03*
D11*
X69215000Y-83978750D02*
X70525002Y-82518750D01*
D10*
X75565000Y-81438750D03*
X75545000Y-81728750D03*
D11*
X75525000Y-82018750D02*
X75565000Y-81438750D01*
D18*
G36*
X103933254Y-131015704D02*
G01*
X103957523Y-131019304D01*
X103981321Y-131025265D01*
X104004421Y-131033530D01*
X104026599Y-131044020D01*
X104047643Y-131056633D01*
X104067348Y-131071247D01*
X104085527Y-131087723D01*
X104102003Y-131105902D01*
X104116617Y-131125607D01*
X104129230Y-131146651D01*
X104139720Y-131168829D01*
X104147985Y-131191929D01*
X104153946Y-131215727D01*
X104157546Y-131239996D01*
X104158750Y-131264500D01*
X104158750Y-132514500D01*
X104157546Y-132539004D01*
X104153946Y-132563273D01*
X104147985Y-132587071D01*
X104139720Y-132610171D01*
X104129230Y-132632349D01*
X104116617Y-132653393D01*
X104102003Y-132673098D01*
X104085527Y-132691277D01*
X104067348Y-132707753D01*
X104047643Y-132722367D01*
X104026599Y-132734980D01*
X104004421Y-132745470D01*
X103981321Y-132753735D01*
X103957523Y-132759696D01*
X103933254Y-132763296D01*
X103908750Y-132764500D01*
X103158750Y-132764500D01*
X103134246Y-132763296D01*
X103109977Y-132759696D01*
X103086179Y-132753735D01*
X103063079Y-132745470D01*
X103040901Y-132734980D01*
X103019857Y-132722367D01*
X103000152Y-132707753D01*
X102981973Y-132691277D01*
X102965497Y-132673098D01*
X102950883Y-132653393D01*
X102938270Y-132632349D01*
X102927780Y-132610171D01*
X102919515Y-132587071D01*
X102913554Y-132563273D01*
X102909954Y-132539004D01*
X102908750Y-132514500D01*
X102908750Y-131264500D01*
X102909954Y-131239996D01*
X102913554Y-131215727D01*
X102919515Y-131191929D01*
X102927780Y-131168829D01*
X102938270Y-131146651D01*
X102950883Y-131125607D01*
X102965497Y-131105902D01*
X102981973Y-131087723D01*
X103000152Y-131071247D01*
X103019857Y-131056633D01*
X103040901Y-131044020D01*
X103063079Y-131033530D01*
X103086179Y-131025265D01*
X103109977Y-131019304D01*
X103134246Y-131015704D01*
X103158750Y-131014500D01*
X103908750Y-131014500D01*
X103933254Y-131015704D01*
X103933254Y-131015704D01*
G37*
D20*
X103533750Y-131889500D03*
D18*
G36*
X106733254Y-131015704D02*
G01*
X106757523Y-131019304D01*
X106781321Y-131025265D01*
X106804421Y-131033530D01*
X106826599Y-131044020D01*
X106847643Y-131056633D01*
X106867348Y-131071247D01*
X106885527Y-131087723D01*
X106902003Y-131105902D01*
X106916617Y-131125607D01*
X106929230Y-131146651D01*
X106939720Y-131168829D01*
X106947985Y-131191929D01*
X106953946Y-131215727D01*
X106957546Y-131239996D01*
X106958750Y-131264500D01*
X106958750Y-132514500D01*
X106957546Y-132539004D01*
X106953946Y-132563273D01*
X106947985Y-132587071D01*
X106939720Y-132610171D01*
X106929230Y-132632349D01*
X106916617Y-132653393D01*
X106902003Y-132673098D01*
X106885527Y-132691277D01*
X106867348Y-132707753D01*
X106847643Y-132722367D01*
X106826599Y-132734980D01*
X106804421Y-132745470D01*
X106781321Y-132753735D01*
X106757523Y-132759696D01*
X106733254Y-132763296D01*
X106708750Y-132764500D01*
X105958750Y-132764500D01*
X105934246Y-132763296D01*
X105909977Y-132759696D01*
X105886179Y-132753735D01*
X105863079Y-132745470D01*
X105840901Y-132734980D01*
X105819857Y-132722367D01*
X105800152Y-132707753D01*
X105781973Y-132691277D01*
X105765497Y-132673098D01*
X105750883Y-132653393D01*
X105738270Y-132632349D01*
X105727780Y-132610171D01*
X105719515Y-132587071D01*
X105713554Y-132563273D01*
X105709954Y-132539004D01*
X105708750Y-132514500D01*
X105708750Y-131264500D01*
X105709954Y-131239996D01*
X105713554Y-131215727D01*
X105719515Y-131191929D01*
X105727780Y-131168829D01*
X105738270Y-131146651D01*
X105750883Y-131125607D01*
X105765497Y-131105902D01*
X105781973Y-131087723D01*
X105800152Y-131071247D01*
X105819857Y-131056633D01*
X105840901Y-131044020D01*
X105863079Y-131033530D01*
X105886179Y-131025265D01*
X105909977Y-131019304D01*
X105934246Y-131015704D01*
X105958750Y-131014500D01*
X106708750Y-131014500D01*
X106733254Y-131015704D01*
X106733254Y-131015704D01*
G37*
D20*
X106333750Y-131889500D03*
D21*
X361252750Y-190182500D03*
X355852750Y-190182500D03*
D22*
X362452750Y-190182500D03*
D23*
X354652750Y-190182500D03*
D24*
X356977750Y-190182500D03*
X360127750Y-190182500D03*
D25*
X367061750Y-164622500D03*
X367061750Y-170022500D03*
D22*
X367061750Y-163422500D03*
D23*
X367061750Y-171222500D03*
D24*
X367061750Y-168897500D03*
X367061750Y-165747500D03*
D25*
X367061750Y-145572500D03*
X367061750Y-150972500D03*
D22*
X367061750Y-144372500D03*
D23*
X367061750Y-152172500D03*
D24*
X367061750Y-149847500D03*
X367061750Y-146697500D03*
D25*
X367061750Y-126522500D03*
X367061750Y-131922500D03*
D22*
X367061750Y-125322500D03*
D23*
X367061750Y-133122500D03*
D24*
X367061750Y-130797500D03*
X367061750Y-127647500D03*
D25*
X367061750Y-107472500D03*
X367061750Y-112872500D03*
D22*
X367061750Y-106272500D03*
D23*
X367061750Y-114072500D03*
D24*
X367061750Y-111747500D03*
X367061750Y-108597500D03*
D25*
X367061750Y-88422500D03*
X367061750Y-93822500D03*
D22*
X367061750Y-87222500D03*
D23*
X367061750Y-95022500D03*
D24*
X367061750Y-92697500D03*
X367061750Y-89547500D03*
D25*
X348011750Y-183672500D03*
X348011750Y-189072500D03*
D22*
X348011750Y-182472500D03*
D23*
X348011750Y-190272500D03*
D24*
X348011750Y-187947500D03*
X348011750Y-184797500D03*
D25*
X348011750Y-164622500D03*
X348011750Y-170022500D03*
D22*
X348011750Y-163422500D03*
D23*
X348011750Y-171222500D03*
D24*
X348011750Y-168897500D03*
X348011750Y-165747500D03*
D25*
X347884750Y-126522500D03*
X347884750Y-131922500D03*
D22*
X347884750Y-125322500D03*
D23*
X347884750Y-133122500D03*
D24*
X347884750Y-130797500D03*
X347884750Y-127647500D03*
D25*
X348011750Y-107472500D03*
X348011750Y-112872500D03*
D22*
X348011750Y-106272500D03*
D23*
X348011750Y-114072500D03*
D24*
X348011750Y-111747500D03*
X348011750Y-108597500D03*
D25*
X348011750Y-88422500D03*
X348011750Y-93822500D03*
D22*
X348011750Y-87222500D03*
D23*
X348011750Y-95022500D03*
D24*
X348011750Y-92697500D03*
X348011750Y-89547500D03*
D25*
X328961750Y-183672500D03*
X328961750Y-189072500D03*
D22*
X328961750Y-182472500D03*
D23*
X328961750Y-190272500D03*
D24*
X328961750Y-187947500D03*
X328961750Y-184797500D03*
D25*
X328834750Y-164622500D03*
X328834750Y-170022500D03*
D22*
X328834750Y-163422500D03*
D23*
X328834750Y-171222500D03*
D24*
X328834750Y-168897500D03*
X328834750Y-165747500D03*
D25*
X335946750Y-145445500D03*
X335946750Y-150845500D03*
D22*
X335946750Y-144245500D03*
D23*
X335946750Y-152045500D03*
D24*
X335946750Y-149720500D03*
X335946750Y-146570500D03*
D25*
X328961750Y-88422500D03*
X328961750Y-93822500D03*
D22*
X328961750Y-87222500D03*
D23*
X328961750Y-95022500D03*
D24*
X328961750Y-92697500D03*
X328961750Y-89547500D03*
D25*
X305085750Y-183672500D03*
X305085750Y-189072500D03*
D22*
X305085750Y-182472500D03*
D23*
X305085750Y-190272500D03*
D24*
X305085750Y-187947500D03*
X305085750Y-184797500D03*
D25*
X319436750Y-126522500D03*
X319436750Y-131922500D03*
D22*
X319436750Y-125322500D03*
D23*
X319436750Y-133122500D03*
D24*
X319436750Y-130797500D03*
X319436750Y-127647500D03*
D25*
X309911750Y-107472500D03*
X309911750Y-112872500D03*
D22*
X309911750Y-106272500D03*
D23*
X309911750Y-114072500D03*
D24*
X309911750Y-111747500D03*
X309911750Y-108597500D03*
D25*
X310038750Y-88422500D03*
X310038750Y-93822500D03*
D22*
X310038750Y-87222500D03*
D23*
X310038750Y-95022500D03*
D24*
X310038750Y-92697500D03*
X310038750Y-89547500D03*
D25*
X305085750Y-145572500D03*
X305085750Y-150972500D03*
D22*
X305085750Y-144372500D03*
D23*
X305085750Y-152172500D03*
D24*
X305085750Y-149847500D03*
X305085750Y-146697500D03*
D25*
X300386750Y-126522500D03*
X300386750Y-131922500D03*
D22*
X300386750Y-125322500D03*
D23*
X300386750Y-133122500D03*
D24*
X300386750Y-130797500D03*
X300386750Y-127647500D03*
D25*
X290861750Y-107472500D03*
X290861750Y-112872500D03*
D22*
X290861750Y-106272500D03*
D23*
X290861750Y-114072500D03*
D24*
X290861750Y-111747500D03*
X290861750Y-108597500D03*
D25*
X290861750Y-88422500D03*
X290861750Y-93822500D03*
D22*
X290861750Y-87222500D03*
D23*
X290861750Y-95022500D03*
D24*
X290861750Y-92697500D03*
X290861750Y-89547500D03*
D25*
X295560750Y-164622500D03*
X295560750Y-170022500D03*
D22*
X295560750Y-163422500D03*
D23*
X295560750Y-171222500D03*
D24*
X295560750Y-168897500D03*
X295560750Y-165747500D03*
D25*
X286035750Y-145572500D03*
X286035750Y-150972500D03*
D22*
X286035750Y-144372500D03*
D23*
X286035750Y-152172500D03*
D24*
X286035750Y-149847500D03*
X286035750Y-146697500D03*
D25*
X281336750Y-126522500D03*
X281336750Y-131922500D03*
D22*
X281336750Y-125322500D03*
D23*
X281336750Y-133122500D03*
D24*
X281336750Y-130797500D03*
X281336750Y-127647500D03*
D25*
X271811750Y-107472500D03*
X271811750Y-112872500D03*
D22*
X271811750Y-106272500D03*
D23*
X271811750Y-114072500D03*
D24*
X271811750Y-111747500D03*
X271811750Y-108597500D03*
D25*
X271811750Y-88422500D03*
X271811750Y-93822500D03*
D22*
X271811750Y-87222500D03*
D23*
X271811750Y-95022500D03*
D24*
X271811750Y-92697500D03*
X271811750Y-89547500D03*
D25*
X276637750Y-183672500D03*
X276637750Y-189072500D03*
D22*
X276637750Y-182472500D03*
D23*
X276637750Y-190272500D03*
D24*
X276637750Y-187947500D03*
X276637750Y-184797500D03*
D25*
X276510750Y-164622500D03*
X276510750Y-170022500D03*
D22*
X276510750Y-163422500D03*
D23*
X276510750Y-171222500D03*
D24*
X276510750Y-168897500D03*
X276510750Y-165747500D03*
D25*
X266985750Y-145572500D03*
X266985750Y-150972500D03*
D22*
X266985750Y-144372500D03*
D23*
X266985750Y-152172500D03*
D24*
X266985750Y-149847500D03*
X266985750Y-146697500D03*
D25*
X262286750Y-126522500D03*
X262286750Y-131922500D03*
D22*
X262286750Y-125322500D03*
D23*
X262286750Y-133122500D03*
D24*
X262286750Y-130797500D03*
X262286750Y-127647500D03*
D25*
X252761750Y-107472500D03*
X252761750Y-112872500D03*
D22*
X252761750Y-106272500D03*
D23*
X252761750Y-114072500D03*
D24*
X252761750Y-111747500D03*
X252761750Y-108597500D03*
D25*
X252761750Y-88422500D03*
X252761750Y-93822500D03*
D22*
X252761750Y-87222500D03*
D23*
X252761750Y-95022500D03*
D24*
X252761750Y-92697500D03*
X252761750Y-89547500D03*
D25*
X257460750Y-164622500D03*
X257460750Y-170022500D03*
D22*
X257460750Y-163422500D03*
D23*
X257460750Y-171222500D03*
D24*
X257460750Y-168897500D03*
X257460750Y-165747500D03*
D25*
X247935750Y-145572500D03*
X247935750Y-150972500D03*
D22*
X247935750Y-144372500D03*
D23*
X247935750Y-152172500D03*
D24*
X247935750Y-149847500D03*
X247935750Y-146697500D03*
D25*
X243236750Y-126522500D03*
X243236750Y-131922500D03*
D22*
X243236750Y-125322500D03*
D23*
X243236750Y-133122500D03*
D24*
X243236750Y-130797500D03*
X243236750Y-127647500D03*
D25*
X233711750Y-107472500D03*
X233711750Y-112872500D03*
D22*
X233711750Y-106272500D03*
D23*
X233711750Y-114072500D03*
D24*
X233711750Y-111747500D03*
X233711750Y-108597500D03*
D25*
X233711750Y-88422500D03*
X233711750Y-93822500D03*
D22*
X233711750Y-87222500D03*
D23*
X233711750Y-95022500D03*
D24*
X233711750Y-92697500D03*
X233711750Y-89547500D03*
D25*
X238410750Y-164622500D03*
X238410750Y-170022500D03*
D22*
X238410750Y-163422500D03*
D23*
X238410750Y-171222500D03*
D24*
X238410750Y-168897500D03*
X238410750Y-165747500D03*
D25*
X228885750Y-145572500D03*
X228885750Y-150972500D03*
D22*
X228885750Y-144372500D03*
D23*
X228885750Y-152172500D03*
D24*
X228885750Y-149847500D03*
X228885750Y-146697500D03*
D25*
X224186750Y-126522500D03*
X224186750Y-131922500D03*
D22*
X224186750Y-125322500D03*
D23*
X224186750Y-133122500D03*
D24*
X224186750Y-130797500D03*
X224186750Y-127647500D03*
D25*
X214661750Y-107472500D03*
X214661750Y-112872500D03*
D22*
X214661750Y-106272500D03*
D23*
X214661750Y-114072500D03*
D24*
X214661750Y-111747500D03*
X214661750Y-108597500D03*
D25*
X214661750Y-88422500D03*
X214661750Y-93822500D03*
D22*
X214661750Y-87222500D03*
D23*
X214661750Y-95022500D03*
D24*
X214661750Y-92697500D03*
X214661750Y-89547500D03*
D25*
X219360750Y-164622500D03*
X219360750Y-170022500D03*
D22*
X219360750Y-163422500D03*
D23*
X219360750Y-171222500D03*
D24*
X219360750Y-168897500D03*
X219360750Y-165747500D03*
D25*
X209835750Y-145572500D03*
X209835750Y-150972500D03*
D22*
X209835750Y-144372500D03*
D23*
X209835750Y-152172500D03*
D24*
X209835750Y-149847500D03*
X209835750Y-146697500D03*
D25*
X205136750Y-126522500D03*
X205136750Y-131922500D03*
D22*
X205136750Y-125322500D03*
D23*
X205136750Y-133122500D03*
D24*
X205136750Y-130797500D03*
X205136750Y-127647500D03*
D25*
X195611750Y-107472500D03*
X195611750Y-112872500D03*
D22*
X195611750Y-106272500D03*
D23*
X195611750Y-114072500D03*
D24*
X195611750Y-111747500D03*
X195611750Y-108597500D03*
D25*
X195611750Y-88422500D03*
X195611750Y-93822500D03*
D22*
X195611750Y-87222500D03*
D23*
X195611750Y-95022500D03*
D24*
X195611750Y-92697500D03*
X195611750Y-89547500D03*
D25*
X202723750Y-183672500D03*
X202723750Y-189072500D03*
D22*
X202723750Y-182472500D03*
D23*
X202723750Y-190272500D03*
D24*
X202723750Y-187947500D03*
X202723750Y-184797500D03*
D25*
X200310750Y-164622500D03*
X200310750Y-170022500D03*
D22*
X200310750Y-163422500D03*
D23*
X200310750Y-171222500D03*
D24*
X200310750Y-168897500D03*
X200310750Y-165747500D03*
D25*
X190785750Y-145572500D03*
X190785750Y-150972500D03*
D22*
X190785750Y-144372500D03*
D23*
X190785750Y-152172500D03*
D24*
X190785750Y-149847500D03*
X190785750Y-146697500D03*
D25*
X186086750Y-126522500D03*
X186086750Y-131922500D03*
D22*
X186086750Y-125322500D03*
D23*
X186086750Y-133122500D03*
D24*
X186086750Y-130797500D03*
X186086750Y-127647500D03*
D25*
X176561750Y-107472500D03*
X176561750Y-112872500D03*
D22*
X176561750Y-106272500D03*
D23*
X176561750Y-114072500D03*
D24*
X176561750Y-111747500D03*
X176561750Y-108597500D03*
D25*
X176561750Y-88422500D03*
X176561750Y-93822500D03*
D22*
X176561750Y-87222500D03*
D23*
X176561750Y-95022500D03*
D24*
X176561750Y-92697500D03*
X176561750Y-89547500D03*
D25*
X181260750Y-164622500D03*
X181260750Y-170022500D03*
D22*
X181260750Y-163422500D03*
D23*
X181260750Y-171222500D03*
D24*
X181260750Y-168897500D03*
X181260750Y-165747500D03*
D25*
X171735750Y-145572500D03*
X171735750Y-150972500D03*
D22*
X171735750Y-144372500D03*
D23*
X171735750Y-152172500D03*
D24*
X171735750Y-149847500D03*
X171735750Y-146697500D03*
D25*
X167036750Y-126522500D03*
X167036750Y-131922500D03*
D22*
X167036750Y-125322500D03*
D23*
X167036750Y-133122500D03*
D24*
X167036750Y-130797500D03*
X167036750Y-127647500D03*
D25*
X157511750Y-107472500D03*
X157511750Y-112872500D03*
D22*
X157511750Y-106272500D03*
D23*
X157511750Y-114072500D03*
D24*
X157511750Y-111747500D03*
X157511750Y-108597500D03*
D25*
X157511750Y-88422500D03*
X157511750Y-93822500D03*
D22*
X157511750Y-87222500D03*
D23*
X157511750Y-95022500D03*
D24*
X157511750Y-92697500D03*
X157511750Y-89547500D03*
D25*
X162210750Y-164622500D03*
X162210750Y-170022500D03*
D22*
X162210750Y-163422500D03*
D23*
X162210750Y-171222500D03*
D24*
X162210750Y-168897500D03*
X162210750Y-165747500D03*
D25*
X152685750Y-145572500D03*
X152685750Y-150972500D03*
D22*
X152685750Y-144372500D03*
D23*
X152685750Y-152172500D03*
D24*
X152685750Y-149847500D03*
X152685750Y-146697500D03*
D25*
X147986750Y-126522500D03*
X147986750Y-131922500D03*
D22*
X147986750Y-125322500D03*
D23*
X147986750Y-133122500D03*
D24*
X147986750Y-130797500D03*
X147986750Y-127647500D03*
D25*
X138461750Y-107472500D03*
X138461750Y-112872500D03*
D22*
X138461750Y-106272500D03*
D23*
X138461750Y-114072500D03*
D24*
X138461750Y-111747500D03*
X138461750Y-108597500D03*
D25*
X138461750Y-88422500D03*
X138461750Y-93822500D03*
D22*
X138461750Y-87222500D03*
D23*
X138461750Y-95022500D03*
D24*
X138461750Y-92697500D03*
X138461750Y-89547500D03*
D25*
X133635750Y-183545500D03*
X133635750Y-188945500D03*
D22*
X133635750Y-182345500D03*
D23*
X133635750Y-190145500D03*
D24*
X133635750Y-187820500D03*
X133635750Y-184670500D03*
D25*
X143160750Y-164622500D03*
X143160750Y-170022500D03*
D22*
X143160750Y-163422500D03*
D23*
X143160750Y-171222500D03*
D24*
X143160750Y-168897500D03*
X143160750Y-165747500D03*
D25*
X133762750Y-145572500D03*
X133762750Y-150972500D03*
D22*
X133762750Y-144372500D03*
D23*
X133762750Y-152172500D03*
D24*
X133762750Y-149847500D03*
X133762750Y-146697500D03*
D25*
X128936750Y-126522500D03*
X128936750Y-131922500D03*
D22*
X128936750Y-125322500D03*
D23*
X128936750Y-133122500D03*
D24*
X128936750Y-130797500D03*
X128936750Y-127647500D03*
D25*
X119411750Y-107472500D03*
X119411750Y-112872500D03*
D22*
X119411750Y-106272500D03*
D23*
X119411750Y-114072500D03*
D24*
X119411750Y-111747500D03*
X119411750Y-108597500D03*
D25*
X119411750Y-88346500D03*
X119411750Y-93746500D03*
D22*
X119411750Y-87146500D03*
D23*
X119411750Y-94946500D03*
D24*
X119411750Y-92621500D03*
X119411750Y-89471500D03*
D25*
X109886750Y-183672500D03*
X109886750Y-189072500D03*
D22*
X109886750Y-182472500D03*
D23*
X109886750Y-190272500D03*
D24*
X109886750Y-187947500D03*
X109886750Y-184797500D03*
D25*
X124110750Y-164622500D03*
X124110750Y-170022500D03*
D22*
X124110750Y-163422500D03*
D23*
X124110750Y-171222500D03*
D24*
X124110750Y-168897500D03*
X124110750Y-165747500D03*
D25*
X114585750Y-145572500D03*
X114585750Y-150972500D03*
D22*
X114585750Y-144372500D03*
D23*
X114585750Y-152172500D03*
D24*
X114585750Y-149847500D03*
X114585750Y-146697500D03*
D25*
X109886750Y-126522500D03*
X109886750Y-131922500D03*
D22*
X109886750Y-125322500D03*
D23*
X109886750Y-133122500D03*
D24*
X109886750Y-130797500D03*
X109886750Y-127647500D03*
D25*
X100361750Y-107472500D03*
X100361750Y-112872500D03*
D22*
X100361750Y-106272500D03*
D23*
X100361750Y-114072500D03*
D24*
X100361750Y-111747500D03*
X100361750Y-108597500D03*
D25*
X100361750Y-88422500D03*
X100361750Y-93822500D03*
D22*
X100361750Y-87222500D03*
D23*
X100361750Y-95022500D03*
D24*
X100361750Y-92697500D03*
X100361750Y-89547500D03*
D25*
X86010750Y-183672500D03*
X86010750Y-189072500D03*
D22*
X86010750Y-182472500D03*
D23*
X86010750Y-190272500D03*
D24*
X86010750Y-187947500D03*
X86010750Y-184797500D03*
D25*
X105060750Y-164622500D03*
X105060750Y-170022500D03*
D22*
X105060750Y-163422500D03*
D23*
X105060750Y-171222500D03*
D24*
X105060750Y-168897500D03*
X105060750Y-165747500D03*
D25*
X83216750Y-147426700D03*
X83216750Y-152826700D03*
D22*
X83216750Y-146226700D03*
D23*
X83216750Y-154026700D03*
D24*
X83216750Y-151701700D03*
X83216750Y-148551700D03*
D21*
X85825350Y-117589300D03*
X91225350Y-117589300D03*
D22*
X84625350Y-117589300D03*
D23*
X92425350Y-117589300D03*
D24*
X90100350Y-117589300D03*
X86950350Y-117589300D03*
D25*
X81311750Y-107472500D03*
X81311750Y-112872500D03*
D22*
X81311750Y-106272500D03*
D23*
X81311750Y-114072500D03*
D24*
X81311750Y-111747500D03*
X81311750Y-108597500D03*
D25*
X81311750Y-88422500D03*
X81311750Y-93822500D03*
D22*
X81311750Y-87222500D03*
D23*
X81311750Y-95022500D03*
D24*
X81311750Y-92697500D03*
X81311750Y-89547500D03*
D18*
G36*
X106265892Y-135635674D02*
G01*
X106289553Y-135639184D01*
X106312757Y-135644996D01*
X106335279Y-135653054D01*
X106356903Y-135663282D01*
X106377420Y-135675579D01*
X106396633Y-135689829D01*
X106414357Y-135705893D01*
X106430421Y-135723617D01*
X106444671Y-135742830D01*
X106456968Y-135763347D01*
X106467196Y-135784971D01*
X106475254Y-135807493D01*
X106481066Y-135830697D01*
X106484576Y-135854358D01*
X106485750Y-135878250D01*
X106485750Y-136790750D01*
X106484576Y-136814642D01*
X106481066Y-136838303D01*
X106475254Y-136861507D01*
X106467196Y-136884029D01*
X106456968Y-136905653D01*
X106444671Y-136926170D01*
X106430421Y-136945383D01*
X106414357Y-136963107D01*
X106396633Y-136979171D01*
X106377420Y-136993421D01*
X106356903Y-137005718D01*
X106335279Y-137015946D01*
X106312757Y-137024004D01*
X106289553Y-137029816D01*
X106265892Y-137033326D01*
X106242000Y-137034500D01*
X105754500Y-137034500D01*
X105730608Y-137033326D01*
X105706947Y-137029816D01*
X105683743Y-137024004D01*
X105661221Y-137015946D01*
X105639597Y-137005718D01*
X105619080Y-136993421D01*
X105599867Y-136979171D01*
X105582143Y-136963107D01*
X105566079Y-136945383D01*
X105551829Y-136926170D01*
X105539532Y-136905653D01*
X105529304Y-136884029D01*
X105521246Y-136861507D01*
X105515434Y-136838303D01*
X105511924Y-136814642D01*
X105510750Y-136790750D01*
X105510750Y-135878250D01*
X105511924Y-135854358D01*
X105515434Y-135830697D01*
X105521246Y-135807493D01*
X105529304Y-135784971D01*
X105539532Y-135763347D01*
X105551829Y-135742830D01*
X105566079Y-135723617D01*
X105582143Y-135705893D01*
X105599867Y-135689829D01*
X105619080Y-135675579D01*
X105639597Y-135663282D01*
X105661221Y-135653054D01*
X105683743Y-135644996D01*
X105706947Y-135639184D01*
X105730608Y-135635674D01*
X105754500Y-135634500D01*
X106242000Y-135634500D01*
X106265892Y-135635674D01*
X106265892Y-135635674D01*
G37*
D19*
X105998250Y-136334500D03*
D18*
G36*
X104390892Y-135635674D02*
G01*
X104414553Y-135639184D01*
X104437757Y-135644996D01*
X104460279Y-135653054D01*
X104481903Y-135663282D01*
X104502420Y-135675579D01*
X104521633Y-135689829D01*
X104539357Y-135705893D01*
X104555421Y-135723617D01*
X104569671Y-135742830D01*
X104581968Y-135763347D01*
X104592196Y-135784971D01*
X104600254Y-135807493D01*
X104606066Y-135830697D01*
X104609576Y-135854358D01*
X104610750Y-135878250D01*
X104610750Y-136790750D01*
X104609576Y-136814642D01*
X104606066Y-136838303D01*
X104600254Y-136861507D01*
X104592196Y-136884029D01*
X104581968Y-136905653D01*
X104569671Y-136926170D01*
X104555421Y-136945383D01*
X104539357Y-136963107D01*
X104521633Y-136979171D01*
X104502420Y-136993421D01*
X104481903Y-137005718D01*
X104460279Y-137015946D01*
X104437757Y-137024004D01*
X104414553Y-137029816D01*
X104390892Y-137033326D01*
X104367000Y-137034500D01*
X103879500Y-137034500D01*
X103855608Y-137033326D01*
X103831947Y-137029816D01*
X103808743Y-137024004D01*
X103786221Y-137015946D01*
X103764597Y-137005718D01*
X103744080Y-136993421D01*
X103724867Y-136979171D01*
X103707143Y-136963107D01*
X103691079Y-136945383D01*
X103676829Y-136926170D01*
X103664532Y-136905653D01*
X103654304Y-136884029D01*
X103646246Y-136861507D01*
X103640434Y-136838303D01*
X103636924Y-136814642D01*
X103635750Y-136790750D01*
X103635750Y-135878250D01*
X103636924Y-135854358D01*
X103640434Y-135830697D01*
X103646246Y-135807493D01*
X103654304Y-135784971D01*
X103664532Y-135763347D01*
X103676829Y-135742830D01*
X103691079Y-135723617D01*
X103707143Y-135705893D01*
X103724867Y-135689829D01*
X103744080Y-135675579D01*
X103764597Y-135663282D01*
X103786221Y-135653054D01*
X103808743Y-135644996D01*
X103831947Y-135639184D01*
X103855608Y-135635674D01*
X103879500Y-135634500D01*
X104367000Y-135634500D01*
X104390892Y-135635674D01*
X104390892Y-135635674D01*
G37*
D19*
X104123250Y-136334500D03*
D18*
G36*
X99000392Y-126211174D02*
G01*
X99024053Y-126214684D01*
X99047257Y-126220496D01*
X99069779Y-126228554D01*
X99091403Y-126238782D01*
X99111920Y-126251079D01*
X99131133Y-126265329D01*
X99148857Y-126281393D01*
X99164921Y-126299117D01*
X99179171Y-126318330D01*
X99191468Y-126338847D01*
X99201696Y-126360471D01*
X99209754Y-126382993D01*
X99215566Y-126406197D01*
X99219076Y-126429858D01*
X99220250Y-126453750D01*
X99220250Y-126941250D01*
X99219076Y-126965142D01*
X99215566Y-126988803D01*
X99209754Y-127012007D01*
X99201696Y-127034529D01*
X99191468Y-127056153D01*
X99179171Y-127076670D01*
X99164921Y-127095883D01*
X99148857Y-127113607D01*
X99131133Y-127129671D01*
X99111920Y-127143921D01*
X99091403Y-127156218D01*
X99069779Y-127166446D01*
X99047257Y-127174504D01*
X99024053Y-127180316D01*
X99000392Y-127183826D01*
X98976500Y-127185000D01*
X98064000Y-127185000D01*
X98040108Y-127183826D01*
X98016447Y-127180316D01*
X97993243Y-127174504D01*
X97970721Y-127166446D01*
X97949097Y-127156218D01*
X97928580Y-127143921D01*
X97909367Y-127129671D01*
X97891643Y-127113607D01*
X97875579Y-127095883D01*
X97861329Y-127076670D01*
X97849032Y-127056153D01*
X97838804Y-127034529D01*
X97830746Y-127012007D01*
X97824934Y-126988803D01*
X97821424Y-126965142D01*
X97820250Y-126941250D01*
X97820250Y-126453750D01*
X97821424Y-126429858D01*
X97824934Y-126406197D01*
X97830746Y-126382993D01*
X97838804Y-126360471D01*
X97849032Y-126338847D01*
X97861329Y-126318330D01*
X97875579Y-126299117D01*
X97891643Y-126281393D01*
X97909367Y-126265329D01*
X97928580Y-126251079D01*
X97949097Y-126238782D01*
X97970721Y-126228554D01*
X97993243Y-126220496D01*
X98016447Y-126214684D01*
X98040108Y-126211174D01*
X98064000Y-126210000D01*
X98976500Y-126210000D01*
X99000392Y-126211174D01*
X99000392Y-126211174D01*
G37*
D19*
X98520250Y-126697500D03*
D18*
G36*
X99000392Y-128086174D02*
G01*
X99024053Y-128089684D01*
X99047257Y-128095496D01*
X99069779Y-128103554D01*
X99091403Y-128113782D01*
X99111920Y-128126079D01*
X99131133Y-128140329D01*
X99148857Y-128156393D01*
X99164921Y-128174117D01*
X99179171Y-128193330D01*
X99191468Y-128213847D01*
X99201696Y-128235471D01*
X99209754Y-128257993D01*
X99215566Y-128281197D01*
X99219076Y-128304858D01*
X99220250Y-128328750D01*
X99220250Y-128816250D01*
X99219076Y-128840142D01*
X99215566Y-128863803D01*
X99209754Y-128887007D01*
X99201696Y-128909529D01*
X99191468Y-128931153D01*
X99179171Y-128951670D01*
X99164921Y-128970883D01*
X99148857Y-128988607D01*
X99131133Y-129004671D01*
X99111920Y-129018921D01*
X99091403Y-129031218D01*
X99069779Y-129041446D01*
X99047257Y-129049504D01*
X99024053Y-129055316D01*
X99000392Y-129058826D01*
X98976500Y-129060000D01*
X98064000Y-129060000D01*
X98040108Y-129058826D01*
X98016447Y-129055316D01*
X97993243Y-129049504D01*
X97970721Y-129041446D01*
X97949097Y-129031218D01*
X97928580Y-129018921D01*
X97909367Y-129004671D01*
X97891643Y-128988607D01*
X97875579Y-128970883D01*
X97861329Y-128951670D01*
X97849032Y-128931153D01*
X97838804Y-128909529D01*
X97830746Y-128887007D01*
X97824934Y-128863803D01*
X97821424Y-128840142D01*
X97820250Y-128816250D01*
X97820250Y-128328750D01*
X97821424Y-128304858D01*
X97824934Y-128281197D01*
X97830746Y-128257993D01*
X97838804Y-128235471D01*
X97849032Y-128213847D01*
X97861329Y-128193330D01*
X97875579Y-128174117D01*
X97891643Y-128156393D01*
X97909367Y-128140329D01*
X97928580Y-128126079D01*
X97949097Y-128113782D01*
X97970721Y-128103554D01*
X97993243Y-128095496D01*
X98016447Y-128089684D01*
X98040108Y-128086174D01*
X98064000Y-128085000D01*
X98976500Y-128085000D01*
X99000392Y-128086174D01*
X99000392Y-128086174D01*
G37*
D19*
X98520250Y-128572500D03*
D18*
G36*
X94759692Y-149250074D02*
G01*
X94783353Y-149253584D01*
X94806557Y-149259396D01*
X94829079Y-149267454D01*
X94850703Y-149277682D01*
X94871220Y-149289979D01*
X94890433Y-149304229D01*
X94908157Y-149320293D01*
X94924221Y-149338017D01*
X94938471Y-149357230D01*
X94950768Y-149377747D01*
X94960996Y-149399371D01*
X94969054Y-149421893D01*
X94974866Y-149445097D01*
X94978376Y-149468758D01*
X94979550Y-149492650D01*
X94979550Y-150405150D01*
X94978376Y-150429042D01*
X94974866Y-150452703D01*
X94969054Y-150475907D01*
X94960996Y-150498429D01*
X94950768Y-150520053D01*
X94938471Y-150540570D01*
X94924221Y-150559783D01*
X94908157Y-150577507D01*
X94890433Y-150593571D01*
X94871220Y-150607821D01*
X94850703Y-150620118D01*
X94829079Y-150630346D01*
X94806557Y-150638404D01*
X94783353Y-150644216D01*
X94759692Y-150647726D01*
X94735800Y-150648900D01*
X94248300Y-150648900D01*
X94224408Y-150647726D01*
X94200747Y-150644216D01*
X94177543Y-150638404D01*
X94155021Y-150630346D01*
X94133397Y-150620118D01*
X94112880Y-150607821D01*
X94093667Y-150593571D01*
X94075943Y-150577507D01*
X94059879Y-150559783D01*
X94045629Y-150540570D01*
X94033332Y-150520053D01*
X94023104Y-150498429D01*
X94015046Y-150475907D01*
X94009234Y-150452703D01*
X94005724Y-150429042D01*
X94004550Y-150405150D01*
X94004550Y-149492650D01*
X94005724Y-149468758D01*
X94009234Y-149445097D01*
X94015046Y-149421893D01*
X94023104Y-149399371D01*
X94033332Y-149377747D01*
X94045629Y-149357230D01*
X94059879Y-149338017D01*
X94075943Y-149320293D01*
X94093667Y-149304229D01*
X94112880Y-149289979D01*
X94133397Y-149277682D01*
X94155021Y-149267454D01*
X94177543Y-149259396D01*
X94200747Y-149253584D01*
X94224408Y-149250074D01*
X94248300Y-149248900D01*
X94735800Y-149248900D01*
X94759692Y-149250074D01*
X94759692Y-149250074D01*
G37*
D19*
X94492050Y-149948900D03*
D18*
G36*
X92884692Y-149250074D02*
G01*
X92908353Y-149253584D01*
X92931557Y-149259396D01*
X92954079Y-149267454D01*
X92975703Y-149277682D01*
X92996220Y-149289979D01*
X93015433Y-149304229D01*
X93033157Y-149320293D01*
X93049221Y-149338017D01*
X93063471Y-149357230D01*
X93075768Y-149377747D01*
X93085996Y-149399371D01*
X93094054Y-149421893D01*
X93099866Y-149445097D01*
X93103376Y-149468758D01*
X93104550Y-149492650D01*
X93104550Y-150405150D01*
X93103376Y-150429042D01*
X93099866Y-150452703D01*
X93094054Y-150475907D01*
X93085996Y-150498429D01*
X93075768Y-150520053D01*
X93063471Y-150540570D01*
X93049221Y-150559783D01*
X93033157Y-150577507D01*
X93015433Y-150593571D01*
X92996220Y-150607821D01*
X92975703Y-150620118D01*
X92954079Y-150630346D01*
X92931557Y-150638404D01*
X92908353Y-150644216D01*
X92884692Y-150647726D01*
X92860800Y-150648900D01*
X92373300Y-150648900D01*
X92349408Y-150647726D01*
X92325747Y-150644216D01*
X92302543Y-150638404D01*
X92280021Y-150630346D01*
X92258397Y-150620118D01*
X92237880Y-150607821D01*
X92218667Y-150593571D01*
X92200943Y-150577507D01*
X92184879Y-150559783D01*
X92170629Y-150540570D01*
X92158332Y-150520053D01*
X92148104Y-150498429D01*
X92140046Y-150475907D01*
X92134234Y-150452703D01*
X92130724Y-150429042D01*
X92129550Y-150405150D01*
X92129550Y-149492650D01*
X92130724Y-149468758D01*
X92134234Y-149445097D01*
X92140046Y-149421893D01*
X92148104Y-149399371D01*
X92158332Y-149377747D01*
X92170629Y-149357230D01*
X92184879Y-149338017D01*
X92200943Y-149320293D01*
X92218667Y-149304229D01*
X92237880Y-149289979D01*
X92258397Y-149277682D01*
X92280021Y-149267454D01*
X92302543Y-149259396D01*
X92325747Y-149253584D01*
X92349408Y-149250074D01*
X92373300Y-149248900D01*
X92860800Y-149248900D01*
X92884692Y-149250074D01*
X92884692Y-149250074D01*
G37*
D19*
X92617050Y-149948900D03*
D18*
G36*
X91316892Y-149739674D02*
G01*
X91340553Y-149743184D01*
X91363757Y-149748996D01*
X91386279Y-149757054D01*
X91407903Y-149767282D01*
X91428420Y-149779579D01*
X91447633Y-149793829D01*
X91465357Y-149809893D01*
X91481421Y-149827617D01*
X91495671Y-149846830D01*
X91507968Y-149867347D01*
X91518196Y-149888971D01*
X91526254Y-149911493D01*
X91532066Y-149934697D01*
X91535576Y-149958358D01*
X91536750Y-149982250D01*
X91536750Y-150469750D01*
X91535576Y-150493642D01*
X91532066Y-150517303D01*
X91526254Y-150540507D01*
X91518196Y-150563029D01*
X91507968Y-150584653D01*
X91495671Y-150605170D01*
X91481421Y-150624383D01*
X91465357Y-150642107D01*
X91447633Y-150658171D01*
X91428420Y-150672421D01*
X91407903Y-150684718D01*
X91386279Y-150694946D01*
X91363757Y-150703004D01*
X91340553Y-150708816D01*
X91316892Y-150712326D01*
X91293000Y-150713500D01*
X90380500Y-150713500D01*
X90356608Y-150712326D01*
X90332947Y-150708816D01*
X90309743Y-150703004D01*
X90287221Y-150694946D01*
X90265597Y-150684718D01*
X90245080Y-150672421D01*
X90225867Y-150658171D01*
X90208143Y-150642107D01*
X90192079Y-150624383D01*
X90177829Y-150605170D01*
X90165532Y-150584653D01*
X90155304Y-150563029D01*
X90147246Y-150540507D01*
X90141434Y-150517303D01*
X90137924Y-150493642D01*
X90136750Y-150469750D01*
X90136750Y-149982250D01*
X90137924Y-149958358D01*
X90141434Y-149934697D01*
X90147246Y-149911493D01*
X90155304Y-149888971D01*
X90165532Y-149867347D01*
X90177829Y-149846830D01*
X90192079Y-149827617D01*
X90208143Y-149809893D01*
X90225867Y-149793829D01*
X90245080Y-149779579D01*
X90265597Y-149767282D01*
X90287221Y-149757054D01*
X90309743Y-149748996D01*
X90332947Y-149743184D01*
X90356608Y-149739674D01*
X90380500Y-149738500D01*
X91293000Y-149738500D01*
X91316892Y-149739674D01*
X91316892Y-149739674D01*
G37*
D19*
X90836750Y-150226000D03*
D18*
G36*
X91316892Y-147864674D02*
G01*
X91340553Y-147868184D01*
X91363757Y-147873996D01*
X91386279Y-147882054D01*
X91407903Y-147892282D01*
X91428420Y-147904579D01*
X91447633Y-147918829D01*
X91465357Y-147934893D01*
X91481421Y-147952617D01*
X91495671Y-147971830D01*
X91507968Y-147992347D01*
X91518196Y-148013971D01*
X91526254Y-148036493D01*
X91532066Y-148059697D01*
X91535576Y-148083358D01*
X91536750Y-148107250D01*
X91536750Y-148594750D01*
X91535576Y-148618642D01*
X91532066Y-148642303D01*
X91526254Y-148665507D01*
X91518196Y-148688029D01*
X91507968Y-148709653D01*
X91495671Y-148730170D01*
X91481421Y-148749383D01*
X91465357Y-148767107D01*
X91447633Y-148783171D01*
X91428420Y-148797421D01*
X91407903Y-148809718D01*
X91386279Y-148819946D01*
X91363757Y-148828004D01*
X91340553Y-148833816D01*
X91316892Y-148837326D01*
X91293000Y-148838500D01*
X90380500Y-148838500D01*
X90356608Y-148837326D01*
X90332947Y-148833816D01*
X90309743Y-148828004D01*
X90287221Y-148819946D01*
X90265597Y-148809718D01*
X90245080Y-148797421D01*
X90225867Y-148783171D01*
X90208143Y-148767107D01*
X90192079Y-148749383D01*
X90177829Y-148730170D01*
X90165532Y-148709653D01*
X90155304Y-148688029D01*
X90147246Y-148665507D01*
X90141434Y-148642303D01*
X90137924Y-148618642D01*
X90136750Y-148594750D01*
X90136750Y-148107250D01*
X90137924Y-148083358D01*
X90141434Y-148059697D01*
X90147246Y-148036493D01*
X90155304Y-148013971D01*
X90165532Y-147992347D01*
X90177829Y-147971830D01*
X90192079Y-147952617D01*
X90208143Y-147934893D01*
X90225867Y-147918829D01*
X90245080Y-147904579D01*
X90265597Y-147892282D01*
X90287221Y-147882054D01*
X90309743Y-147873996D01*
X90332947Y-147868184D01*
X90356608Y-147864674D01*
X90380500Y-147863500D01*
X91293000Y-147863500D01*
X91316892Y-147864674D01*
X91316892Y-147864674D01*
G37*
D19*
X90836750Y-148351000D03*
D18*
G36*
X100683142Y-146340674D02*
G01*
X100706803Y-146344184D01*
X100730007Y-146349996D01*
X100752529Y-146358054D01*
X100774153Y-146368282D01*
X100794670Y-146380579D01*
X100813883Y-146394829D01*
X100831607Y-146410893D01*
X100847671Y-146428617D01*
X100861921Y-146447830D01*
X100874218Y-146468347D01*
X100884446Y-146489971D01*
X100892504Y-146512493D01*
X100898316Y-146535697D01*
X100901826Y-146559358D01*
X100903000Y-146583250D01*
X100903000Y-147070750D01*
X100901826Y-147094642D01*
X100898316Y-147118303D01*
X100892504Y-147141507D01*
X100884446Y-147164029D01*
X100874218Y-147185653D01*
X100861921Y-147206170D01*
X100847671Y-147225383D01*
X100831607Y-147243107D01*
X100813883Y-147259171D01*
X100794670Y-147273421D01*
X100774153Y-147285718D01*
X100752529Y-147295946D01*
X100730007Y-147304004D01*
X100706803Y-147309816D01*
X100683142Y-147313326D01*
X100659250Y-147314500D01*
X99746750Y-147314500D01*
X99722858Y-147313326D01*
X99699197Y-147309816D01*
X99675993Y-147304004D01*
X99653471Y-147295946D01*
X99631847Y-147285718D01*
X99611330Y-147273421D01*
X99592117Y-147259171D01*
X99574393Y-147243107D01*
X99558329Y-147225383D01*
X99544079Y-147206170D01*
X99531782Y-147185653D01*
X99521554Y-147164029D01*
X99513496Y-147141507D01*
X99507684Y-147118303D01*
X99504174Y-147094642D01*
X99503000Y-147070750D01*
X99503000Y-146583250D01*
X99504174Y-146559358D01*
X99507684Y-146535697D01*
X99513496Y-146512493D01*
X99521554Y-146489971D01*
X99531782Y-146468347D01*
X99544079Y-146447830D01*
X99558329Y-146428617D01*
X99574393Y-146410893D01*
X99592117Y-146394829D01*
X99611330Y-146380579D01*
X99631847Y-146368282D01*
X99653471Y-146358054D01*
X99675993Y-146349996D01*
X99699197Y-146344184D01*
X99722858Y-146340674D01*
X99746750Y-146339500D01*
X100659250Y-146339500D01*
X100683142Y-146340674D01*
X100683142Y-146340674D01*
G37*
D19*
X100203000Y-146827000D03*
D18*
G36*
X100683142Y-148215674D02*
G01*
X100706803Y-148219184D01*
X100730007Y-148224996D01*
X100752529Y-148233054D01*
X100774153Y-148243282D01*
X100794670Y-148255579D01*
X100813883Y-148269829D01*
X100831607Y-148285893D01*
X100847671Y-148303617D01*
X100861921Y-148322830D01*
X100874218Y-148343347D01*
X100884446Y-148364971D01*
X100892504Y-148387493D01*
X100898316Y-148410697D01*
X100901826Y-148434358D01*
X100903000Y-148458250D01*
X100903000Y-148945750D01*
X100901826Y-148969642D01*
X100898316Y-148993303D01*
X100892504Y-149016507D01*
X100884446Y-149039029D01*
X100874218Y-149060653D01*
X100861921Y-149081170D01*
X100847671Y-149100383D01*
X100831607Y-149118107D01*
X100813883Y-149134171D01*
X100794670Y-149148421D01*
X100774153Y-149160718D01*
X100752529Y-149170946D01*
X100730007Y-149179004D01*
X100706803Y-149184816D01*
X100683142Y-149188326D01*
X100659250Y-149189500D01*
X99746750Y-149189500D01*
X99722858Y-149188326D01*
X99699197Y-149184816D01*
X99675993Y-149179004D01*
X99653471Y-149170946D01*
X99631847Y-149160718D01*
X99611330Y-149148421D01*
X99592117Y-149134171D01*
X99574393Y-149118107D01*
X99558329Y-149100383D01*
X99544079Y-149081170D01*
X99531782Y-149060653D01*
X99521554Y-149039029D01*
X99513496Y-149016507D01*
X99507684Y-148993303D01*
X99504174Y-148969642D01*
X99503000Y-148945750D01*
X99503000Y-148458250D01*
X99504174Y-148434358D01*
X99507684Y-148410697D01*
X99513496Y-148387493D01*
X99521554Y-148364971D01*
X99531782Y-148343347D01*
X99544079Y-148322830D01*
X99558329Y-148303617D01*
X99574393Y-148285893D01*
X99592117Y-148269829D01*
X99611330Y-148255579D01*
X99631847Y-148243282D01*
X99653471Y-148233054D01*
X99675993Y-148224996D01*
X99699197Y-148219184D01*
X99722858Y-148215674D01*
X99746750Y-148214500D01*
X100659250Y-148214500D01*
X100683142Y-148215674D01*
X100683142Y-148215674D01*
G37*
D19*
X100203000Y-148702000D03*
D18*
G36*
X89284892Y-126274674D02*
G01*
X89308553Y-126278184D01*
X89331757Y-126283996D01*
X89354279Y-126292054D01*
X89375903Y-126302282D01*
X89396420Y-126314579D01*
X89415633Y-126328829D01*
X89433357Y-126344893D01*
X89449421Y-126362617D01*
X89463671Y-126381830D01*
X89475968Y-126402347D01*
X89486196Y-126423971D01*
X89494254Y-126446493D01*
X89500066Y-126469697D01*
X89503576Y-126493358D01*
X89504750Y-126517250D01*
X89504750Y-127004750D01*
X89503576Y-127028642D01*
X89500066Y-127052303D01*
X89494254Y-127075507D01*
X89486196Y-127098029D01*
X89475968Y-127119653D01*
X89463671Y-127140170D01*
X89449421Y-127159383D01*
X89433357Y-127177107D01*
X89415633Y-127193171D01*
X89396420Y-127207421D01*
X89375903Y-127219718D01*
X89354279Y-127229946D01*
X89331757Y-127238004D01*
X89308553Y-127243816D01*
X89284892Y-127247326D01*
X89261000Y-127248500D01*
X88348500Y-127248500D01*
X88324608Y-127247326D01*
X88300947Y-127243816D01*
X88277743Y-127238004D01*
X88255221Y-127229946D01*
X88233597Y-127219718D01*
X88213080Y-127207421D01*
X88193867Y-127193171D01*
X88176143Y-127177107D01*
X88160079Y-127159383D01*
X88145829Y-127140170D01*
X88133532Y-127119653D01*
X88123304Y-127098029D01*
X88115246Y-127075507D01*
X88109434Y-127052303D01*
X88105924Y-127028642D01*
X88104750Y-127004750D01*
X88104750Y-126517250D01*
X88105924Y-126493358D01*
X88109434Y-126469697D01*
X88115246Y-126446493D01*
X88123304Y-126423971D01*
X88133532Y-126402347D01*
X88145829Y-126381830D01*
X88160079Y-126362617D01*
X88176143Y-126344893D01*
X88193867Y-126328829D01*
X88213080Y-126314579D01*
X88233597Y-126302282D01*
X88255221Y-126292054D01*
X88277743Y-126283996D01*
X88300947Y-126278184D01*
X88324608Y-126274674D01*
X88348500Y-126273500D01*
X89261000Y-126273500D01*
X89284892Y-126274674D01*
X89284892Y-126274674D01*
G37*
D19*
X88804750Y-126761000D03*
D18*
G36*
X89284892Y-128149674D02*
G01*
X89308553Y-128153184D01*
X89331757Y-128158996D01*
X89354279Y-128167054D01*
X89375903Y-128177282D01*
X89396420Y-128189579D01*
X89415633Y-128203829D01*
X89433357Y-128219893D01*
X89449421Y-128237617D01*
X89463671Y-128256830D01*
X89475968Y-128277347D01*
X89486196Y-128298971D01*
X89494254Y-128321493D01*
X89500066Y-128344697D01*
X89503576Y-128368358D01*
X89504750Y-128392250D01*
X89504750Y-128879750D01*
X89503576Y-128903642D01*
X89500066Y-128927303D01*
X89494254Y-128950507D01*
X89486196Y-128973029D01*
X89475968Y-128994653D01*
X89463671Y-129015170D01*
X89449421Y-129034383D01*
X89433357Y-129052107D01*
X89415633Y-129068171D01*
X89396420Y-129082421D01*
X89375903Y-129094718D01*
X89354279Y-129104946D01*
X89331757Y-129113004D01*
X89308553Y-129118816D01*
X89284892Y-129122326D01*
X89261000Y-129123500D01*
X88348500Y-129123500D01*
X88324608Y-129122326D01*
X88300947Y-129118816D01*
X88277743Y-129113004D01*
X88255221Y-129104946D01*
X88233597Y-129094718D01*
X88213080Y-129082421D01*
X88193867Y-129068171D01*
X88176143Y-129052107D01*
X88160079Y-129034383D01*
X88145829Y-129015170D01*
X88133532Y-128994653D01*
X88123304Y-128973029D01*
X88115246Y-128950507D01*
X88109434Y-128927303D01*
X88105924Y-128903642D01*
X88104750Y-128879750D01*
X88104750Y-128392250D01*
X88105924Y-128368358D01*
X88109434Y-128344697D01*
X88115246Y-128321493D01*
X88123304Y-128298971D01*
X88133532Y-128277347D01*
X88145829Y-128256830D01*
X88160079Y-128237617D01*
X88176143Y-128219893D01*
X88193867Y-128203829D01*
X88213080Y-128189579D01*
X88233597Y-128177282D01*
X88255221Y-128167054D01*
X88277743Y-128158996D01*
X88300947Y-128153184D01*
X88324608Y-128149674D01*
X88348500Y-128148500D01*
X89261000Y-128148500D01*
X89284892Y-128149674D01*
X89284892Y-128149674D01*
G37*
D19*
X88804750Y-128636000D03*
D18*
G36*
X85805092Y-141304574D02*
G01*
X85828753Y-141308084D01*
X85851957Y-141313896D01*
X85874479Y-141321954D01*
X85896103Y-141332182D01*
X85916620Y-141344479D01*
X85935833Y-141358729D01*
X85953557Y-141374793D01*
X85969621Y-141392517D01*
X85983871Y-141411730D01*
X85996168Y-141432247D01*
X86006396Y-141453871D01*
X86014454Y-141476393D01*
X86020266Y-141499597D01*
X86023776Y-141523258D01*
X86024950Y-141547150D01*
X86024950Y-142034650D01*
X86023776Y-142058542D01*
X86020266Y-142082203D01*
X86014454Y-142105407D01*
X86006396Y-142127929D01*
X85996168Y-142149553D01*
X85983871Y-142170070D01*
X85969621Y-142189283D01*
X85953557Y-142207007D01*
X85935833Y-142223071D01*
X85916620Y-142237321D01*
X85896103Y-142249618D01*
X85874479Y-142259846D01*
X85851957Y-142267904D01*
X85828753Y-142273716D01*
X85805092Y-142277226D01*
X85781200Y-142278400D01*
X84868700Y-142278400D01*
X84844808Y-142277226D01*
X84821147Y-142273716D01*
X84797943Y-142267904D01*
X84775421Y-142259846D01*
X84753797Y-142249618D01*
X84733280Y-142237321D01*
X84714067Y-142223071D01*
X84696343Y-142207007D01*
X84680279Y-142189283D01*
X84666029Y-142170070D01*
X84653732Y-142149553D01*
X84643504Y-142127929D01*
X84635446Y-142105407D01*
X84629634Y-142082203D01*
X84626124Y-142058542D01*
X84624950Y-142034650D01*
X84624950Y-141547150D01*
X84626124Y-141523258D01*
X84629634Y-141499597D01*
X84635446Y-141476393D01*
X84643504Y-141453871D01*
X84653732Y-141432247D01*
X84666029Y-141411730D01*
X84680279Y-141392517D01*
X84696343Y-141374793D01*
X84714067Y-141358729D01*
X84733280Y-141344479D01*
X84753797Y-141332182D01*
X84775421Y-141321954D01*
X84797943Y-141313896D01*
X84821147Y-141308084D01*
X84844808Y-141304574D01*
X84868700Y-141303400D01*
X85781200Y-141303400D01*
X85805092Y-141304574D01*
X85805092Y-141304574D01*
G37*
D19*
X85324950Y-141790900D03*
D18*
G36*
X85805092Y-139429574D02*
G01*
X85828753Y-139433084D01*
X85851957Y-139438896D01*
X85874479Y-139446954D01*
X85896103Y-139457182D01*
X85916620Y-139469479D01*
X85935833Y-139483729D01*
X85953557Y-139499793D01*
X85969621Y-139517517D01*
X85983871Y-139536730D01*
X85996168Y-139557247D01*
X86006396Y-139578871D01*
X86014454Y-139601393D01*
X86020266Y-139624597D01*
X86023776Y-139648258D01*
X86024950Y-139672150D01*
X86024950Y-140159650D01*
X86023776Y-140183542D01*
X86020266Y-140207203D01*
X86014454Y-140230407D01*
X86006396Y-140252929D01*
X85996168Y-140274553D01*
X85983871Y-140295070D01*
X85969621Y-140314283D01*
X85953557Y-140332007D01*
X85935833Y-140348071D01*
X85916620Y-140362321D01*
X85896103Y-140374618D01*
X85874479Y-140384846D01*
X85851957Y-140392904D01*
X85828753Y-140398716D01*
X85805092Y-140402226D01*
X85781200Y-140403400D01*
X84868700Y-140403400D01*
X84844808Y-140402226D01*
X84821147Y-140398716D01*
X84797943Y-140392904D01*
X84775421Y-140384846D01*
X84753797Y-140374618D01*
X84733280Y-140362321D01*
X84714067Y-140348071D01*
X84696343Y-140332007D01*
X84680279Y-140314283D01*
X84666029Y-140295070D01*
X84653732Y-140274553D01*
X84643504Y-140252929D01*
X84635446Y-140230407D01*
X84629634Y-140207203D01*
X84626124Y-140183542D01*
X84624950Y-140159650D01*
X84624950Y-139672150D01*
X84626124Y-139648258D01*
X84629634Y-139624597D01*
X84635446Y-139601393D01*
X84643504Y-139578871D01*
X84653732Y-139557247D01*
X84666029Y-139536730D01*
X84680279Y-139517517D01*
X84696343Y-139499793D01*
X84714067Y-139483729D01*
X84733280Y-139469479D01*
X84753797Y-139457182D01*
X84775421Y-139446954D01*
X84797943Y-139438896D01*
X84821147Y-139433084D01*
X84844808Y-139429574D01*
X84868700Y-139428400D01*
X85781200Y-139428400D01*
X85805092Y-139429574D01*
X85805092Y-139429574D01*
G37*
D19*
X85324950Y-139915900D03*
D26*
X86899750Y-128714500D03*
X100742750Y-133413500D03*
X100996750Y-137477500D03*
X100757750Y-128572500D03*
X85375750Y-138620500D03*
X98608742Y-144088501D03*
X96774000Y-127635000D03*
X70739000Y-131572000D03*
X64770000Y-100330000D03*
X72390000Y-131144750D03*
X68834000Y-116459000D03*
X72009000Y-130175000D03*
X70485000Y-117856000D03*
X71374000Y-132594751D03*
X73533000Y-148971000D03*
X72263000Y-133319751D03*
X70993000Y-161671000D03*
X73025000Y-134366000D03*
X65532000Y-168910000D03*
X107473750Y-133032500D03*
X113538000Y-130683000D03*
X227950520Y-129286000D03*
X218694000Y-76835000D03*
X86741000Y-121285000D03*
X102489000Y-115951000D03*
X103505000Y-115951000D03*
X112395000Y-115951000D03*
X114427000Y-115570000D03*
X104059701Y-116783051D03*
X113139314Y-116653650D03*
X133199778Y-115593222D03*
X104648000Y-117729000D03*
X109093000Y-117729000D03*
X160401000Y-116332000D03*
X96932750Y-137477500D03*
X101981000Y-129667000D03*
X107823000Y-129540000D03*
X115316000Y-129413000D03*
X118491000Y-129413000D03*
X121666000Y-136017000D03*
X194564000Y-138049000D03*
X96970472Y-138540528D03*
X103124000Y-133813490D03*
X106426000Y-133813490D03*
X115697000Y-139573000D03*
X121793000Y-156845000D03*
X218567000Y-155448000D03*
X96917786Y-139539141D03*
X107950000Y-165481000D03*
X244729000Y-166751000D03*
X96949052Y-140538655D03*
X107061000Y-165989000D03*
X261112000Y-164465000D03*
X93249750Y-140398500D03*
X92710000Y-157493750D03*
X94365653Y-161158347D03*
X87506654Y-168024654D03*
X281051000Y-173228000D03*
X92237096Y-140385849D03*
X90932000Y-156718000D03*
X93095653Y-159888347D03*
X85471000Y-168021000D03*
X300355000Y-172974000D03*
X301879000Y-169799000D03*
X300482000Y-166243000D03*
X91212734Y-140390660D03*
X84080140Y-168027140D03*
X291211000Y-177927000D03*
X90212854Y-140406245D03*
X81407000Y-168148000D03*
X316103000Y-185039000D03*
X89212902Y-140396228D03*
X80264000Y-168148000D03*
X331343000Y-185674000D03*
X80391000Y-135636000D03*
X84201000Y-79375000D03*
X352933000Y-80010000D03*
X217937159Y-77710797D03*
X227500510Y-134321652D03*
X216920528Y-77719472D03*
X227076000Y-135255000D03*
X110752597Y-141564653D03*
X226250500Y-136842500D03*
X215646000Y-78142000D03*
D27*
X89234250Y-130746000D02*
X89376750Y-130888500D01*
X87549350Y-139915900D02*
X87676750Y-139788500D01*
X86978250Y-128636000D02*
X86899750Y-128714500D01*
X100717750Y-133388500D02*
X100742750Y-133413500D01*
X85324950Y-138671300D02*
X85375750Y-138620500D01*
X95776750Y-142288500D02*
X95776750Y-143098502D01*
X95776750Y-143098502D02*
X96491759Y-143813511D01*
X100361750Y-145160412D02*
X100361750Y-146827000D01*
X102139750Y-146827000D02*
X100361750Y-146827000D01*
X96491759Y-143813511D02*
X98333752Y-143813511D01*
X98333752Y-143813511D02*
X98608742Y-144088501D01*
X99680653Y-145160412D02*
X98608742Y-144088501D01*
X100361750Y-145160412D02*
X99680653Y-145160412D01*
D28*
X100907750Y-137388500D02*
X100996750Y-137477500D01*
X99076750Y-137388500D02*
X100907750Y-137388500D01*
X102266750Y-131889500D02*
X100742750Y-133413500D01*
X103533750Y-131889500D02*
X102266750Y-131889500D01*
X99101750Y-133413500D02*
X99076750Y-133388500D01*
X100742750Y-133413500D02*
X99101750Y-133413500D01*
X98520250Y-129745000D02*
X97376750Y-130888500D01*
X98520250Y-128572500D02*
X98520250Y-129745000D01*
X88804750Y-130316500D02*
X89376750Y-130888500D01*
X88804750Y-128636000D02*
X88804750Y-130316500D01*
X88726250Y-128714500D02*
X88804750Y-128636000D01*
X86899750Y-128714500D02*
X88726250Y-128714500D01*
X85452350Y-139788500D02*
X85324950Y-139915900D01*
X87676750Y-139788500D02*
X85452350Y-139788500D01*
X85375750Y-139865100D02*
X85324950Y-139915900D01*
X85375750Y-138620500D02*
X85375750Y-139865100D01*
X98520250Y-128572500D02*
X97711500Y-128572500D01*
X97711500Y-128572500D02*
X96774000Y-127635000D01*
D27*
X90836750Y-148351000D02*
X92151250Y-148351000D01*
X93376750Y-142288500D02*
X93376750Y-144081500D01*
X93376750Y-144081500D02*
X92834751Y-144623499D01*
X91793749Y-144623499D02*
X90836750Y-145580498D01*
X92834751Y-144623499D02*
X91793749Y-144623499D01*
X90836750Y-145580498D02*
X90836750Y-148351000D01*
X95278751Y-146673501D02*
X95278751Y-149162199D01*
X94353750Y-145748500D02*
X95278751Y-146673501D01*
X94176750Y-145471500D02*
X94353750Y-145648500D01*
X94176750Y-142288500D02*
X94176750Y-145471500D01*
X95278751Y-149162199D02*
X94492050Y-149948900D01*
X103869250Y-136588500D02*
X104123250Y-136334500D01*
X99076750Y-136588500D02*
X103869250Y-136588500D01*
X367061750Y-95022500D02*
X81311750Y-95022500D01*
X81196751Y-131869751D02*
X71076249Y-131869751D01*
X71076249Y-131869751D02*
X70778498Y-131572000D01*
X70778498Y-131572000D02*
X70739000Y-131572000D01*
X81311750Y-95022500D02*
X70077500Y-95022500D01*
X70077500Y-95022500D02*
X64770000Y-100330000D01*
X86676750Y-134988500D02*
X85078982Y-133390732D01*
X87676750Y-134988500D02*
X86676750Y-134988500D01*
X82307020Y-132980020D02*
X82105500Y-132778500D01*
X84974020Y-132980020D02*
X82307020Y-132980020D01*
X85078982Y-133084982D02*
X84974020Y-132980020D01*
X85078982Y-133390732D02*
X85078982Y-133084982D01*
X82105500Y-132778500D02*
X81196751Y-131869751D01*
X81311750Y-114072500D02*
X309911750Y-114072500D01*
X348011750Y-115122500D02*
X346865750Y-116268500D01*
X348011750Y-114072500D02*
X348011750Y-115122500D01*
X310961750Y-114072500D02*
X309911750Y-114072500D01*
X313157750Y-116268500D02*
X310961750Y-114072500D01*
X346865750Y-116268500D02*
X313157750Y-116268500D01*
X348011750Y-114072500D02*
X367061750Y-114072500D01*
X81280000Y-130937000D02*
X72597750Y-130937000D01*
X72597750Y-130937000D02*
X72390000Y-131144750D01*
X80261750Y-114072500D02*
X79526250Y-114808000D01*
X81311750Y-114072500D02*
X80261750Y-114072500D01*
X79526250Y-114808000D02*
X70485000Y-114808000D01*
X70485000Y-114808000D02*
X68834000Y-116459000D01*
X86840340Y-134188500D02*
X85528991Y-132877151D01*
X87676750Y-134188500D02*
X86840340Y-134188500D01*
X82873010Y-132530010D02*
X82867500Y-132524500D01*
X85413010Y-132530010D02*
X82873010Y-132530010D01*
X85528991Y-132645991D02*
X85413010Y-132530010D01*
X85528991Y-132877151D02*
X85528991Y-132645991D01*
X82867500Y-132524500D02*
X81280000Y-130937000D01*
X82095900Y-120118750D02*
X84625350Y-117589300D01*
X80287500Y-120118750D02*
X82095900Y-120118750D01*
X367061750Y-133122500D02*
X109886750Y-133122500D01*
X109886750Y-132072500D02*
X109886750Y-133122500D01*
X112401350Y-129557900D02*
X109886750Y-132072500D01*
X112401350Y-123761500D02*
X112401350Y-129557900D01*
X71876701Y-116464299D02*
X70485000Y-117856000D01*
X90250349Y-116464299D02*
X71876701Y-116464299D01*
X92425350Y-117589300D02*
X91375350Y-117589300D01*
X91375350Y-117589300D02*
X90250349Y-116464299D01*
X92425350Y-116539300D02*
X94283650Y-114681000D01*
X92425350Y-117589300D02*
X92425350Y-116539300D01*
X94283650Y-114681000D02*
X98806000Y-114681000D01*
X98806000Y-114681000D02*
X98806000Y-114701752D01*
X103320850Y-114681000D02*
X106587925Y-117948075D01*
X101981000Y-114681000D02*
X103320850Y-114681000D01*
X106051350Y-117411500D02*
X106587925Y-117948075D01*
X106587925Y-117948075D02*
X112401350Y-123761500D01*
X98806000Y-114681000D02*
X98806000Y-114935000D01*
X98806000Y-114935000D02*
X99314000Y-115443000D01*
X101219000Y-115443000D02*
X101981000Y-114681000D01*
X99314000Y-115443000D02*
X101219000Y-115443000D01*
X86676750Y-133388500D02*
X87676750Y-133388500D01*
X72009000Y-130175000D02*
X72253750Y-130419750D01*
X72253750Y-130419750D02*
X81876900Y-130419750D01*
X81876900Y-130419750D02*
X83537150Y-132080000D01*
X83537150Y-132080000D02*
X85979000Y-132080000D01*
X85979000Y-132080000D02*
X85979000Y-132690750D01*
X85979000Y-132690750D02*
X86676750Y-133388500D01*
X114585750Y-152172500D02*
X312795750Y-152172500D01*
X334896750Y-152045500D02*
X335946750Y-152045500D01*
X332699599Y-154242651D02*
X334896750Y-152045500D01*
X314865901Y-154242651D02*
X332699599Y-154242651D01*
X312795750Y-152172500D02*
X314865901Y-154242651D01*
X367061750Y-152172500D02*
X345000750Y-152172500D01*
X345000750Y-152172500D02*
X342296750Y-154876500D01*
X335946750Y-153095500D02*
X335946750Y-152045500D01*
X337727750Y-154876500D02*
X335946750Y-153095500D01*
X342296750Y-154876500D02*
X337727750Y-154876500D01*
X83216750Y-154026700D02*
X86202350Y-154026700D01*
X86202350Y-154026700D02*
X91598750Y-159423100D01*
X113535750Y-152172500D02*
X114585750Y-152172500D01*
X80524751Y-132594751D02*
X71374000Y-132594751D01*
X83216750Y-154026700D02*
X78588700Y-154026700D01*
X78588700Y-154026700D02*
X73533000Y-148971000D01*
X367061750Y-171222500D02*
X105060750Y-171222500D01*
X104010750Y-171222500D02*
X99539250Y-166751000D01*
X105060750Y-171222500D02*
X104010750Y-171222500D01*
X99539250Y-166751000D02*
X78867000Y-166751000D01*
X78867000Y-166751000D02*
X73787000Y-161671000D01*
X73787000Y-161671000D02*
X70993000Y-161671000D01*
X86010750Y-190272500D02*
X133508750Y-190272500D01*
X133508750Y-190272500D02*
X136392750Y-187388500D01*
X201673750Y-190272500D02*
X202723750Y-190272500D01*
X198789750Y-187388500D02*
X201673750Y-190272500D01*
X136392750Y-187388500D02*
X198789750Y-187388500D01*
X202723750Y-190272500D02*
X238246750Y-190272500D01*
X238246750Y-190272500D02*
X241511750Y-187007500D01*
X275587750Y-190272500D02*
X276637750Y-190272500D01*
X272322750Y-187007500D02*
X275587750Y-190272500D01*
X241511750Y-187007500D02*
X272322750Y-187007500D01*
X91598750Y-159423100D02*
X91605100Y-159423100D01*
X91605100Y-159423100D02*
X95250000Y-163068000D01*
X102640250Y-163068000D02*
X106438125Y-159270125D01*
X95250000Y-163068000D02*
X102640250Y-163068000D01*
X106285150Y-159423100D02*
X106438125Y-159270125D01*
X106438125Y-159270125D02*
X113535750Y-152172500D01*
X86487000Y-137008752D02*
X86487000Y-136845162D01*
X87676750Y-137388500D02*
X86866748Y-137388500D01*
X86866748Y-137388500D02*
X86487000Y-137008752D01*
X86487000Y-136845162D02*
X83971888Y-134330050D01*
X83971888Y-134330050D02*
X80987230Y-134330050D01*
X80951280Y-134366000D02*
X73025000Y-134366000D01*
X80987230Y-134330050D02*
X80951280Y-134366000D01*
X80360751Y-133319751D02*
X72263000Y-133319751D01*
X86866748Y-136588500D02*
X84295470Y-134017222D01*
X87676750Y-136588500D02*
X86866748Y-136588500D01*
X84295470Y-134017222D02*
X84295470Y-133880040D01*
X84295470Y-133880040D02*
X81173630Y-133880040D01*
X81173630Y-133880040D02*
X80613341Y-133319751D01*
X80613341Y-133319751D02*
X80360751Y-133319751D01*
X276637750Y-190272500D02*
X351911750Y-190272500D01*
X352001750Y-190182500D02*
X354652750Y-190182500D01*
X351911750Y-190272500D02*
X352001750Y-190182500D01*
X86010750Y-190272500D02*
X72797500Y-190272500D01*
X72797500Y-190272500D02*
X65532000Y-183007000D01*
X65532000Y-183007000D02*
X65532000Y-168910000D01*
X84628973Y-133577133D02*
X84628973Y-133430030D01*
X87676750Y-135788500D02*
X86840340Y-135788500D01*
X86840340Y-135788500D02*
X84628973Y-133577133D01*
X81360030Y-133430030D02*
X81216500Y-133286500D01*
X84628973Y-133430030D02*
X81360030Y-133430030D01*
X81216500Y-133286500D02*
X80524751Y-132594751D01*
D28*
X106333750Y-131892500D02*
X107473750Y-133032500D01*
X106333750Y-131889500D02*
X106333750Y-131892500D01*
X217043000Y-129286000D02*
X151384000Y-129286000D01*
X119802002Y-129286000D02*
X118405002Y-130683000D01*
X151384000Y-129286000D02*
X119802002Y-129286000D01*
X118405002Y-130683000D02*
X113538000Y-130683000D01*
X225552000Y-129286000D02*
X227950520Y-129286000D01*
X225552000Y-129286000D02*
X217043000Y-129286000D01*
X227330000Y-129286000D02*
X225552000Y-129286000D01*
X217502740Y-75643740D02*
X217502740Y-74569320D01*
X218694000Y-76835000D02*
X217502740Y-75643740D01*
D27*
X90976750Y-127428650D02*
X85341100Y-121793000D01*
X90976750Y-130888500D02*
X90976750Y-127428650D01*
X76461750Y-121793000D02*
X75287500Y-120618750D01*
X85341100Y-121793000D02*
X76461750Y-121793000D01*
X91776750Y-130888500D02*
X91776750Y-126320750D01*
X91776750Y-126320750D02*
X86741000Y-121285000D01*
X92576750Y-129888500D02*
X92583000Y-129882250D01*
X92576750Y-130888500D02*
X92576750Y-129888500D01*
X92583000Y-129882250D02*
X92583000Y-120142000D01*
X92583000Y-120142000D02*
X96774000Y-115951000D01*
X96774000Y-115951000D02*
X102489000Y-115951000D01*
X93376750Y-130888500D02*
X93376750Y-120052260D01*
X103505000Y-116008002D02*
X103505000Y-115951000D01*
X102837001Y-116676001D02*
X103505000Y-116008002D01*
X93376750Y-120052260D02*
X96753009Y-116676001D01*
X96753009Y-116676001D02*
X102837001Y-116676001D01*
X112960685Y-115951000D02*
X113341685Y-115570000D01*
X112395000Y-115951000D02*
X112960685Y-115951000D01*
X113341685Y-115570000D02*
X114427000Y-115570000D01*
X94176750Y-130888500D02*
X94176750Y-119888670D01*
X103716741Y-117126011D02*
X104059701Y-116783051D01*
X94176750Y-119888670D02*
X96939409Y-117126011D01*
X96939409Y-117126011D02*
X103716741Y-117126011D01*
X132809472Y-115983528D02*
X133199778Y-115593222D01*
X131539472Y-115983528D02*
X132809472Y-115983528D01*
X113139314Y-116653650D02*
X130869350Y-116653650D01*
X130869350Y-116653650D02*
X131539472Y-115983528D01*
X94976750Y-130888500D02*
X94976750Y-119725080D01*
X94976750Y-119725080D02*
X96972830Y-117729000D01*
X96972830Y-117729000D02*
X104648000Y-117729000D01*
X109093000Y-117729000D02*
X159004000Y-117729000D01*
X159004000Y-117729000D02*
X160401000Y-116332000D01*
X99076750Y-138188500D02*
X97643750Y-138188500D01*
X97643750Y-138188500D02*
X96932750Y-137477500D01*
X101981000Y-129667000D02*
X107696000Y-129667000D01*
X107696000Y-129667000D02*
X107823000Y-129540000D01*
X115316000Y-129413000D02*
X115881685Y-129413000D01*
X115881685Y-129413000D02*
X118491000Y-129413000D01*
X121666000Y-136017000D02*
X192405000Y-136017000D01*
X192405000Y-136017000D02*
X194437000Y-138049000D01*
X194437000Y-138049000D02*
X194564000Y-138049000D01*
X99076750Y-138988500D02*
X97418444Y-138988500D01*
X97418444Y-138988500D02*
X96970472Y-138540528D01*
X103124000Y-133813490D02*
X106426000Y-133813490D01*
X121793000Y-156845000D02*
X123190000Y-155448000D01*
X123190000Y-155448000D02*
X218567000Y-155448000D01*
X99076750Y-139788500D02*
X97167145Y-139788500D01*
X97167145Y-139788500D02*
X96917786Y-139539141D01*
X107950000Y-166046685D02*
X108654315Y-166751000D01*
X107950000Y-165481000D02*
X107950000Y-166046685D01*
X108654315Y-166751000D02*
X244729000Y-166751000D01*
X99076750Y-140588500D02*
X96998897Y-140588500D01*
X96998897Y-140588500D02*
X96949052Y-140538655D01*
X110236000Y-169164000D02*
X121666000Y-169164000D01*
X107061000Y-165989000D02*
X110236000Y-169164000D01*
X121666000Y-169164000D02*
X123063000Y-167767000D01*
X123063000Y-167767000D02*
X125857000Y-167767000D01*
X125857000Y-167767000D02*
X152527000Y-167767000D01*
X152527000Y-167767000D02*
X257810000Y-167767000D01*
X257810000Y-167767000D02*
X261112000Y-164465000D01*
X92576750Y-142288500D02*
X92576750Y-141071500D01*
X92576750Y-141071500D02*
X93249750Y-140398500D01*
X92710000Y-157493750D02*
X94234000Y-159017750D01*
X94234000Y-159017750D02*
X94234000Y-161026694D01*
X94234000Y-161026694D02*
X94365653Y-161158347D01*
X87506654Y-168024654D02*
X87506654Y-168786654D01*
X92825981Y-174105981D02*
X130293802Y-174105982D01*
X87506654Y-168786654D02*
X92825981Y-174105981D01*
X130293802Y-174105982D02*
X140707800Y-184519980D01*
X140707800Y-184519980D02*
X180856200Y-184519980D01*
X180856200Y-184519980D02*
X191767180Y-173609000D01*
X229237820Y-173609000D02*
X229607802Y-173978982D01*
X191767180Y-173609000D02*
X229237820Y-173609000D01*
X229607802Y-173978982D02*
X239640800Y-184011980D01*
X254008200Y-184011980D02*
X263914200Y-174105980D01*
X239640800Y-184011980D02*
X254008200Y-184011980D01*
X263914200Y-174105980D02*
X280173020Y-174105980D01*
X280173020Y-174105980D02*
X281051000Y-173228000D01*
X91776750Y-142288500D02*
X91776750Y-140846195D01*
X91776750Y-140846195D02*
X92237096Y-140385849D01*
X90932000Y-156718000D02*
X90932000Y-157724694D01*
X90932000Y-157724694D02*
X93095653Y-159888347D01*
X130107401Y-174555991D02*
X140521400Y-184969990D01*
X85471000Y-168021000D02*
X92005990Y-174555990D01*
X92005990Y-174555990D02*
X130107401Y-174555991D01*
X181042600Y-184969990D02*
X191641590Y-174371000D01*
X140521400Y-184969990D02*
X181042600Y-184969990D01*
X229363410Y-174371000D02*
X229421401Y-174428991D01*
X191641590Y-174371000D02*
X229363410Y-174371000D01*
X229421401Y-174428991D02*
X239454400Y-184461990D01*
X239454400Y-184461990D02*
X254194600Y-184461990D01*
X264100600Y-174555990D02*
X298773010Y-174555990D01*
X254194600Y-184461990D02*
X264100600Y-174555990D01*
X298773010Y-174555990D02*
X300355000Y-172974000D01*
X301479001Y-169399001D02*
X301479001Y-166986001D01*
X301879000Y-169799000D02*
X301479001Y-169399001D01*
X301479001Y-166986001D02*
X300736000Y-166243000D01*
X300736000Y-166243000D02*
X300482000Y-166243000D01*
X90976750Y-142288500D02*
X90976750Y-140626644D01*
X90976750Y-140626644D02*
X91212734Y-140390660D01*
X84080140Y-168592825D02*
X90493315Y-175006000D01*
X84080140Y-168027140D02*
X84080140Y-168592825D01*
X90493315Y-175006000D02*
X129921000Y-175006000D01*
X129921000Y-175006000D02*
X140335000Y-185420000D01*
X140335000Y-185420000D02*
X181229000Y-185420000D01*
X181229000Y-185420000D02*
X191770000Y-174879000D01*
X191770000Y-174879000D02*
X229235000Y-174879000D01*
X229235000Y-174879000D02*
X239268000Y-184912000D01*
X239268000Y-184912000D02*
X254381000Y-184912000D01*
X254381000Y-184912000D02*
X264287000Y-175006000D01*
X264287000Y-175006000D02*
X288290000Y-175006000D01*
X288290000Y-175006000D02*
X291211000Y-177927000D01*
X90176750Y-142288500D02*
X90176750Y-140442349D01*
X90176750Y-140442349D02*
X90212854Y-140406245D01*
X81407000Y-170813002D02*
X96648998Y-186055000D01*
X81407000Y-168148000D02*
X81407000Y-170813002D01*
X96648998Y-186055000D02*
X315087000Y-186055000D01*
X315087000Y-186055000D02*
X316103000Y-185039000D01*
X89376750Y-142288500D02*
X89376750Y-140560076D01*
X89376750Y-140560076D02*
X89212902Y-140396228D01*
X80681999Y-168311999D02*
X80681999Y-173772999D01*
X80264000Y-168148000D02*
X80518000Y-168148000D01*
X80518000Y-168148000D02*
X80681999Y-168311999D01*
X93466490Y-186557490D02*
X330459510Y-186557490D01*
X80681999Y-173772999D02*
X93466490Y-186557490D01*
X330459510Y-186557490D02*
X331343000Y-185674000D01*
X83464252Y-135636000D02*
X80391000Y-135636000D01*
X87676750Y-138188500D02*
X86016752Y-138188500D01*
X86016752Y-138188500D02*
X83464252Y-135636000D01*
X84201000Y-79375000D02*
X84709000Y-78867000D01*
X245872000Y-78867000D02*
X246380000Y-79375000D01*
X84709000Y-78867000D02*
X245872000Y-78867000D01*
X246380000Y-79375000D02*
X352298000Y-79375000D01*
X352298000Y-79375000D02*
X352933000Y-80010000D01*
X115269250Y-134429500D02*
X117252750Y-134429500D01*
X117252750Y-134429500D02*
X118649750Y-134429500D01*
X118649750Y-134429500D02*
X227393500Y-134429500D01*
X216702640Y-74569320D02*
X216702640Y-76476278D01*
X216702640Y-76476278D02*
X217937159Y-77710797D01*
X100426740Y-134538490D02*
X113092240Y-134538490D01*
X100076750Y-134188500D02*
X100426740Y-134538490D01*
X99076750Y-134188500D02*
X100076750Y-134188500D01*
X116221750Y-135255000D02*
X115269250Y-136207500D01*
X215902540Y-74569320D02*
X215902540Y-76701484D01*
X215902540Y-76701484D02*
X216920528Y-77719472D01*
X227076000Y-135255000D02*
X116221750Y-135255000D01*
X112175250Y-134988500D02*
X113394250Y-136207500D01*
X99076750Y-134988500D02*
X112175250Y-134988500D01*
X102109750Y-148732000D02*
X102139750Y-148702000D01*
X103845750Y-146181500D02*
X103845750Y-147331500D01*
X100935248Y-145097500D02*
X102761750Y-145097500D01*
X96576750Y-143098502D02*
X96841749Y-143363501D01*
X102761750Y-145097500D02*
X103845750Y-146181500D01*
X96841749Y-143363501D02*
X99643751Y-143363501D01*
X99643751Y-143363501D02*
X99853750Y-143573500D01*
X96576750Y-142288500D02*
X96576750Y-143098502D01*
X99853750Y-143573500D02*
X99853750Y-144016002D01*
X99853750Y-144016002D02*
X100935248Y-145097500D01*
X102475250Y-148702000D02*
X103845750Y-147331500D01*
X102139750Y-148702000D02*
X102475250Y-148702000D01*
X87425000Y-132588500D02*
X87676750Y-132588500D01*
X85773500Y-130937000D02*
X87425000Y-132588500D01*
X100488750Y-148478000D02*
X100234750Y-148732000D01*
X107545750Y-153181500D02*
X107545750Y-153531500D01*
X94976750Y-143288500D02*
X94976750Y-142288500D01*
X95951771Y-144263521D02*
X94976750Y-143288500D01*
X96496729Y-144263521D02*
X96496729Y-144534479D01*
X96496729Y-144263521D02*
X95951771Y-144263521D01*
X96496729Y-144534479D02*
X96568708Y-144462500D01*
X96568708Y-144462500D02*
X97059750Y-144462500D01*
X97059750Y-144462500D02*
X97313750Y-144462500D01*
X97313750Y-144462500D02*
X96297750Y-144462500D01*
X97512729Y-144263521D02*
X96496729Y-144263521D01*
X97710760Y-144263521D02*
X97512729Y-144263521D01*
X98056245Y-144609005D02*
X97710760Y-144263521D01*
X97694750Y-144589500D02*
X97694750Y-144755510D01*
X97841255Y-144609005D02*
X97694750Y-144755510D01*
X98056245Y-144609005D02*
X97841255Y-144609005D01*
X98246744Y-144799506D02*
X98246744Y-144926506D01*
X98246744Y-144799506D02*
X98056245Y-144609005D01*
X98246744Y-144926506D02*
X97948750Y-145224500D01*
X98056245Y-144609005D02*
X98056245Y-144736005D01*
X98056245Y-144736005D02*
X97821750Y-144970500D01*
X97821750Y-144970500D02*
X98075750Y-144970500D01*
X98075750Y-144970500D02*
X97694750Y-144589500D01*
X97512729Y-144407479D02*
X97639729Y-144407479D01*
X97512729Y-144407479D02*
X97512729Y-144661479D01*
X97512729Y-144263521D02*
X97512729Y-144407479D01*
X88868250Y-126697500D02*
X88804750Y-126761000D01*
X99076750Y-135788500D02*
X98266748Y-135788500D01*
D28*
X94353750Y-147668502D02*
X94353750Y-147848500D01*
X92653750Y-145968502D02*
X94353750Y-147668502D01*
X92653750Y-145648500D02*
X92653750Y-145968502D01*
X94353750Y-148212200D02*
X92617050Y-149948900D01*
X94353750Y-147848500D02*
X94353750Y-148212200D01*
X90176750Y-132508498D02*
X90163749Y-132521499D01*
X90176750Y-130888500D02*
X90176750Y-132508498D01*
X97926750Y-135788500D02*
X96576750Y-134438500D01*
X99076750Y-135788500D02*
X97926750Y-135788500D01*
X94976750Y-138249498D02*
X94989749Y-138236499D01*
X94976750Y-142288500D02*
X94976750Y-138249498D01*
X87676750Y-140588500D02*
X87676750Y-142826500D01*
X87676750Y-142826500D02*
X89185750Y-144335500D01*
X88004750Y-126761000D02*
X88804750Y-126761000D01*
X87699950Y-126761000D02*
X88004750Y-126761000D01*
X84082650Y-131178300D02*
X84082650Y-130378300D01*
X97639729Y-145979979D02*
X97639729Y-144407479D01*
X100361750Y-148702000D02*
X97639729Y-145979979D01*
X107545750Y-152231500D02*
X107545750Y-153531500D01*
X108756401Y-151020849D02*
X107545750Y-152231500D01*
X108756401Y-142519677D02*
X108756401Y-151020849D01*
X105998250Y-139761526D02*
X108756401Y-142519677D01*
X105998250Y-136334500D02*
X105998250Y-139761526D01*
X85833598Y-129090350D02*
X89432749Y-132689501D01*
X85370600Y-129090350D02*
X85833598Y-129090350D01*
X84082650Y-130378300D02*
X85370600Y-129090350D01*
X90163749Y-132521499D02*
X90163749Y-132689501D01*
X85370600Y-129090350D02*
X87699950Y-126761000D01*
X99620260Y-127797510D02*
X99620260Y-130344990D01*
X98520250Y-126697500D02*
X99620260Y-127797510D01*
X85881187Y-142347137D02*
X87070387Y-142347137D01*
X85324950Y-141790900D02*
X85881187Y-142347137D01*
X87070387Y-142347137D02*
X89820750Y-145097500D01*
X94976750Y-142288500D02*
X94976750Y-144157500D01*
X106595750Y-154831500D02*
X101713750Y-154831500D01*
X107545750Y-153531500D02*
X107545750Y-153881500D01*
X107545750Y-153881500D02*
X106595750Y-154831500D01*
X101713750Y-154831500D02*
X97440750Y-150558500D01*
X109311426Y-141964652D02*
X108756401Y-142519677D01*
X110352598Y-141964652D02*
X109311426Y-141964652D01*
X110752597Y-141564653D02*
X110352598Y-141964652D01*
D27*
X96576750Y-130888500D02*
X96576750Y-131888500D01*
D28*
X99620260Y-130344990D02*
X96576750Y-133388500D01*
X198437500Y-136842500D02*
X226250500Y-136842500D01*
X118294357Y-141564653D02*
X122953010Y-136906000D01*
X110752597Y-141564653D02*
X118294357Y-141564653D01*
X122953010Y-136906000D02*
X191516000Y-136906000D01*
X191516000Y-136906000D02*
X193802000Y-139192000D01*
X193802000Y-139192000D02*
X196088000Y-139192000D01*
X196088000Y-139192000D02*
X198437500Y-136842500D01*
X214302340Y-74569320D02*
X214302340Y-76798340D01*
X214302340Y-76798340D02*
X215646000Y-78142000D01*
D29*
G36*
X94407470Y-135186738D02*
G01*
X94883310Y-138874500D01*
X93700645Y-138874500D01*
X91391420Y-135228355D01*
X91634679Y-135066182D01*
X94407470Y-135186738D01*
X94407470Y-135186738D01*
G37*
X94407470Y-135186738D02*
X94883310Y-138874500D01*
X93700645Y-138874500D01*
X91391420Y-135228355D01*
X91634679Y-135066182D01*
X94407470Y-135186738D01*
G36*
X91086831Y-138874500D02*
G01*
X90201750Y-138874500D01*
X90201750Y-137723895D01*
X91086831Y-138874500D01*
X91086831Y-138874500D01*
G37*
X91086831Y-138874500D02*
X90201750Y-138874500D01*
X90201750Y-137723895D01*
X91086831Y-138874500D01*
G36*
X90250565Y-132089685D02*
G01*
X90347256Y-132169037D01*
X90370417Y-132181417D01*
X90462500Y-132273500D01*
X90576087Y-132263954D01*
X90577268Y-132264312D01*
X90701750Y-132276572D01*
X91251750Y-132276572D01*
X91376232Y-132264312D01*
X91376750Y-132264155D01*
X91377268Y-132264312D01*
X91501750Y-132276572D01*
X92051750Y-132276572D01*
X92176232Y-132264312D01*
X92176750Y-132264155D01*
X92177268Y-132264312D01*
X92301750Y-132276572D01*
X92851750Y-132276572D01*
X92976232Y-132264312D01*
X92976750Y-132264155D01*
X92977268Y-132264312D01*
X93101750Y-132276572D01*
X93651750Y-132276572D01*
X93776232Y-132264312D01*
X93776750Y-132264155D01*
X93777268Y-132264312D01*
X93901750Y-132276572D01*
X94451750Y-132276572D01*
X94576232Y-132264312D01*
X94576750Y-132264155D01*
X94577268Y-132264312D01*
X94701750Y-132276572D01*
X95251750Y-132276572D01*
X95376232Y-132264312D01*
X95376750Y-132264155D01*
X95377268Y-132264312D01*
X95501750Y-132276572D01*
X96051750Y-132276572D01*
X96176232Y-132264312D01*
X96177413Y-132263954D01*
X96291000Y-132273500D01*
X96383083Y-132181417D01*
X96406244Y-132169037D01*
X96502935Y-132089685D01*
X96510883Y-132080000D01*
X96642617Y-132080000D01*
X96650565Y-132089685D01*
X96747256Y-132169037D01*
X96770417Y-132181417D01*
X96862500Y-132273500D01*
X96976087Y-132263954D01*
X96977268Y-132264312D01*
X97101750Y-132276572D01*
X97651750Y-132276572D01*
X97692712Y-132272538D01*
X97688678Y-132313500D01*
X97688678Y-132863500D01*
X97700938Y-132987982D01*
X97701095Y-132988500D01*
X97700938Y-132989018D01*
X97688678Y-133113500D01*
X97688678Y-133663500D01*
X97700938Y-133787982D01*
X97701095Y-133788500D01*
X97700938Y-133789018D01*
X97688678Y-133913500D01*
X97688678Y-134463500D01*
X97700938Y-134587982D01*
X97701095Y-134588500D01*
X97700938Y-134589018D01*
X97688678Y-134713500D01*
X97688678Y-135263500D01*
X97700938Y-135387982D01*
X97701296Y-135389163D01*
X97691750Y-135502750D01*
X97783833Y-135594833D01*
X97790000Y-135606370D01*
X97790000Y-135970630D01*
X97783833Y-135982167D01*
X97691750Y-136074250D01*
X97701296Y-136187837D01*
X97700938Y-136189018D01*
X97688678Y-136313500D01*
X97688678Y-136394678D01*
X89281000Y-136272827D01*
X89281000Y-132276572D01*
X89651750Y-132276572D01*
X89776232Y-132264312D01*
X89777413Y-132263954D01*
X89891000Y-132273500D01*
X89983083Y-132181417D01*
X90006244Y-132169037D01*
X90102935Y-132089685D01*
X90110883Y-132080000D01*
X90242617Y-132080000D01*
X90250565Y-132089685D01*
X90250565Y-132089685D01*
G37*
X90250565Y-132089685D02*
X90347256Y-132169037D01*
X90370417Y-132181417D01*
X90462500Y-132273500D01*
X90576087Y-132263954D01*
X90577268Y-132264312D01*
X90701750Y-132276572D01*
X91251750Y-132276572D01*
X91376232Y-132264312D01*
X91376750Y-132264155D01*
X91377268Y-132264312D01*
X91501750Y-132276572D01*
X92051750Y-132276572D01*
X92176232Y-132264312D01*
X92176750Y-132264155D01*
X92177268Y-132264312D01*
X92301750Y-132276572D01*
X92851750Y-132276572D01*
X92976232Y-132264312D01*
X92976750Y-132264155D01*
X92977268Y-132264312D01*
X93101750Y-132276572D01*
X93651750Y-132276572D01*
X93776232Y-132264312D01*
X93776750Y-132264155D01*
X93777268Y-132264312D01*
X93901750Y-132276572D01*
X94451750Y-132276572D01*
X94576232Y-132264312D01*
X94576750Y-132264155D01*
X94577268Y-132264312D01*
X94701750Y-132276572D01*
X95251750Y-132276572D01*
X95376232Y-132264312D01*
X95376750Y-132264155D01*
X95377268Y-132264312D01*
X95501750Y-132276572D01*
X96051750Y-132276572D01*
X96176232Y-132264312D01*
X96177413Y-132263954D01*
X96291000Y-132273500D01*
X96383083Y-132181417D01*
X96406244Y-132169037D01*
X96502935Y-132089685D01*
X96510883Y-132080000D01*
X96642617Y-132080000D01*
X96650565Y-132089685D01*
X96747256Y-132169037D01*
X96770417Y-132181417D01*
X96862500Y-132273500D01*
X96976087Y-132263954D01*
X96977268Y-132264312D01*
X97101750Y-132276572D01*
X97651750Y-132276572D01*
X97692712Y-132272538D01*
X97688678Y-132313500D01*
X97688678Y-132863500D01*
X97700938Y-132987982D01*
X97701095Y-132988500D01*
X97700938Y-132989018D01*
X97688678Y-133113500D01*
X97688678Y-133663500D01*
X97700938Y-133787982D01*
X97701095Y-133788500D01*
X97700938Y-133789018D01*
X97688678Y-133913500D01*
X97688678Y-134463500D01*
X97700938Y-134587982D01*
X97701095Y-134588500D01*
X97700938Y-134589018D01*
X97688678Y-134713500D01*
X97688678Y-135263500D01*
X97700938Y-135387982D01*
X97701296Y-135389163D01*
X97691750Y-135502750D01*
X97783833Y-135594833D01*
X97790000Y-135606370D01*
X97790000Y-135970630D01*
X97783833Y-135982167D01*
X97691750Y-136074250D01*
X97701296Y-136187837D01*
X97700938Y-136189018D01*
X97688678Y-136313500D01*
X97688678Y-136394678D01*
X89281000Y-136272827D01*
X89281000Y-132276572D01*
X89651750Y-132276572D01*
X89776232Y-132264312D01*
X89777413Y-132263954D01*
X89891000Y-132273500D01*
X89983083Y-132181417D01*
X90006244Y-132169037D01*
X90102935Y-132089685D01*
X90110883Y-132080000D01*
X90242617Y-132080000D01*
X90250565Y-132089685D01*
G36*
X90250565Y-132089685D02*
G01*
X90347256Y-132169037D01*
X90370417Y-132181417D01*
X90462500Y-132273500D01*
X90576087Y-132263954D01*
X90577268Y-132264312D01*
X90701750Y-132276572D01*
X91251750Y-132276572D01*
X91376232Y-132264312D01*
X91376750Y-132264155D01*
X91377268Y-132264312D01*
X91501750Y-132276572D01*
X92051750Y-132276572D01*
X92176232Y-132264312D01*
X92176750Y-132264155D01*
X92177268Y-132264312D01*
X92301750Y-132276572D01*
X92851750Y-132276572D01*
X92976232Y-132264312D01*
X92976750Y-132264155D01*
X92977268Y-132264312D01*
X93101750Y-132276572D01*
X93651750Y-132276572D01*
X93776232Y-132264312D01*
X93776750Y-132264155D01*
X93777268Y-132264312D01*
X93901750Y-132276572D01*
X94451750Y-132276572D01*
X94576232Y-132264312D01*
X94576750Y-132264155D01*
X94577268Y-132264312D01*
X94701750Y-132276572D01*
X95251750Y-132276572D01*
X95376232Y-132264312D01*
X95376750Y-132264155D01*
X95377268Y-132264312D01*
X95501750Y-132276572D01*
X96051750Y-132276572D01*
X96176232Y-132264312D01*
X96177413Y-132263954D01*
X96291000Y-132273500D01*
X96383083Y-132181417D01*
X96406244Y-132169037D01*
X96502935Y-132089685D01*
X96510883Y-132080000D01*
X96642617Y-132080000D01*
X96650565Y-132089685D01*
X96747256Y-132169037D01*
X96770417Y-132181417D01*
X96862500Y-132273500D01*
X96976087Y-132263954D01*
X96977268Y-132264312D01*
X97101750Y-132276572D01*
X97651750Y-132276572D01*
X97692712Y-132272538D01*
X97688678Y-132313500D01*
X97688678Y-132863500D01*
X97700938Y-132987982D01*
X97701095Y-132988500D01*
X97700938Y-132989018D01*
X97688678Y-133113500D01*
X97688678Y-133663500D01*
X97700938Y-133787982D01*
X97701095Y-133788500D01*
X97700938Y-133789018D01*
X97688678Y-133913500D01*
X97688678Y-134463500D01*
X97700938Y-134587982D01*
X97701095Y-134588500D01*
X97700938Y-134589018D01*
X97688678Y-134713500D01*
X97688678Y-135263500D01*
X97700938Y-135387982D01*
X97701296Y-135389163D01*
X97691750Y-135502750D01*
X97783833Y-135594833D01*
X97796213Y-135617994D01*
X97875565Y-135714685D01*
X97917000Y-135748690D01*
X97917000Y-135828310D01*
X97875565Y-135862315D01*
X97796213Y-135959006D01*
X97783833Y-135982167D01*
X97691750Y-136074250D01*
X97701296Y-136187837D01*
X97700938Y-136189018D01*
X97688678Y-136313500D01*
X97688678Y-136769717D01*
X97592524Y-136673563D01*
X97423006Y-136560295D01*
X97234648Y-136482274D01*
X97034689Y-136442500D01*
X96830811Y-136442500D01*
X96630852Y-136482274D01*
X96442494Y-136560295D01*
X96272976Y-136673563D01*
X96128813Y-136817726D01*
X96015545Y-136987244D01*
X95937524Y-137175602D01*
X95897750Y-137375561D01*
X95897750Y-137579439D01*
X95937524Y-137779398D01*
X96015545Y-137967756D01*
X96061974Y-138037242D01*
X96053267Y-138050272D01*
X95975246Y-138238630D01*
X95935472Y-138438589D01*
X95935472Y-138642467D01*
X95975246Y-138842426D01*
X96037733Y-138993283D01*
X96000581Y-139048885D01*
X95922560Y-139237243D01*
X95882786Y-139437202D01*
X95882786Y-139641080D01*
X95913797Y-139796985D01*
X94075312Y-139771091D01*
X94053687Y-139738726D01*
X93909524Y-139594563D01*
X93740006Y-139481295D01*
X93551648Y-139403274D01*
X93351689Y-139363500D01*
X93147811Y-139363500D01*
X92947852Y-139403274D01*
X92759494Y-139481295D01*
X92752890Y-139485708D01*
X92727352Y-139468644D01*
X92538994Y-139390623D01*
X92339035Y-139350849D01*
X92135157Y-139350849D01*
X91935198Y-139390623D01*
X91746840Y-139468644D01*
X91721315Y-139485699D01*
X91702990Y-139473455D01*
X91514632Y-139395434D01*
X91314673Y-139355660D01*
X91110795Y-139355660D01*
X90910836Y-139395434D01*
X90722478Y-139473455D01*
X90700667Y-139488028D01*
X90514752Y-139411019D01*
X90314793Y-139371245D01*
X90110915Y-139371245D01*
X89910956Y-139411019D01*
X89722598Y-139489040D01*
X89720374Y-139490526D01*
X89703158Y-139479023D01*
X89514800Y-139401002D01*
X89314841Y-139361228D01*
X89146504Y-139361228D01*
X89064822Y-134296986D01*
X89064822Y-133913500D01*
X89057425Y-133838399D01*
X89056042Y-133752645D01*
X89064822Y-133663500D01*
X89064822Y-133113500D01*
X89052562Y-132989018D01*
X89052405Y-132988500D01*
X89052562Y-132987982D01*
X89064822Y-132863500D01*
X89064822Y-132313500D01*
X89060788Y-132272538D01*
X89101750Y-132276572D01*
X89651750Y-132276572D01*
X89776232Y-132264312D01*
X89777413Y-132263954D01*
X89891000Y-132273500D01*
X89983083Y-132181417D01*
X90006244Y-132169037D01*
X90102935Y-132089685D01*
X90110883Y-132080000D01*
X90242617Y-132080000D01*
X90250565Y-132089685D01*
X90250565Y-132089685D01*
G37*
X90250565Y-132089685D02*
X90347256Y-132169037D01*
X90370417Y-132181417D01*
X90462500Y-132273500D01*
X90576087Y-132263954D01*
X90577268Y-132264312D01*
X90701750Y-132276572D01*
X91251750Y-132276572D01*
X91376232Y-132264312D01*
X91376750Y-132264155D01*
X91377268Y-132264312D01*
X91501750Y-132276572D01*
X92051750Y-132276572D01*
X92176232Y-132264312D01*
X92176750Y-132264155D01*
X92177268Y-132264312D01*
X92301750Y-132276572D01*
X92851750Y-132276572D01*
X92976232Y-132264312D01*
X92976750Y-132264155D01*
X92977268Y-132264312D01*
X93101750Y-132276572D01*
X93651750Y-132276572D01*
X93776232Y-132264312D01*
X93776750Y-132264155D01*
X93777268Y-132264312D01*
X93901750Y-132276572D01*
X94451750Y-132276572D01*
X94576232Y-132264312D01*
X94576750Y-132264155D01*
X94577268Y-132264312D01*
X94701750Y-132276572D01*
X95251750Y-132276572D01*
X95376232Y-132264312D01*
X95376750Y-132264155D01*
X95377268Y-132264312D01*
X95501750Y-132276572D01*
X96051750Y-132276572D01*
X96176232Y-132264312D01*
X96177413Y-132263954D01*
X96291000Y-132273500D01*
X96383083Y-132181417D01*
X96406244Y-132169037D01*
X96502935Y-132089685D01*
X96510883Y-132080000D01*
X96642617Y-132080000D01*
X96650565Y-132089685D01*
X96747256Y-132169037D01*
X96770417Y-132181417D01*
X96862500Y-132273500D01*
X96976087Y-132263954D01*
X96977268Y-132264312D01*
X97101750Y-132276572D01*
X97651750Y-132276572D01*
X97692712Y-132272538D01*
X97688678Y-132313500D01*
X97688678Y-132863500D01*
X97700938Y-132987982D01*
X97701095Y-132988500D01*
X97700938Y-132989018D01*
X97688678Y-133113500D01*
X97688678Y-133663500D01*
X97700938Y-133787982D01*
X97701095Y-133788500D01*
X97700938Y-133789018D01*
X97688678Y-133913500D01*
X97688678Y-134463500D01*
X97700938Y-134587982D01*
X97701095Y-134588500D01*
X97700938Y-134589018D01*
X97688678Y-134713500D01*
X97688678Y-135263500D01*
X97700938Y-135387982D01*
X97701296Y-135389163D01*
X97691750Y-135502750D01*
X97783833Y-135594833D01*
X97796213Y-135617994D01*
X97875565Y-135714685D01*
X97917000Y-135748690D01*
X97917000Y-135828310D01*
X97875565Y-135862315D01*
X97796213Y-135959006D01*
X97783833Y-135982167D01*
X97691750Y-136074250D01*
X97701296Y-136187837D01*
X97700938Y-136189018D01*
X97688678Y-136313500D01*
X97688678Y-136769717D01*
X97592524Y-136673563D01*
X97423006Y-136560295D01*
X97234648Y-136482274D01*
X97034689Y-136442500D01*
X96830811Y-136442500D01*
X96630852Y-136482274D01*
X96442494Y-136560295D01*
X96272976Y-136673563D01*
X96128813Y-136817726D01*
X96015545Y-136987244D01*
X95937524Y-137175602D01*
X95897750Y-137375561D01*
X95897750Y-137579439D01*
X95937524Y-137779398D01*
X96015545Y-137967756D01*
X96061974Y-138037242D01*
X96053267Y-138050272D01*
X95975246Y-138238630D01*
X95935472Y-138438589D01*
X95935472Y-138642467D01*
X95975246Y-138842426D01*
X96037733Y-138993283D01*
X96000581Y-139048885D01*
X95922560Y-139237243D01*
X95882786Y-139437202D01*
X95882786Y-139641080D01*
X95913797Y-139796985D01*
X94075312Y-139771091D01*
X94053687Y-139738726D01*
X93909524Y-139594563D01*
X93740006Y-139481295D01*
X93551648Y-139403274D01*
X93351689Y-139363500D01*
X93147811Y-139363500D01*
X92947852Y-139403274D01*
X92759494Y-139481295D01*
X92752890Y-139485708D01*
X92727352Y-139468644D01*
X92538994Y-139390623D01*
X92339035Y-139350849D01*
X92135157Y-139350849D01*
X91935198Y-139390623D01*
X91746840Y-139468644D01*
X91721315Y-139485699D01*
X91702990Y-139473455D01*
X91514632Y-139395434D01*
X91314673Y-139355660D01*
X91110795Y-139355660D01*
X90910836Y-139395434D01*
X90722478Y-139473455D01*
X90700667Y-139488028D01*
X90514752Y-139411019D01*
X90314793Y-139371245D01*
X90110915Y-139371245D01*
X89910956Y-139411019D01*
X89722598Y-139489040D01*
X89720374Y-139490526D01*
X89703158Y-139479023D01*
X89514800Y-139401002D01*
X89314841Y-139361228D01*
X89146504Y-139361228D01*
X89064822Y-134296986D01*
X89064822Y-133913500D01*
X89057425Y-133838399D01*
X89056042Y-133752645D01*
X89064822Y-133663500D01*
X89064822Y-133113500D01*
X89052562Y-132989018D01*
X89052405Y-132988500D01*
X89052562Y-132987982D01*
X89064822Y-132863500D01*
X89064822Y-132313500D01*
X89060788Y-132272538D01*
X89101750Y-132276572D01*
X89651750Y-132276572D01*
X89776232Y-132264312D01*
X89777413Y-132263954D01*
X89891000Y-132273500D01*
X89983083Y-132181417D01*
X90006244Y-132169037D01*
X90102935Y-132089685D01*
X90110883Y-132080000D01*
X90242617Y-132080000D01*
X90250565Y-132089685D01*
G36*
X95882786Y-139641080D02*
G01*
X95922560Y-139841039D01*
X96000581Y-140029397D01*
X96024741Y-140065555D01*
X95953826Y-140236757D01*
X95914052Y-140436716D01*
X95914052Y-140640594D01*
X95953826Y-140840553D01*
X95978627Y-140900428D01*
X95501750Y-140900428D01*
X95377268Y-140912688D01*
X95376087Y-140913046D01*
X95262500Y-140903500D01*
X95196000Y-140970000D01*
X94757500Y-140970000D01*
X94691000Y-140903500D01*
X94577413Y-140913046D01*
X94576232Y-140912688D01*
X94451750Y-140900428D01*
X94159156Y-140900428D01*
X94166955Y-140888756D01*
X94244976Y-140700398D01*
X94284750Y-140500439D01*
X94284750Y-140296561D01*
X94244976Y-140096602D01*
X94166955Y-139908244D01*
X94053687Y-139738726D01*
X93980000Y-139665039D01*
X93980000Y-139573000D01*
X95882786Y-139573000D01*
X95882786Y-139641080D01*
X95882786Y-139641080D01*
G37*
X95882786Y-139641080D02*
X95922560Y-139841039D01*
X96000581Y-140029397D01*
X96024741Y-140065555D01*
X95953826Y-140236757D01*
X95914052Y-140436716D01*
X95914052Y-140640594D01*
X95953826Y-140840553D01*
X95978627Y-140900428D01*
X95501750Y-140900428D01*
X95377268Y-140912688D01*
X95376087Y-140913046D01*
X95262500Y-140903500D01*
X95196000Y-140970000D01*
X94757500Y-140970000D01*
X94691000Y-140903500D01*
X94577413Y-140913046D01*
X94576232Y-140912688D01*
X94451750Y-140900428D01*
X94159156Y-140900428D01*
X94166955Y-140888756D01*
X94244976Y-140700398D01*
X94284750Y-140500439D01*
X94284750Y-140296561D01*
X94244976Y-140096602D01*
X94166955Y-139908244D01*
X94053687Y-139738726D01*
X93980000Y-139665039D01*
X93980000Y-139573000D01*
X95882786Y-139573000D01*
X95882786Y-139641080D01*
G36*
X88857570Y-143628002D02*
G01*
X88977268Y-143664312D01*
X89101750Y-143676572D01*
X89651750Y-143676572D01*
X89776232Y-143664312D01*
X89776750Y-143664155D01*
X89777268Y-143664312D01*
X89901750Y-143676572D01*
X90451750Y-143676572D01*
X90576232Y-143664312D01*
X90576750Y-143664155D01*
X90577268Y-143664312D01*
X90701750Y-143676572D01*
X91251750Y-143676572D01*
X91376232Y-143664312D01*
X91376750Y-143664155D01*
X91377268Y-143664312D01*
X91501750Y-143676572D01*
X92051750Y-143676572D01*
X92176232Y-143664312D01*
X92176750Y-143664155D01*
X92177268Y-143664312D01*
X92301750Y-143676572D01*
X92616751Y-143676572D01*
X92616751Y-143766698D01*
X92519950Y-143863499D01*
X91831072Y-143863499D01*
X91793749Y-143859823D01*
X91756426Y-143863499D01*
X91756416Y-143863499D01*
X91644763Y-143874496D01*
X91501502Y-143917953D01*
X91369472Y-143988525D01*
X91285832Y-144057167D01*
X91253748Y-144083498D01*
X91229950Y-144112496D01*
X90325752Y-145016694D01*
X90296749Y-145040497D01*
X90241621Y-145107672D01*
X90201776Y-145156222D01*
X90147121Y-145258473D01*
X90131204Y-145288252D01*
X90087747Y-145431513D01*
X90076750Y-145543166D01*
X90076750Y-145543176D01*
X90073074Y-145580498D01*
X90076750Y-145617821D01*
X90076751Y-147282327D01*
X90043041Y-147292553D01*
X89890586Y-147374042D01*
X89756958Y-147483708D01*
X89647292Y-147617336D01*
X89565803Y-147769791D01*
X89515622Y-147935215D01*
X89498678Y-148107250D01*
X89498678Y-148594750D01*
X89515622Y-148766785D01*
X89565803Y-148932209D01*
X89647292Y-149084664D01*
X89756958Y-149218292D01*
X89763314Y-149223508D01*
X89685565Y-149287315D01*
X89606213Y-149384006D01*
X89547248Y-149494320D01*
X89510938Y-149614018D01*
X89498678Y-149738500D01*
X89501750Y-149940250D01*
X89660500Y-150099000D01*
X90709750Y-150099000D01*
X90709750Y-150079000D01*
X90963750Y-150079000D01*
X90963750Y-150099000D01*
X90983750Y-150099000D01*
X90983750Y-150353000D01*
X90963750Y-150353000D01*
X90963750Y-151189750D01*
X91122500Y-151348500D01*
X91536750Y-151351572D01*
X91661232Y-151339312D01*
X91780930Y-151303002D01*
X91891244Y-151244037D01*
X91894672Y-151241224D01*
X92005068Y-151274712D01*
X92129550Y-151286972D01*
X92331300Y-151283900D01*
X92490050Y-151125150D01*
X92490050Y-150075900D01*
X92470050Y-150075900D01*
X92470050Y-149821900D01*
X92490050Y-149821900D01*
X92490050Y-149801900D01*
X92744050Y-149801900D01*
X92744050Y-149821900D01*
X92764050Y-149821900D01*
X92764050Y-150075900D01*
X92744050Y-150075900D01*
X92744050Y-151125150D01*
X92902800Y-151283900D01*
X93104550Y-151286972D01*
X93229032Y-151274712D01*
X93348730Y-151238402D01*
X93459044Y-151179437D01*
X93555735Y-151100085D01*
X93619542Y-151022336D01*
X93624758Y-151028692D01*
X93758386Y-151138358D01*
X93910841Y-151219847D01*
X94076265Y-151270028D01*
X94248300Y-151286972D01*
X94735800Y-151286972D01*
X94907835Y-151270028D01*
X95073259Y-151219847D01*
X95225714Y-151138358D01*
X95359342Y-151028692D01*
X95469008Y-150895064D01*
X95550497Y-150742609D01*
X95600678Y-150577185D01*
X95617622Y-150405150D01*
X95617622Y-149898130D01*
X95789753Y-149725998D01*
X95818752Y-149702200D01*
X95913725Y-149586475D01*
X95984297Y-149454446D01*
X96027754Y-149311185D01*
X96038751Y-149199532D01*
X96038751Y-149199523D01*
X96042427Y-149162200D01*
X96038751Y-149124877D01*
X96038751Y-146710824D01*
X96042427Y-146673501D01*
X96038751Y-146636178D01*
X96038751Y-146636168D01*
X96027754Y-146524515D01*
X95984297Y-146381254D01*
X95956634Y-146329500D01*
X95913725Y-146249224D01*
X95842550Y-146162498D01*
X95818752Y-146133500D01*
X95789755Y-146109703D01*
X95591822Y-145911770D01*
X95591822Y-144948500D01*
X95579562Y-144824018D01*
X95543252Y-144704320D01*
X95484287Y-144594006D01*
X95404935Y-144497315D01*
X95308244Y-144417963D01*
X95197930Y-144358998D01*
X95078232Y-144322688D01*
X94953750Y-144310428D01*
X94936750Y-144310428D01*
X94936750Y-143573500D01*
X95155606Y-143573500D01*
X95170417Y-143581417D01*
X95262500Y-143673500D01*
X95275827Y-143672380D01*
X95927964Y-144324519D01*
X95951758Y-144353512D01*
X95980751Y-144377306D01*
X95980755Y-144377310D01*
X96030292Y-144417963D01*
X96067483Y-144448485D01*
X96199512Y-144519057D01*
X96342773Y-144562514D01*
X96454426Y-144573511D01*
X96454435Y-144573511D01*
X96491758Y-144577187D01*
X96529081Y-144573511D01*
X97424951Y-144573511D01*
X98075750Y-145274372D01*
X98075750Y-151828500D01*
X88677750Y-151828500D01*
X88677750Y-150713500D01*
X89498678Y-150713500D01*
X89510938Y-150837982D01*
X89547248Y-150957680D01*
X89606213Y-151067994D01*
X89685565Y-151164685D01*
X89782256Y-151244037D01*
X89892570Y-151303002D01*
X90012268Y-151339312D01*
X90136750Y-151351572D01*
X90551000Y-151348500D01*
X90709750Y-151189750D01*
X90709750Y-150353000D01*
X89660500Y-150353000D01*
X89501750Y-150511750D01*
X89498678Y-150713500D01*
X88677750Y-150713500D01*
X88677750Y-143573500D01*
X88755606Y-143573500D01*
X88857570Y-143628002D01*
X88857570Y-143628002D01*
G37*
X88857570Y-143628002D02*
X88977268Y-143664312D01*
X89101750Y-143676572D01*
X89651750Y-143676572D01*
X89776232Y-143664312D01*
X89776750Y-143664155D01*
X89777268Y-143664312D01*
X89901750Y-143676572D01*
X90451750Y-143676572D01*
X90576232Y-143664312D01*
X90576750Y-143664155D01*
X90577268Y-143664312D01*
X90701750Y-143676572D01*
X91251750Y-143676572D01*
X91376232Y-143664312D01*
X91376750Y-143664155D01*
X91377268Y-143664312D01*
X91501750Y-143676572D01*
X92051750Y-143676572D01*
X92176232Y-143664312D01*
X92176750Y-143664155D01*
X92177268Y-143664312D01*
X92301750Y-143676572D01*
X92616751Y-143676572D01*
X92616751Y-143766698D01*
X92519950Y-143863499D01*
X91831072Y-143863499D01*
X91793749Y-143859823D01*
X91756426Y-143863499D01*
X91756416Y-143863499D01*
X91644763Y-143874496D01*
X91501502Y-143917953D01*
X91369472Y-143988525D01*
X91285832Y-144057167D01*
X91253748Y-144083498D01*
X91229950Y-144112496D01*
X90325752Y-145016694D01*
X90296749Y-145040497D01*
X90241621Y-145107672D01*
X90201776Y-145156222D01*
X90147121Y-145258473D01*
X90131204Y-145288252D01*
X90087747Y-145431513D01*
X90076750Y-145543166D01*
X90076750Y-145543176D01*
X90073074Y-145580498D01*
X90076750Y-145617821D01*
X90076751Y-147282327D01*
X90043041Y-147292553D01*
X89890586Y-147374042D01*
X89756958Y-147483708D01*
X89647292Y-147617336D01*
X89565803Y-147769791D01*
X89515622Y-147935215D01*
X89498678Y-148107250D01*
X89498678Y-148594750D01*
X89515622Y-148766785D01*
X89565803Y-148932209D01*
X89647292Y-149084664D01*
X89756958Y-149218292D01*
X89763314Y-149223508D01*
X89685565Y-149287315D01*
X89606213Y-149384006D01*
X89547248Y-149494320D01*
X89510938Y-149614018D01*
X89498678Y-149738500D01*
X89501750Y-149940250D01*
X89660500Y-150099000D01*
X90709750Y-150099000D01*
X90709750Y-150079000D01*
X90963750Y-150079000D01*
X90963750Y-150099000D01*
X90983750Y-150099000D01*
X90983750Y-150353000D01*
X90963750Y-150353000D01*
X90963750Y-151189750D01*
X91122500Y-151348500D01*
X91536750Y-151351572D01*
X91661232Y-151339312D01*
X91780930Y-151303002D01*
X91891244Y-151244037D01*
X91894672Y-151241224D01*
X92005068Y-151274712D01*
X92129550Y-151286972D01*
X92331300Y-151283900D01*
X92490050Y-151125150D01*
X92490050Y-150075900D01*
X92470050Y-150075900D01*
X92470050Y-149821900D01*
X92490050Y-149821900D01*
X92490050Y-149801900D01*
X92744050Y-149801900D01*
X92744050Y-149821900D01*
X92764050Y-149821900D01*
X92764050Y-150075900D01*
X92744050Y-150075900D01*
X92744050Y-151125150D01*
X92902800Y-151283900D01*
X93104550Y-151286972D01*
X93229032Y-151274712D01*
X93348730Y-151238402D01*
X93459044Y-151179437D01*
X93555735Y-151100085D01*
X93619542Y-151022336D01*
X93624758Y-151028692D01*
X93758386Y-151138358D01*
X93910841Y-151219847D01*
X94076265Y-151270028D01*
X94248300Y-151286972D01*
X94735800Y-151286972D01*
X94907835Y-151270028D01*
X95073259Y-151219847D01*
X95225714Y-151138358D01*
X95359342Y-151028692D01*
X95469008Y-150895064D01*
X95550497Y-150742609D01*
X95600678Y-150577185D01*
X95617622Y-150405150D01*
X95617622Y-149898130D01*
X95789753Y-149725998D01*
X95818752Y-149702200D01*
X95913725Y-149586475D01*
X95984297Y-149454446D01*
X96027754Y-149311185D01*
X96038751Y-149199532D01*
X96038751Y-149199523D01*
X96042427Y-149162200D01*
X96038751Y-149124877D01*
X96038751Y-146710824D01*
X96042427Y-146673501D01*
X96038751Y-146636178D01*
X96038751Y-146636168D01*
X96027754Y-146524515D01*
X95984297Y-146381254D01*
X95956634Y-146329500D01*
X95913725Y-146249224D01*
X95842550Y-146162498D01*
X95818752Y-146133500D01*
X95789755Y-146109703D01*
X95591822Y-145911770D01*
X95591822Y-144948500D01*
X95579562Y-144824018D01*
X95543252Y-144704320D01*
X95484287Y-144594006D01*
X95404935Y-144497315D01*
X95308244Y-144417963D01*
X95197930Y-144358998D01*
X95078232Y-144322688D01*
X94953750Y-144310428D01*
X94936750Y-144310428D01*
X94936750Y-143573500D01*
X95155606Y-143573500D01*
X95170417Y-143581417D01*
X95262500Y-143673500D01*
X95275827Y-143672380D01*
X95927964Y-144324519D01*
X95951758Y-144353512D01*
X95980751Y-144377306D01*
X95980755Y-144377310D01*
X96030292Y-144417963D01*
X96067483Y-144448485D01*
X96199512Y-144519057D01*
X96342773Y-144562514D01*
X96454426Y-144573511D01*
X96454435Y-144573511D01*
X96491758Y-144577187D01*
X96529081Y-144573511D01*
X97424951Y-144573511D01*
X98075750Y-145274372D01*
X98075750Y-151828500D01*
X88677750Y-151828500D01*
X88677750Y-150713500D01*
X89498678Y-150713500D01*
X89510938Y-150837982D01*
X89547248Y-150957680D01*
X89606213Y-151067994D01*
X89685565Y-151164685D01*
X89782256Y-151244037D01*
X89892570Y-151303002D01*
X90012268Y-151339312D01*
X90136750Y-151351572D01*
X90551000Y-151348500D01*
X90709750Y-151189750D01*
X90709750Y-150353000D01*
X89660500Y-150353000D01*
X89501750Y-150511750D01*
X89498678Y-150713500D01*
X88677750Y-150713500D01*
X88677750Y-143573500D01*
X88755606Y-143573500D01*
X88857570Y-143628002D01*
G36*
X94480750Y-147721500D02*
G01*
X94500750Y-147721500D01*
X94500750Y-147975500D01*
X94480750Y-147975500D01*
X94480750Y-147995500D01*
X94226750Y-147995500D01*
X94226750Y-147975500D01*
X94206750Y-147975500D01*
X94206750Y-147721500D01*
X94226750Y-147721500D01*
X94226750Y-147701500D01*
X94480750Y-147701500D01*
X94480750Y-147721500D01*
X94480750Y-147721500D01*
G37*
X94480750Y-147721500D02*
X94500750Y-147721500D01*
X94500750Y-147975500D01*
X94480750Y-147975500D01*
X94480750Y-147995500D01*
X94226750Y-147995500D01*
X94226750Y-147975500D01*
X94206750Y-147975500D01*
X94206750Y-147721500D01*
X94226750Y-147721500D01*
X94226750Y-147701500D01*
X94480750Y-147701500D01*
X94480750Y-147721500D01*
G36*
X92780750Y-145521500D02*
G01*
X92800750Y-145521500D01*
X92800750Y-145775500D01*
X92780750Y-145775500D01*
X92780750Y-145795500D01*
X92526750Y-145795500D01*
X92526750Y-145775500D01*
X92506750Y-145775500D01*
X92506750Y-145521500D01*
X92526750Y-145521500D01*
X92526750Y-145501500D01*
X92780750Y-145501500D01*
X92780750Y-145521500D01*
X92780750Y-145521500D01*
G37*
X92780750Y-145521500D02*
X92800750Y-145521500D01*
X92800750Y-145775500D01*
X92780750Y-145775500D01*
X92780750Y-145795500D01*
X92526750Y-145795500D01*
X92526750Y-145775500D01*
X92506750Y-145775500D01*
X92506750Y-145521500D01*
X92526750Y-145521500D01*
X92526750Y-145501500D01*
X92780750Y-145501500D01*
X92780750Y-145521500D01*
G36*
X88857570Y-143628002D02*
G01*
X88977268Y-143664312D01*
X89101750Y-143676572D01*
X89651750Y-143676572D01*
X89776232Y-143664312D01*
X89776750Y-143664155D01*
X89777268Y-143664312D01*
X89901750Y-143676572D01*
X90451750Y-143676572D01*
X90576232Y-143664312D01*
X90576750Y-143664155D01*
X90577268Y-143664312D01*
X90701750Y-143676572D01*
X91251750Y-143676572D01*
X91376232Y-143664312D01*
X91376750Y-143664155D01*
X91377268Y-143664312D01*
X91501750Y-143676572D01*
X92051750Y-143676572D01*
X92176232Y-143664312D01*
X92176750Y-143664155D01*
X92177268Y-143664312D01*
X92301750Y-143676572D01*
X92616751Y-143676572D01*
X92616751Y-143766698D01*
X92519950Y-143863499D01*
X91831072Y-143863499D01*
X91793749Y-143859823D01*
X91756426Y-143863499D01*
X91756416Y-143863499D01*
X91644763Y-143874496D01*
X91501502Y-143917953D01*
X91369472Y-143988525D01*
X91335992Y-144016002D01*
X91253748Y-144083498D01*
X91229950Y-144112496D01*
X90325752Y-145016694D01*
X90296749Y-145040497D01*
X90249969Y-145097499D01*
X90201776Y-145156222D01*
X90153529Y-145246485D01*
X90131204Y-145288252D01*
X90087747Y-145431513D01*
X90076750Y-145543166D01*
X90076750Y-145543176D01*
X90073074Y-145580498D01*
X90076750Y-145617821D01*
X90076751Y-147282327D01*
X90043041Y-147292553D01*
X89890586Y-147374042D01*
X89756958Y-147483708D01*
X89647292Y-147617336D01*
X89565803Y-147769791D01*
X89515622Y-147935215D01*
X89498678Y-148107250D01*
X89498678Y-148594750D01*
X89515622Y-148766785D01*
X89565803Y-148932209D01*
X89647292Y-149084664D01*
X89756958Y-149218292D01*
X89763314Y-149223508D01*
X89685565Y-149287315D01*
X89606213Y-149384006D01*
X89547248Y-149494320D01*
X89510938Y-149614018D01*
X89498678Y-149738500D01*
X89501750Y-149940250D01*
X89660500Y-150099000D01*
X90709750Y-150099000D01*
X90709750Y-150079000D01*
X90963750Y-150079000D01*
X90963750Y-150099000D01*
X90983750Y-150099000D01*
X90983750Y-150353000D01*
X90963750Y-150353000D01*
X90963750Y-151189750D01*
X91122500Y-151348500D01*
X91536750Y-151351572D01*
X91661232Y-151339312D01*
X91780930Y-151303002D01*
X91891244Y-151244037D01*
X91894672Y-151241224D01*
X92005068Y-151274712D01*
X92129550Y-151286972D01*
X92331300Y-151283900D01*
X92490050Y-151125150D01*
X92490050Y-150075900D01*
X92470050Y-150075900D01*
X92470050Y-149821900D01*
X92490050Y-149821900D01*
X92490050Y-149801900D01*
X92744050Y-149801900D01*
X92744050Y-149821900D01*
X92764050Y-149821900D01*
X92764050Y-150075900D01*
X92744050Y-150075900D01*
X92744050Y-151125150D01*
X92902800Y-151283900D01*
X93104550Y-151286972D01*
X93229032Y-151274712D01*
X93348730Y-151238402D01*
X93459044Y-151179437D01*
X93555735Y-151100085D01*
X93619542Y-151022336D01*
X93624758Y-151028692D01*
X93758386Y-151138358D01*
X93910841Y-151219847D01*
X94076265Y-151270028D01*
X94248300Y-151286972D01*
X94735800Y-151286972D01*
X94907835Y-151270028D01*
X95073259Y-151219847D01*
X95225714Y-151138358D01*
X95359342Y-151028692D01*
X95469008Y-150895064D01*
X95550497Y-150742609D01*
X95600678Y-150577185D01*
X95617622Y-150405150D01*
X95617622Y-149898130D01*
X95789753Y-149725998D01*
X95818752Y-149702200D01*
X95913725Y-149586475D01*
X95984297Y-149454446D01*
X96027754Y-149311185D01*
X96038751Y-149199532D01*
X96038751Y-149199523D01*
X96042427Y-149162200D01*
X96038751Y-149124877D01*
X96038751Y-146710824D01*
X96042427Y-146673501D01*
X96038751Y-146636178D01*
X96038751Y-146636168D01*
X96027754Y-146524515D01*
X95984297Y-146381254D01*
X95933916Y-146286999D01*
X95913725Y-146249224D01*
X95842550Y-146162498D01*
X95818752Y-146133500D01*
X95789755Y-146109703D01*
X95591822Y-145911770D01*
X95591822Y-144948500D01*
X95579562Y-144824018D01*
X95543252Y-144704320D01*
X95484287Y-144594006D01*
X95404935Y-144497315D01*
X95308244Y-144417963D01*
X95197930Y-144358998D01*
X95078232Y-144322688D01*
X94953750Y-144310428D01*
X94936750Y-144310428D01*
X94936750Y-143573500D01*
X95155606Y-143573500D01*
X95170417Y-143581417D01*
X95262500Y-143673500D01*
X95275827Y-143672380D01*
X95927964Y-144324519D01*
X95951758Y-144353512D01*
X95980751Y-144377306D01*
X95980755Y-144377310D01*
X96030292Y-144417963D01*
X96067483Y-144448485D01*
X96199512Y-144519057D01*
X96342773Y-144562514D01*
X96454426Y-144573511D01*
X96454435Y-144573511D01*
X96491758Y-144577187D01*
X96529081Y-144573511D01*
X97689364Y-144573511D01*
X97691537Y-144578757D01*
X97804805Y-144748275D01*
X97915008Y-144858478D01*
X98044499Y-146315245D01*
X98049123Y-146339708D01*
X98058431Y-146362799D01*
X98072065Y-146383630D01*
X98081197Y-146393803D01*
X98876594Y-147189200D01*
X98881872Y-147242785D01*
X98932053Y-147408209D01*
X99013542Y-147560664D01*
X99123208Y-147694292D01*
X99129564Y-147699508D01*
X99051815Y-147763315D01*
X98972463Y-147860006D01*
X98913498Y-147970320D01*
X98877188Y-148090018D01*
X98864928Y-148214500D01*
X98868000Y-148416250D01*
X99026750Y-148575000D01*
X100076000Y-148575000D01*
X100076000Y-148555000D01*
X100139500Y-148555000D01*
X100139500Y-148849000D01*
X100076000Y-148849000D01*
X100076000Y-148829000D01*
X99026750Y-148829000D01*
X98868000Y-148987750D01*
X98864928Y-149189500D01*
X98877188Y-149313982D01*
X98913498Y-149433680D01*
X98972463Y-149543994D01*
X99051815Y-149640685D01*
X99148506Y-149720037D01*
X99258820Y-149779002D01*
X99378518Y-149815312D01*
X99503000Y-149827572D01*
X99917250Y-149824500D01*
X100075998Y-149665752D01*
X100075998Y-149824500D01*
X100139500Y-149824500D01*
X100139500Y-151828500D01*
X86678451Y-151828500D01*
X86686771Y-150713500D01*
X89498678Y-150713500D01*
X89510938Y-150837982D01*
X89547248Y-150957680D01*
X89606213Y-151067994D01*
X89685565Y-151164685D01*
X89782256Y-151244037D01*
X89892570Y-151303002D01*
X90012268Y-151339312D01*
X90136750Y-151351572D01*
X90551000Y-151348500D01*
X90709750Y-151189750D01*
X90709750Y-150353000D01*
X89660500Y-150353000D01*
X89501750Y-150511750D01*
X89498678Y-150713500D01*
X86686771Y-150713500D01*
X86737435Y-143924631D01*
X86758750Y-143817472D01*
X86758750Y-143573500D01*
X88755606Y-143573500D01*
X88857570Y-143628002D01*
X88857570Y-143628002D01*
G37*
X88857570Y-143628002D02*
X88977268Y-143664312D01*
X89101750Y-143676572D01*
X89651750Y-143676572D01*
X89776232Y-143664312D01*
X89776750Y-143664155D01*
X89777268Y-143664312D01*
X89901750Y-143676572D01*
X90451750Y-143676572D01*
X90576232Y-143664312D01*
X90576750Y-143664155D01*
X90577268Y-143664312D01*
X90701750Y-143676572D01*
X91251750Y-143676572D01*
X91376232Y-143664312D01*
X91376750Y-143664155D01*
X91377268Y-143664312D01*
X91501750Y-143676572D01*
X92051750Y-143676572D01*
X92176232Y-143664312D01*
X92176750Y-143664155D01*
X92177268Y-143664312D01*
X92301750Y-143676572D01*
X92616751Y-143676572D01*
X92616751Y-143766698D01*
X92519950Y-143863499D01*
X91831072Y-143863499D01*
X91793749Y-143859823D01*
X91756426Y-143863499D01*
X91756416Y-143863499D01*
X91644763Y-143874496D01*
X91501502Y-143917953D01*
X91369472Y-143988525D01*
X91335992Y-144016002D01*
X91253748Y-144083498D01*
X91229950Y-144112496D01*
X90325752Y-145016694D01*
X90296749Y-145040497D01*
X90249969Y-145097499D01*
X90201776Y-145156222D01*
X90153529Y-145246485D01*
X90131204Y-145288252D01*
X90087747Y-145431513D01*
X90076750Y-145543166D01*
X90076750Y-145543176D01*
X90073074Y-145580498D01*
X90076750Y-145617821D01*
X90076751Y-147282327D01*
X90043041Y-147292553D01*
X89890586Y-147374042D01*
X89756958Y-147483708D01*
X89647292Y-147617336D01*
X89565803Y-147769791D01*
X89515622Y-147935215D01*
X89498678Y-148107250D01*
X89498678Y-148594750D01*
X89515622Y-148766785D01*
X89565803Y-148932209D01*
X89647292Y-149084664D01*
X89756958Y-149218292D01*
X89763314Y-149223508D01*
X89685565Y-149287315D01*
X89606213Y-149384006D01*
X89547248Y-149494320D01*
X89510938Y-149614018D01*
X89498678Y-149738500D01*
X89501750Y-149940250D01*
X89660500Y-150099000D01*
X90709750Y-150099000D01*
X90709750Y-150079000D01*
X90963750Y-150079000D01*
X90963750Y-150099000D01*
X90983750Y-150099000D01*
X90983750Y-150353000D01*
X90963750Y-150353000D01*
X90963750Y-151189750D01*
X91122500Y-151348500D01*
X91536750Y-151351572D01*
X91661232Y-151339312D01*
X91780930Y-151303002D01*
X91891244Y-151244037D01*
X91894672Y-151241224D01*
X92005068Y-151274712D01*
X92129550Y-151286972D01*
X92331300Y-151283900D01*
X92490050Y-151125150D01*
X92490050Y-150075900D01*
X92470050Y-150075900D01*
X92470050Y-149821900D01*
X92490050Y-149821900D01*
X92490050Y-149801900D01*
X92744050Y-149801900D01*
X92744050Y-149821900D01*
X92764050Y-149821900D01*
X92764050Y-150075900D01*
X92744050Y-150075900D01*
X92744050Y-151125150D01*
X92902800Y-151283900D01*
X93104550Y-151286972D01*
X93229032Y-151274712D01*
X93348730Y-151238402D01*
X93459044Y-151179437D01*
X93555735Y-151100085D01*
X93619542Y-151022336D01*
X93624758Y-151028692D01*
X93758386Y-151138358D01*
X93910841Y-151219847D01*
X94076265Y-151270028D01*
X94248300Y-151286972D01*
X94735800Y-151286972D01*
X94907835Y-151270028D01*
X95073259Y-151219847D01*
X95225714Y-151138358D01*
X95359342Y-151028692D01*
X95469008Y-150895064D01*
X95550497Y-150742609D01*
X95600678Y-150577185D01*
X95617622Y-150405150D01*
X95617622Y-149898130D01*
X95789753Y-149725998D01*
X95818752Y-149702200D01*
X95913725Y-149586475D01*
X95984297Y-149454446D01*
X96027754Y-149311185D01*
X96038751Y-149199532D01*
X96038751Y-149199523D01*
X96042427Y-149162200D01*
X96038751Y-149124877D01*
X96038751Y-146710824D01*
X96042427Y-146673501D01*
X96038751Y-146636178D01*
X96038751Y-146636168D01*
X96027754Y-146524515D01*
X95984297Y-146381254D01*
X95933916Y-146286999D01*
X95913725Y-146249224D01*
X95842550Y-146162498D01*
X95818752Y-146133500D01*
X95789755Y-146109703D01*
X95591822Y-145911770D01*
X95591822Y-144948500D01*
X95579562Y-144824018D01*
X95543252Y-144704320D01*
X95484287Y-144594006D01*
X95404935Y-144497315D01*
X95308244Y-144417963D01*
X95197930Y-144358998D01*
X95078232Y-144322688D01*
X94953750Y-144310428D01*
X94936750Y-144310428D01*
X94936750Y-143573500D01*
X95155606Y-143573500D01*
X95170417Y-143581417D01*
X95262500Y-143673500D01*
X95275827Y-143672380D01*
X95927964Y-144324519D01*
X95951758Y-144353512D01*
X95980751Y-144377306D01*
X95980755Y-144377310D01*
X96030292Y-144417963D01*
X96067483Y-144448485D01*
X96199512Y-144519057D01*
X96342773Y-144562514D01*
X96454426Y-144573511D01*
X96454435Y-144573511D01*
X96491758Y-144577187D01*
X96529081Y-144573511D01*
X97689364Y-144573511D01*
X97691537Y-144578757D01*
X97804805Y-144748275D01*
X97915008Y-144858478D01*
X98044499Y-146315245D01*
X98049123Y-146339708D01*
X98058431Y-146362799D01*
X98072065Y-146383630D01*
X98081197Y-146393803D01*
X98876594Y-147189200D01*
X98881872Y-147242785D01*
X98932053Y-147408209D01*
X99013542Y-147560664D01*
X99123208Y-147694292D01*
X99129564Y-147699508D01*
X99051815Y-147763315D01*
X98972463Y-147860006D01*
X98913498Y-147970320D01*
X98877188Y-148090018D01*
X98864928Y-148214500D01*
X98868000Y-148416250D01*
X99026750Y-148575000D01*
X100076000Y-148575000D01*
X100076000Y-148555000D01*
X100139500Y-148555000D01*
X100139500Y-148849000D01*
X100076000Y-148849000D01*
X100076000Y-148829000D01*
X99026750Y-148829000D01*
X98868000Y-148987750D01*
X98864928Y-149189500D01*
X98877188Y-149313982D01*
X98913498Y-149433680D01*
X98972463Y-149543994D01*
X99051815Y-149640685D01*
X99148506Y-149720037D01*
X99258820Y-149779002D01*
X99378518Y-149815312D01*
X99503000Y-149827572D01*
X99917250Y-149824500D01*
X100075998Y-149665752D01*
X100075998Y-149824500D01*
X100139500Y-149824500D01*
X100139500Y-151828500D01*
X86678451Y-151828500D01*
X86686771Y-150713500D01*
X89498678Y-150713500D01*
X89510938Y-150837982D01*
X89547248Y-150957680D01*
X89606213Y-151067994D01*
X89685565Y-151164685D01*
X89782256Y-151244037D01*
X89892570Y-151303002D01*
X90012268Y-151339312D01*
X90136750Y-151351572D01*
X90551000Y-151348500D01*
X90709750Y-151189750D01*
X90709750Y-150353000D01*
X89660500Y-150353000D01*
X89501750Y-150511750D01*
X89498678Y-150713500D01*
X86686771Y-150713500D01*
X86737435Y-143924631D01*
X86758750Y-143817472D01*
X86758750Y-143573500D01*
X88755606Y-143573500D01*
X88857570Y-143628002D01*
G36*
X94480750Y-147721500D02*
G01*
X94500750Y-147721500D01*
X94500750Y-147975500D01*
X94480750Y-147975500D01*
X94480750Y-147995500D01*
X94226750Y-147995500D01*
X94226750Y-147975500D01*
X94206750Y-147975500D01*
X94206750Y-147721500D01*
X94226750Y-147721500D01*
X94226750Y-147701500D01*
X94480750Y-147701500D01*
X94480750Y-147721500D01*
X94480750Y-147721500D01*
G37*
X94480750Y-147721500D02*
X94500750Y-147721500D01*
X94500750Y-147975500D01*
X94480750Y-147975500D01*
X94480750Y-147995500D01*
X94226750Y-147995500D01*
X94226750Y-147975500D01*
X94206750Y-147975500D01*
X94206750Y-147721500D01*
X94226750Y-147721500D01*
X94226750Y-147701500D01*
X94480750Y-147701500D01*
X94480750Y-147721500D01*
G36*
X92780750Y-145521500D02*
G01*
X92800750Y-145521500D01*
X92800750Y-145775500D01*
X92780750Y-145775500D01*
X92780750Y-145795500D01*
X92526750Y-145795500D01*
X92526750Y-145775500D01*
X92506750Y-145775500D01*
X92506750Y-145521500D01*
X92526750Y-145521500D01*
X92526750Y-145501500D01*
X92780750Y-145501500D01*
X92780750Y-145521500D01*
X92780750Y-145521500D01*
G37*
X92780750Y-145521500D02*
X92800750Y-145521500D01*
X92800750Y-145775500D01*
X92780750Y-145775500D01*
X92780750Y-145795500D01*
X92526750Y-145795500D01*
X92526750Y-145775500D01*
X92506750Y-145775500D01*
X92506750Y-145521500D01*
X92526750Y-145521500D01*
X92526750Y-145501500D01*
X92780750Y-145501500D01*
X92780750Y-145521500D01*
G36*
X97948968Y-144892438D02*
G01*
X98118486Y-145005706D01*
X98306844Y-145083727D01*
X98506803Y-145123501D01*
X98568941Y-145123501D01*
X99079078Y-145633639D01*
X99088764Y-146001678D01*
X99013542Y-146093336D01*
X98932053Y-146245791D01*
X98881872Y-146411215D01*
X98864928Y-146583250D01*
X98864928Y-147070750D01*
X98876969Y-147193000D01*
X97853500Y-147193000D01*
X97853500Y-144796970D01*
X97948968Y-144892438D01*
X97948968Y-144892438D01*
G37*
X97948968Y-144892438D02*
X98118486Y-145005706D01*
X98306844Y-145083727D01*
X98506803Y-145123501D01*
X98568941Y-145123501D01*
X99079078Y-145633639D01*
X99088764Y-146001678D01*
X99013542Y-146093336D01*
X98932053Y-146245791D01*
X98881872Y-146411215D01*
X98864928Y-146583250D01*
X98864928Y-147070750D01*
X98876969Y-147193000D01*
X97853500Y-147193000D01*
X97853500Y-144796970D01*
X97948968Y-144892438D01*
M02*
