G04 #@! TF.GenerationSoftware,KiCad,Pcbnew,(5.1.4)-1*
G04 #@! TF.CreationDate,2020-09-27T22:15:01+10:00*
G04 #@! TF.ProjectId,merchants 60,6d657263-6861-46e7-9473-2036302e6b69,rev?*
G04 #@! TF.SameCoordinates,Original*
G04 #@! TF.FileFunction,Copper,L1,Top*
G04 #@! TF.FilePolarity,Positive*
%FSLAX46Y46*%
G04 Gerber Fmt 4.6, Leading zero omitted, Abs format (unit mm)*
G04 Created by KiCad (PCBNEW (5.1.4)-1) date 2020-09-27 22:15:01*
%MOMM*%
%LPD*%
G04 APERTURE LIST*
%ADD10C,2.250000*%
%ADD11C,2.250000*%
%ADD12C,1.600000*%
%ADD13R,1.600000X1.600000*%
%ADD14C,0.800000*%
%ADD15C,0.250000*%
%ADD16C,0.400000*%
G04 APERTURE END LIST*
D10*
X99100000Y-120618750D03*
X98445001Y-121348750D03*
D11*
X97790000Y-122078750D02*
X99100002Y-120618750D01*
D10*
X104140000Y-119538750D03*
X104120000Y-119828750D03*
D11*
X104100000Y-120118750D02*
X104140000Y-119538750D01*
D10*
X75287500Y-120618750D03*
X74632501Y-121348750D03*
D11*
X73977500Y-122078750D02*
X75287502Y-120618750D01*
D10*
X80327500Y-119538750D03*
X80307500Y-119828750D03*
D11*
X80287500Y-120118750D02*
X80327500Y-119538750D01*
D10*
X356275000Y-82518750D03*
X355620001Y-83248750D03*
D11*
X354965000Y-83978750D02*
X356275002Y-82518750D01*
D10*
X361315000Y-81438750D03*
X361295000Y-81728750D03*
D11*
X361275000Y-82018750D02*
X361315000Y-81438750D01*
D10*
X356275000Y-177768750D03*
X355620001Y-178498750D03*
D11*
X354965000Y-179228750D02*
X356275002Y-177768750D01*
D10*
X361315000Y-176688750D03*
X361295000Y-176978750D03*
D11*
X361275000Y-177268750D02*
X361315000Y-176688750D01*
D10*
X103862500Y-139668750D03*
X103207501Y-140398750D03*
D11*
X102552500Y-141128750D02*
X103862502Y-139668750D01*
D10*
X108902500Y-138588750D03*
X108882500Y-138878750D03*
D11*
X108862500Y-139168750D02*
X108902500Y-138588750D01*
D10*
X356275000Y-158718750D03*
X355620001Y-159448750D03*
D11*
X354965000Y-160178750D02*
X356275002Y-158718750D01*
D10*
X361315000Y-157638750D03*
X361295000Y-157928750D03*
D11*
X361275000Y-158218750D02*
X361315000Y-157638750D01*
D10*
X356275000Y-139668750D03*
X355620001Y-140398750D03*
D11*
X354965000Y-141128750D02*
X356275002Y-139668750D01*
D10*
X361315000Y-138588750D03*
X361295000Y-138878750D03*
D11*
X361275000Y-139168750D02*
X361315000Y-138588750D01*
D10*
X356275000Y-120618750D03*
X355620001Y-121348750D03*
D11*
X354965000Y-122078750D02*
X356275002Y-120618750D01*
D10*
X361315000Y-119538750D03*
X361295000Y-119828750D03*
D11*
X361275000Y-120118750D02*
X361315000Y-119538750D01*
D10*
X356275000Y-101568750D03*
X355620001Y-102298750D03*
D11*
X354965000Y-103028750D02*
X356275002Y-101568750D01*
D10*
X361315000Y-100488750D03*
X361295000Y-100778750D03*
D11*
X361275000Y-101068750D02*
X361315000Y-100488750D01*
D10*
X337225000Y-177768750D03*
X336570001Y-178498750D03*
D11*
X335915000Y-179228750D02*
X337225002Y-177768750D01*
D10*
X342265000Y-176688750D03*
X342245000Y-176978750D03*
D11*
X342225000Y-177268750D02*
X342265000Y-176688750D01*
D10*
X337225000Y-158718750D03*
X336570001Y-159448750D03*
D11*
X335915000Y-160178750D02*
X337225002Y-158718750D01*
D10*
X342265000Y-157638750D03*
X342245000Y-157928750D03*
D11*
X342225000Y-158218750D02*
X342265000Y-157638750D01*
D10*
X332462500Y-120618750D03*
X331807501Y-121348750D03*
D11*
X331152500Y-122078750D02*
X332462502Y-120618750D01*
D10*
X337502500Y-119538750D03*
X337482500Y-119828750D03*
D11*
X337462500Y-120118750D02*
X337502500Y-119538750D01*
D10*
X327700000Y-101568750D03*
X327045001Y-102298750D03*
D11*
X326390000Y-103028750D02*
X327700002Y-101568750D01*
D10*
X332740000Y-100488750D03*
X332720000Y-100778750D03*
D11*
X332700000Y-101068750D02*
X332740000Y-100488750D01*
D10*
X337225000Y-82518750D03*
X336570001Y-83248750D03*
D11*
X335915000Y-83978750D02*
X337225002Y-82518750D01*
D10*
X342265000Y-81438750D03*
X342245000Y-81728750D03*
D11*
X342225000Y-82018750D02*
X342265000Y-81438750D01*
D10*
X318175000Y-177768750D03*
X317520001Y-178498750D03*
D11*
X316865000Y-179228750D02*
X318175002Y-177768750D01*
D10*
X323215000Y-176688750D03*
X323195000Y-176978750D03*
D11*
X323175000Y-177268750D02*
X323215000Y-176688750D01*
D10*
X311031250Y-158718750D03*
X310376251Y-159448750D03*
D11*
X309721250Y-160178750D02*
X311031252Y-158718750D01*
D10*
X316071250Y-157638750D03*
X316051250Y-157928750D03*
D11*
X316031250Y-158218750D02*
X316071250Y-157638750D01*
D10*
X325318750Y-139668750D03*
X324663751Y-140398750D03*
D11*
X324008750Y-141128750D02*
X325318752Y-139668750D01*
D10*
X330358750Y-138588750D03*
X330338750Y-138878750D03*
D11*
X330318750Y-139168750D02*
X330358750Y-138588750D01*
D10*
X318175000Y-82518750D03*
X317520001Y-83248750D03*
D11*
X316865000Y-83978750D02*
X318175002Y-82518750D01*
D10*
X323215000Y-81438750D03*
X323195000Y-81728750D03*
D11*
X323175000Y-82018750D02*
X323215000Y-81438750D01*
D10*
X294362500Y-177768750D03*
X293707501Y-178498750D03*
D11*
X293052500Y-179228750D02*
X294362502Y-177768750D01*
D10*
X299402500Y-176688750D03*
X299382500Y-176978750D03*
D11*
X299362500Y-177268750D02*
X299402500Y-176688750D01*
D10*
X308650000Y-120618750D03*
X307995001Y-121348750D03*
D11*
X307340000Y-122078750D02*
X308650002Y-120618750D01*
D10*
X313690000Y-119538750D03*
X313670000Y-119828750D03*
D11*
X313650000Y-120118750D02*
X313690000Y-119538750D01*
D10*
X299125000Y-101568750D03*
X298470001Y-102298750D03*
D11*
X297815000Y-103028750D02*
X299125002Y-101568750D01*
D10*
X304165000Y-100488750D03*
X304145000Y-100778750D03*
D11*
X304125000Y-101068750D02*
X304165000Y-100488750D01*
D10*
X299125000Y-82518750D03*
X298470001Y-83248750D03*
D11*
X297815000Y-83978750D02*
X299125002Y-82518750D01*
D10*
X304165000Y-81438750D03*
X304145000Y-81728750D03*
D11*
X304125000Y-82018750D02*
X304165000Y-81438750D01*
D10*
X294362500Y-139668750D03*
X293707501Y-140398750D03*
D11*
X293052500Y-141128750D02*
X294362502Y-139668750D01*
D10*
X299402500Y-138588750D03*
X299382500Y-138878750D03*
D11*
X299362500Y-139168750D02*
X299402500Y-138588750D01*
D10*
X289600000Y-120618750D03*
X288945001Y-121348750D03*
D11*
X288290000Y-122078750D02*
X289600002Y-120618750D01*
D10*
X294640000Y-119538750D03*
X294620000Y-119828750D03*
D11*
X294600000Y-120118750D02*
X294640000Y-119538750D01*
D10*
X280075000Y-101568750D03*
X279420001Y-102298750D03*
D11*
X278765000Y-103028750D02*
X280075002Y-101568750D01*
D10*
X285115000Y-100488750D03*
X285095000Y-100778750D03*
D11*
X285075000Y-101068750D02*
X285115000Y-100488750D01*
D10*
X280075000Y-82518750D03*
X279420001Y-83248750D03*
D11*
X278765000Y-83978750D02*
X280075002Y-82518750D01*
D10*
X285115000Y-81438750D03*
X285095000Y-81728750D03*
D11*
X285075000Y-82018750D02*
X285115000Y-81438750D01*
D10*
X284837500Y-158718750D03*
X284182501Y-159448750D03*
D11*
X283527500Y-160178750D02*
X284837502Y-158718750D01*
D10*
X289877500Y-157638750D03*
X289857500Y-157928750D03*
D11*
X289837500Y-158218750D02*
X289877500Y-157638750D01*
D10*
X275312500Y-139668750D03*
X274657501Y-140398750D03*
D11*
X274002500Y-141128750D02*
X275312502Y-139668750D01*
D10*
X280352500Y-138588750D03*
X280332500Y-138878750D03*
D11*
X280312500Y-139168750D02*
X280352500Y-138588750D01*
D10*
X270550000Y-120618750D03*
X269895001Y-121348750D03*
D11*
X269240000Y-122078750D02*
X270550002Y-120618750D01*
D10*
X275590000Y-119538750D03*
X275570000Y-119828750D03*
D11*
X275550000Y-120118750D02*
X275590000Y-119538750D01*
D10*
X261025000Y-101568750D03*
X260370001Y-102298750D03*
D11*
X259715000Y-103028750D02*
X261025002Y-101568750D01*
D10*
X266065000Y-100488750D03*
X266045000Y-100778750D03*
D11*
X266025000Y-101068750D02*
X266065000Y-100488750D01*
D10*
X261025000Y-82518750D03*
X260370001Y-83248750D03*
D11*
X259715000Y-83978750D02*
X261025002Y-82518750D01*
D10*
X266065000Y-81438750D03*
X266045000Y-81728750D03*
D11*
X266025000Y-82018750D02*
X266065000Y-81438750D01*
D10*
X265787500Y-177768750D03*
X265132501Y-178498750D03*
D11*
X264477500Y-179228750D02*
X265787502Y-177768750D01*
D10*
X270827500Y-176688750D03*
X270807500Y-176978750D03*
D11*
X270787500Y-177268750D02*
X270827500Y-176688750D01*
D10*
X265787500Y-158718750D03*
X265132501Y-159448750D03*
D11*
X264477500Y-160178750D02*
X265787502Y-158718750D01*
D10*
X270827500Y-157638750D03*
X270807500Y-157928750D03*
D11*
X270787500Y-158218750D02*
X270827500Y-157638750D01*
D10*
X256262500Y-139668750D03*
X255607501Y-140398750D03*
D11*
X254952500Y-141128750D02*
X256262502Y-139668750D01*
D10*
X261302500Y-138588750D03*
X261282500Y-138878750D03*
D11*
X261262500Y-139168750D02*
X261302500Y-138588750D01*
D10*
X251500000Y-120618750D03*
X250845001Y-121348750D03*
D11*
X250190000Y-122078750D02*
X251500002Y-120618750D01*
D10*
X256540000Y-119538750D03*
X256520000Y-119828750D03*
D11*
X256500000Y-120118750D02*
X256540000Y-119538750D01*
D10*
X241975000Y-101568750D03*
X241320001Y-102298750D03*
D11*
X240665000Y-103028750D02*
X241975002Y-101568750D01*
D10*
X247015000Y-100488750D03*
X246995000Y-100778750D03*
D11*
X246975000Y-101068750D02*
X247015000Y-100488750D01*
D10*
X241975000Y-82518750D03*
X241320001Y-83248750D03*
D11*
X240665000Y-83978750D02*
X241975002Y-82518750D01*
D10*
X247015000Y-81438750D03*
X246995000Y-81728750D03*
D11*
X246975000Y-82018750D02*
X247015000Y-81438750D01*
D10*
X246737500Y-158718750D03*
X246082501Y-159448750D03*
D11*
X245427500Y-160178750D02*
X246737502Y-158718750D01*
D10*
X251777500Y-157638750D03*
X251757500Y-157928750D03*
D11*
X251737500Y-158218750D02*
X251777500Y-157638750D01*
D10*
X237212500Y-139668750D03*
X236557501Y-140398750D03*
D11*
X235902500Y-141128750D02*
X237212502Y-139668750D01*
D10*
X242252500Y-138588750D03*
X242232500Y-138878750D03*
D11*
X242212500Y-139168750D02*
X242252500Y-138588750D01*
D10*
X232450000Y-120618750D03*
X231795001Y-121348750D03*
D11*
X231140000Y-122078750D02*
X232450002Y-120618750D01*
D10*
X237490000Y-119538750D03*
X237470000Y-119828750D03*
D11*
X237450000Y-120118750D02*
X237490000Y-119538750D01*
D10*
X222925000Y-101568750D03*
X222270001Y-102298750D03*
D11*
X221615000Y-103028750D02*
X222925002Y-101568750D01*
D10*
X227965000Y-100488750D03*
X227945000Y-100778750D03*
D11*
X227925000Y-101068750D02*
X227965000Y-100488750D01*
D10*
X222925000Y-82518750D03*
X222270001Y-83248750D03*
D11*
X221615000Y-83978750D02*
X222925002Y-82518750D01*
D10*
X227965000Y-81438750D03*
X227945000Y-81728750D03*
D11*
X227925000Y-82018750D02*
X227965000Y-81438750D01*
D10*
X227687500Y-158718750D03*
X227032501Y-159448750D03*
D11*
X226377500Y-160178750D02*
X227687502Y-158718750D01*
D10*
X232727500Y-157638750D03*
X232707500Y-157928750D03*
D11*
X232687500Y-158218750D02*
X232727500Y-157638750D01*
D10*
X218162500Y-139668750D03*
X217507501Y-140398750D03*
D11*
X216852500Y-141128750D02*
X218162502Y-139668750D01*
D10*
X223202500Y-138588750D03*
X223182500Y-138878750D03*
D11*
X223162500Y-139168750D02*
X223202500Y-138588750D01*
D10*
X213400000Y-120618750D03*
X212745001Y-121348750D03*
D11*
X212090000Y-122078750D02*
X213400002Y-120618750D01*
D10*
X218440000Y-119538750D03*
X218420000Y-119828750D03*
D11*
X218400000Y-120118750D02*
X218440000Y-119538750D01*
D10*
X203875000Y-101568750D03*
X203220001Y-102298750D03*
D11*
X202565000Y-103028750D02*
X203875002Y-101568750D01*
D10*
X208915000Y-100488750D03*
X208895000Y-100778750D03*
D11*
X208875000Y-101068750D02*
X208915000Y-100488750D01*
D10*
X203875000Y-82518750D03*
X203220001Y-83248750D03*
D11*
X202565000Y-83978750D02*
X203875002Y-82518750D01*
D10*
X208915000Y-81438750D03*
X208895000Y-81728750D03*
D11*
X208875000Y-82018750D02*
X208915000Y-81438750D01*
D10*
X208637500Y-158718750D03*
X207982501Y-159448750D03*
D11*
X207327500Y-160178750D02*
X208637502Y-158718750D01*
D10*
X213677500Y-157638750D03*
X213657500Y-157928750D03*
D11*
X213637500Y-158218750D02*
X213677500Y-157638750D01*
D10*
X199112500Y-139668750D03*
X198457501Y-140398750D03*
D11*
X197802500Y-141128750D02*
X199112502Y-139668750D01*
D10*
X204152500Y-138588750D03*
X204132500Y-138878750D03*
D11*
X204112500Y-139168750D02*
X204152500Y-138588750D01*
D10*
X194350000Y-120618750D03*
X193695001Y-121348750D03*
D11*
X193040000Y-122078750D02*
X194350002Y-120618750D01*
D10*
X199390000Y-119538750D03*
X199370000Y-119828750D03*
D11*
X199350000Y-120118750D02*
X199390000Y-119538750D01*
D10*
X184825000Y-101568750D03*
X184170001Y-102298750D03*
D11*
X183515000Y-103028750D02*
X184825002Y-101568750D01*
D10*
X189865000Y-100488750D03*
X189845000Y-100778750D03*
D11*
X189825000Y-101068750D02*
X189865000Y-100488750D01*
D10*
X184825000Y-82518750D03*
X184170001Y-83248750D03*
D11*
X183515000Y-83978750D02*
X184825002Y-82518750D01*
D10*
X189865000Y-81438750D03*
X189845000Y-81728750D03*
D11*
X189825000Y-82018750D02*
X189865000Y-81438750D01*
D10*
X191968750Y-177768750D03*
X191313751Y-178498750D03*
D11*
X190658750Y-179228750D02*
X191968752Y-177768750D01*
D10*
X197008750Y-176688750D03*
X196988750Y-176978750D03*
D11*
X196968750Y-177268750D02*
X197008750Y-176688750D01*
D10*
X189587500Y-158718750D03*
X188932501Y-159448750D03*
D11*
X188277500Y-160178750D02*
X189587502Y-158718750D01*
D10*
X194627500Y-157638750D03*
X194607500Y-157928750D03*
D11*
X194587500Y-158218750D02*
X194627500Y-157638750D01*
D10*
X180062500Y-139668750D03*
X179407501Y-140398750D03*
D11*
X178752500Y-141128750D02*
X180062502Y-139668750D01*
D10*
X185102500Y-138588750D03*
X185082500Y-138878750D03*
D11*
X185062500Y-139168750D02*
X185102500Y-138588750D01*
D10*
X175300000Y-120618750D03*
X174645001Y-121348750D03*
D11*
X173990000Y-122078750D02*
X175300002Y-120618750D01*
D10*
X180340000Y-119538750D03*
X180320000Y-119828750D03*
D11*
X180300000Y-120118750D02*
X180340000Y-119538750D01*
D10*
X165775000Y-101568750D03*
X165120001Y-102298750D03*
D11*
X164465000Y-103028750D02*
X165775002Y-101568750D01*
D10*
X170815000Y-100488750D03*
X170795000Y-100778750D03*
D11*
X170775000Y-101068750D02*
X170815000Y-100488750D01*
D10*
X165775000Y-82518750D03*
X165120001Y-83248750D03*
D11*
X164465000Y-83978750D02*
X165775002Y-82518750D01*
D10*
X170815000Y-81438750D03*
X170795000Y-81728750D03*
D11*
X170775000Y-82018750D02*
X170815000Y-81438750D01*
D10*
X170537500Y-158718750D03*
X169882501Y-159448750D03*
D11*
X169227500Y-160178750D02*
X170537502Y-158718750D01*
D10*
X175577500Y-157638750D03*
X175557500Y-157928750D03*
D11*
X175537500Y-158218750D02*
X175577500Y-157638750D01*
D10*
X161012500Y-139668750D03*
X160357501Y-140398750D03*
D11*
X159702500Y-141128750D02*
X161012502Y-139668750D01*
D10*
X166052500Y-138588750D03*
X166032500Y-138878750D03*
D11*
X166012500Y-139168750D02*
X166052500Y-138588750D01*
D10*
X156250000Y-120618750D03*
X155595001Y-121348750D03*
D11*
X154940000Y-122078750D02*
X156250002Y-120618750D01*
D10*
X161290000Y-119538750D03*
X161270000Y-119828750D03*
D11*
X161250000Y-120118750D02*
X161290000Y-119538750D01*
D10*
X146725000Y-101568750D03*
X146070001Y-102298750D03*
D11*
X145415000Y-103028750D02*
X146725002Y-101568750D01*
D10*
X151765000Y-100488750D03*
X151745000Y-100778750D03*
D11*
X151725000Y-101068750D02*
X151765000Y-100488750D01*
D10*
X146725000Y-82518750D03*
X146070001Y-83248750D03*
D11*
X145415000Y-83978750D02*
X146725002Y-82518750D01*
D10*
X151765000Y-81438750D03*
X151745000Y-81728750D03*
D11*
X151725000Y-82018750D02*
X151765000Y-81438750D01*
D10*
X151487500Y-158718750D03*
X150832501Y-159448750D03*
D11*
X150177500Y-160178750D02*
X151487502Y-158718750D01*
D10*
X156527500Y-157638750D03*
X156507500Y-157928750D03*
D11*
X156487500Y-158218750D02*
X156527500Y-157638750D01*
D10*
X141962500Y-139668750D03*
X141307501Y-140398750D03*
D11*
X140652500Y-141128750D02*
X141962502Y-139668750D01*
D10*
X147002500Y-138588750D03*
X146982500Y-138878750D03*
D11*
X146962500Y-139168750D02*
X147002500Y-138588750D01*
D10*
X137200000Y-120618750D03*
X136545001Y-121348750D03*
D11*
X135890000Y-122078750D02*
X137200002Y-120618750D01*
D10*
X142240000Y-119538750D03*
X142220000Y-119828750D03*
D11*
X142200000Y-120118750D02*
X142240000Y-119538750D01*
D10*
X127675000Y-101568750D03*
X127020001Y-102298750D03*
D11*
X126365000Y-103028750D02*
X127675002Y-101568750D01*
D10*
X132715000Y-100488750D03*
X132695000Y-100778750D03*
D11*
X132675000Y-101068750D02*
X132715000Y-100488750D01*
D10*
X127675000Y-82518750D03*
X127020001Y-83248750D03*
D11*
X126365000Y-83978750D02*
X127675002Y-82518750D01*
D10*
X132715000Y-81438750D03*
X132695000Y-81728750D03*
D11*
X132675000Y-82018750D02*
X132715000Y-81438750D01*
D10*
X120531250Y-177768750D03*
X119876251Y-178498750D03*
D11*
X119221250Y-179228750D02*
X120531252Y-177768750D01*
D10*
X125571250Y-176688750D03*
X125551250Y-176978750D03*
D11*
X125531250Y-177268750D02*
X125571250Y-176688750D01*
D10*
X132437500Y-158718750D03*
X131782501Y-159448750D03*
D11*
X131127500Y-160178750D02*
X132437502Y-158718750D01*
D10*
X137477500Y-157638750D03*
X137457500Y-157928750D03*
D11*
X137437500Y-158218750D02*
X137477500Y-157638750D01*
D10*
X122912500Y-139668750D03*
X122257501Y-140398750D03*
D11*
X121602500Y-141128750D02*
X122912502Y-139668750D01*
D10*
X127952500Y-138588750D03*
X127932500Y-138878750D03*
D11*
X127912500Y-139168750D02*
X127952500Y-138588750D01*
D10*
X118150000Y-120618750D03*
X117495001Y-121348750D03*
D11*
X116840000Y-122078750D02*
X118150002Y-120618750D01*
D10*
X123190000Y-119538750D03*
X123170000Y-119828750D03*
D11*
X123150000Y-120118750D02*
X123190000Y-119538750D01*
D10*
X108625000Y-101568750D03*
X107970001Y-102298750D03*
D11*
X107315000Y-103028750D02*
X108625002Y-101568750D01*
D10*
X113665000Y-100488750D03*
X113645000Y-100778750D03*
D11*
X113625000Y-101068750D02*
X113665000Y-100488750D01*
D10*
X108625000Y-82518750D03*
X107970001Y-83248750D03*
D11*
X107315000Y-83978750D02*
X108625002Y-82518750D01*
D10*
X113665000Y-81438750D03*
X113645000Y-81728750D03*
D11*
X113625000Y-82018750D02*
X113665000Y-81438750D01*
D10*
X96718750Y-177768750D03*
X96063751Y-178498750D03*
D11*
X95408750Y-179228750D02*
X96718752Y-177768750D01*
D10*
X101758750Y-176688750D03*
X101738750Y-176978750D03*
D11*
X101718750Y-177268750D02*
X101758750Y-176688750D01*
D10*
X113387500Y-158718750D03*
X112732501Y-159448750D03*
D11*
X112077500Y-160178750D02*
X113387502Y-158718750D01*
D10*
X118427500Y-157638750D03*
X118407500Y-157928750D03*
D11*
X118387500Y-158218750D02*
X118427500Y-157638750D01*
D10*
X89575000Y-101568750D03*
X88920001Y-102298750D03*
D11*
X88265000Y-103028750D02*
X89575002Y-101568750D01*
D10*
X94615000Y-100488750D03*
X94595000Y-100778750D03*
D11*
X94575000Y-101068750D02*
X94615000Y-100488750D01*
D10*
X89575000Y-82518750D03*
X88920001Y-83248750D03*
D11*
X88265000Y-83978750D02*
X89575002Y-82518750D01*
D10*
X94615000Y-81438750D03*
X94595000Y-81728750D03*
D11*
X94575000Y-82018750D02*
X94615000Y-81438750D01*
D10*
X72906250Y-177768750D03*
X72251251Y-178498750D03*
D11*
X71596250Y-179228750D02*
X72906252Y-177768750D01*
D10*
X77946250Y-176688750D03*
X77926250Y-176978750D03*
D11*
X77906250Y-177268750D02*
X77946250Y-176688750D01*
D10*
X82431250Y-158718750D03*
X81776251Y-159448750D03*
D11*
X81121250Y-160178750D02*
X82431252Y-158718750D01*
D10*
X87471250Y-157638750D03*
X87451250Y-157928750D03*
D11*
X87431250Y-158218750D02*
X87471250Y-157638750D01*
D10*
X77668750Y-139668750D03*
X77013751Y-140398750D03*
D11*
X76358750Y-141128750D02*
X77668752Y-139668750D01*
D10*
X82708750Y-138588750D03*
X82688750Y-138878750D03*
D11*
X82668750Y-139168750D02*
X82708750Y-138588750D01*
D10*
X70525000Y-101568750D03*
X69870001Y-102298750D03*
D11*
X69215000Y-103028750D02*
X70525002Y-101568750D01*
D10*
X75565000Y-100488750D03*
X75545000Y-100778750D03*
D11*
X75525000Y-101068750D02*
X75565000Y-100488750D01*
D10*
X70525000Y-82518750D03*
X69870001Y-83248750D03*
D11*
X69215000Y-83978750D02*
X70525002Y-82518750D01*
D10*
X75565000Y-81438750D03*
X75545000Y-81728750D03*
D11*
X75525000Y-82018750D02*
X75565000Y-81438750D01*
D12*
X362452750Y-190182500D03*
D13*
X354652750Y-190182500D03*
D12*
X367061750Y-163422500D03*
D13*
X367061750Y-171222500D03*
D12*
X367061750Y-144372500D03*
D13*
X367061750Y-152172500D03*
D12*
X367061750Y-125322500D03*
D13*
X367061750Y-133122500D03*
D12*
X367061750Y-106272500D03*
D13*
X367061750Y-114072500D03*
D12*
X367061750Y-87222500D03*
D13*
X367061750Y-95022500D03*
D12*
X348011750Y-182472500D03*
D13*
X348011750Y-190272500D03*
D12*
X348011750Y-163422500D03*
D13*
X348011750Y-171222500D03*
D12*
X347884750Y-125322500D03*
D13*
X347884750Y-133122500D03*
D12*
X348011750Y-106272500D03*
D13*
X348011750Y-114072500D03*
D12*
X348011750Y-87222500D03*
D13*
X348011750Y-95022500D03*
D12*
X328961750Y-182472500D03*
D13*
X328961750Y-190272500D03*
D12*
X328834750Y-163422500D03*
D13*
X328834750Y-171222500D03*
D12*
X335946750Y-144245500D03*
D13*
X335946750Y-152045500D03*
D12*
X328961750Y-87222500D03*
D13*
X328961750Y-95022500D03*
D12*
X305085750Y-182472500D03*
D13*
X305085750Y-190272500D03*
D12*
X319436750Y-125322500D03*
D13*
X319436750Y-133122500D03*
D12*
X309911750Y-106272500D03*
D13*
X309911750Y-114072500D03*
D12*
X310038750Y-87222500D03*
D13*
X310038750Y-95022500D03*
D12*
X305085750Y-144372500D03*
D13*
X305085750Y-152172500D03*
D12*
X300386750Y-125322500D03*
D13*
X300386750Y-133122500D03*
D12*
X290861750Y-106272500D03*
D13*
X290861750Y-114072500D03*
D12*
X290861750Y-87222500D03*
D13*
X290861750Y-95022500D03*
D12*
X295560750Y-163422500D03*
D13*
X295560750Y-171222500D03*
D12*
X286035750Y-144372500D03*
D13*
X286035750Y-152172500D03*
D12*
X281336750Y-125322500D03*
D13*
X281336750Y-133122500D03*
D12*
X271811750Y-106272500D03*
D13*
X271811750Y-114072500D03*
D12*
X271811750Y-87222500D03*
D13*
X271811750Y-95022500D03*
D12*
X276637750Y-182472500D03*
D13*
X276637750Y-190272500D03*
D12*
X276510750Y-163422500D03*
D13*
X276510750Y-171222500D03*
D12*
X266985750Y-144372500D03*
D13*
X266985750Y-152172500D03*
D12*
X262286750Y-125322500D03*
D13*
X262286750Y-133122500D03*
D12*
X252761750Y-106272500D03*
D13*
X252761750Y-114072500D03*
D12*
X252761750Y-87222500D03*
D13*
X252761750Y-95022500D03*
D12*
X257460750Y-163422500D03*
D13*
X257460750Y-171222500D03*
D12*
X247935750Y-144372500D03*
D13*
X247935750Y-152172500D03*
D12*
X243236750Y-125322500D03*
D13*
X243236750Y-133122500D03*
D12*
X233711750Y-106272500D03*
D13*
X233711750Y-114072500D03*
D12*
X233711750Y-87222500D03*
D13*
X233711750Y-95022500D03*
D12*
X238410750Y-163422500D03*
D13*
X238410750Y-171222500D03*
D12*
X228885750Y-144372500D03*
D13*
X228885750Y-152172500D03*
D12*
X224186750Y-125322500D03*
D13*
X224186750Y-133122500D03*
D12*
X214661750Y-106272500D03*
D13*
X214661750Y-114072500D03*
D12*
X214661750Y-87222500D03*
D13*
X214661750Y-95022500D03*
D12*
X219360750Y-163422500D03*
D13*
X219360750Y-171222500D03*
D12*
X209835750Y-144372500D03*
D13*
X209835750Y-152172500D03*
D12*
X205136750Y-125322500D03*
D13*
X205136750Y-133122500D03*
D12*
X195611750Y-106272500D03*
D13*
X195611750Y-114072500D03*
D12*
X195611750Y-87222500D03*
D13*
X195611750Y-95022500D03*
D12*
X202723750Y-182472500D03*
D13*
X202723750Y-190272500D03*
D12*
X200310750Y-163422500D03*
D13*
X200310750Y-171222500D03*
D12*
X190785750Y-144372500D03*
D13*
X190785750Y-152172500D03*
D12*
X186086750Y-125322500D03*
D13*
X186086750Y-133122500D03*
D12*
X176561750Y-106272500D03*
D13*
X176561750Y-114072500D03*
D12*
X176561750Y-87222500D03*
D13*
X176561750Y-95022500D03*
D12*
X181260750Y-163422500D03*
D13*
X181260750Y-171222500D03*
D12*
X171735750Y-144372500D03*
D13*
X171735750Y-152172500D03*
D12*
X167036750Y-125322500D03*
D13*
X167036750Y-133122500D03*
D12*
X157511750Y-106272500D03*
D13*
X157511750Y-114072500D03*
D12*
X157511750Y-87222500D03*
D13*
X157511750Y-95022500D03*
D12*
X162210750Y-163422500D03*
D13*
X162210750Y-171222500D03*
D12*
X152685750Y-144372500D03*
D13*
X152685750Y-152172500D03*
D12*
X147986750Y-125322500D03*
D13*
X147986750Y-133122500D03*
D12*
X138461750Y-106272500D03*
D13*
X138461750Y-114072500D03*
D12*
X138461750Y-87222500D03*
D13*
X138461750Y-95022500D03*
D12*
X133635750Y-182345500D03*
D13*
X133635750Y-190145500D03*
D12*
X143160750Y-163422500D03*
D13*
X143160750Y-171222500D03*
D12*
X133762750Y-144372500D03*
D13*
X133762750Y-152172500D03*
D12*
X128936750Y-125322500D03*
D13*
X128936750Y-133122500D03*
D12*
X119411750Y-106272500D03*
D13*
X119411750Y-114072500D03*
D12*
X119411750Y-87146500D03*
D13*
X119411750Y-94946500D03*
D12*
X109886750Y-182472500D03*
D13*
X109886750Y-190272500D03*
D12*
X124110750Y-163422500D03*
D13*
X124110750Y-171222500D03*
D12*
X114585750Y-144372500D03*
D13*
X114585750Y-152172500D03*
D12*
X109886750Y-125322500D03*
D13*
X109886750Y-133122500D03*
D12*
X100361750Y-106272500D03*
D13*
X100361750Y-114072500D03*
D12*
X100361750Y-87222500D03*
D13*
X100361750Y-95022500D03*
D12*
X86010750Y-182472500D03*
D13*
X86010750Y-190272500D03*
D12*
X105060750Y-163422500D03*
D13*
X105060750Y-171222500D03*
D12*
X83216750Y-146226700D03*
D13*
X83216750Y-154026700D03*
D12*
X84625350Y-117589300D03*
D13*
X92425350Y-117589300D03*
D12*
X81311750Y-106272500D03*
D13*
X81311750Y-114072500D03*
D12*
X81311750Y-87222500D03*
D13*
X81311750Y-95022500D03*
D14*
X86899750Y-128714500D03*
X100742750Y-133413500D03*
X100996750Y-137477500D03*
X100757750Y-128572500D03*
X85375750Y-138620500D03*
X98608742Y-144088501D03*
X96774000Y-127635000D03*
X70739000Y-131572000D03*
X64770000Y-100330000D03*
X72390000Y-131144750D03*
X68834000Y-116459000D03*
X72009000Y-130175000D03*
X70485000Y-117856000D03*
X71374000Y-132594751D03*
X73533000Y-148971000D03*
X72263000Y-133319751D03*
X70993000Y-161671000D03*
X73025000Y-134366000D03*
X65532000Y-168910000D03*
X107473750Y-133032500D03*
X113538000Y-130683000D03*
X227950520Y-129286000D03*
X218694000Y-76835000D03*
X86741000Y-121285000D03*
X102489000Y-115951000D03*
X103505000Y-115951000D03*
X112395000Y-115951000D03*
X114427000Y-115570000D03*
X104059701Y-116783051D03*
X113139314Y-116653650D03*
X133199778Y-115593222D03*
X104648000Y-117729000D03*
X109093000Y-117729000D03*
X160401000Y-116332000D03*
X96932750Y-137477500D03*
X101981000Y-129667000D03*
X107823000Y-129540000D03*
X115316000Y-129413000D03*
X118491000Y-129413000D03*
X121666000Y-136017000D03*
X194564000Y-138049000D03*
X96970472Y-138540528D03*
X103124000Y-133813490D03*
X106426000Y-133813490D03*
X115697000Y-139573000D03*
X121793000Y-156845000D03*
X218567000Y-155448000D03*
X96917786Y-139539141D03*
X107950000Y-165481000D03*
X244729000Y-166751000D03*
X96949052Y-140538655D03*
X107061000Y-165989000D03*
X261112000Y-164465000D03*
X93249750Y-140398500D03*
X92710000Y-157493750D03*
X94365653Y-161158347D03*
X87506654Y-168024654D03*
X281051000Y-173228000D03*
X92237096Y-140385849D03*
X90932000Y-156718000D03*
X93095653Y-159888347D03*
X85471000Y-168021000D03*
X300355000Y-172974000D03*
X301879000Y-169799000D03*
X300482000Y-166243000D03*
X91212734Y-140390660D03*
X84080140Y-168027140D03*
X291211000Y-177927000D03*
X90212854Y-140406245D03*
X81407000Y-168148000D03*
X316103000Y-185039000D03*
X89212902Y-140396228D03*
X80264000Y-168148000D03*
X331343000Y-185674000D03*
X80391000Y-135636000D03*
X84201000Y-79375000D03*
X352933000Y-80010000D03*
X217937159Y-77710797D03*
X227500510Y-134321652D03*
X216920528Y-77719472D03*
X227076000Y-135255000D03*
X110752597Y-141564653D03*
X226250500Y-136842500D03*
X215646000Y-78142000D03*
D15*
X100742750Y-128587500D02*
X100757750Y-128572500D01*
X87041750Y-128572500D02*
X86899750Y-128714500D01*
D16*
X98608742Y-144088501D02*
X93902741Y-139382500D01*
X86137750Y-139382500D02*
X85375750Y-138620500D01*
X93902741Y-139382500D02*
X86137750Y-139382500D01*
X85375750Y-130238500D02*
X86899750Y-128714500D01*
X85375750Y-138620500D02*
X85375750Y-130238500D01*
X100615750Y-128714500D02*
X100757750Y-128572500D01*
X100757750Y-133398500D02*
X100742750Y-133413500D01*
X100757750Y-128572500D02*
X100757750Y-133398500D01*
X100742750Y-137223500D02*
X100996750Y-137477500D01*
X100742750Y-133413500D02*
X100742750Y-137223500D01*
X96774000Y-128651000D02*
X96710500Y-128714500D01*
X96774000Y-127635000D02*
X96774000Y-128651000D01*
X86899750Y-128714500D02*
X96710500Y-128714500D01*
X96710500Y-128714500D02*
X100615750Y-128714500D01*
D15*
X76108000Y-82018750D02*
X81311750Y-87222500D01*
X75525000Y-82018750D02*
X76108000Y-82018750D01*
X64770000Y-125603000D02*
X70739000Y-131572000D01*
X64770000Y-100330000D02*
X64770000Y-125603000D01*
X76108000Y-101068750D02*
X81311750Y-106272500D01*
X75525000Y-101068750D02*
X76108000Y-101068750D01*
X71824315Y-131144750D02*
X72390000Y-131144750D01*
X71384752Y-131144750D02*
X71824315Y-131144750D01*
X68834000Y-128593998D02*
X71384752Y-131144750D01*
X68834000Y-116459000D02*
X68834000Y-128593998D01*
X70485000Y-128651000D02*
X72009000Y-130175000D01*
X70485000Y-117856000D02*
X70485000Y-128651000D01*
X83216750Y-139716750D02*
X82668750Y-139168750D01*
X83216750Y-146226700D02*
X83216750Y-139716750D01*
X99857000Y-158218750D02*
X105060750Y-163422500D01*
X87431250Y-158218750D02*
X99857000Y-158218750D01*
X80807000Y-177268750D02*
X86010750Y-182472500D01*
X77906250Y-177268750D02*
X80807000Y-177268750D01*
X68961000Y-144399000D02*
X73533000Y-148971000D01*
X73025000Y-134366000D02*
X68961000Y-138430000D01*
X68961000Y-138430000D02*
X68961000Y-144399000D01*
X71697315Y-133319751D02*
X66802000Y-138215066D01*
X72263000Y-133319751D02*
X71697315Y-133319751D01*
X66802000Y-157480000D02*
X70993000Y-161671000D01*
X66802000Y-138215066D02*
X66802000Y-157480000D01*
X65532000Y-168344315D02*
X65532000Y-168910000D01*
X65532000Y-137751500D02*
X65532000Y-168344315D01*
X70688749Y-132594751D02*
X65532000Y-137751500D01*
X71374000Y-132594751D02*
X70688749Y-132594751D01*
X95158000Y-82018750D02*
X100361750Y-87222500D01*
X94575000Y-82018750D02*
X95158000Y-82018750D01*
X95158000Y-101068750D02*
X100361750Y-106272500D01*
X94575000Y-101068750D02*
X95158000Y-101068750D01*
X104683000Y-120118750D02*
X109886750Y-125322500D01*
X104100000Y-120118750D02*
X104683000Y-120118750D01*
X109382000Y-139168750D02*
X114585750Y-144372500D01*
X108862500Y-139168750D02*
X109382000Y-139168750D01*
X118907000Y-158218750D02*
X124110750Y-163422500D01*
X118387500Y-158218750D02*
X118907000Y-158218750D01*
X104683000Y-177268750D02*
X109886750Y-182472500D01*
X101718750Y-177268750D02*
X104683000Y-177268750D01*
X114284000Y-82018750D02*
X119411750Y-87146500D01*
X113625000Y-82018750D02*
X114284000Y-82018750D01*
X114208000Y-101068750D02*
X119411750Y-106272500D01*
X113625000Y-101068750D02*
X114208000Y-101068750D01*
X123733000Y-120118750D02*
X128936750Y-125322500D01*
X123150000Y-120118750D02*
X123733000Y-120118750D01*
X128559000Y-139168750D02*
X133762750Y-144372500D01*
X127912500Y-139168750D02*
X128559000Y-139168750D01*
X137957000Y-158218750D02*
X143160750Y-163422500D01*
X137437500Y-158218750D02*
X137957000Y-158218750D01*
X128559000Y-177268750D02*
X133635750Y-182345500D01*
X125531250Y-177268750D02*
X128559000Y-177268750D01*
X133258000Y-82018750D02*
X138461750Y-87222500D01*
X132675000Y-82018750D02*
X133258000Y-82018750D01*
X133258000Y-101068750D02*
X138461750Y-106272500D01*
X132675000Y-101068750D02*
X133258000Y-101068750D01*
X142783000Y-120118750D02*
X147986750Y-125322500D01*
X142200000Y-120118750D02*
X142783000Y-120118750D01*
X147482000Y-139168750D02*
X152685750Y-144372500D01*
X146962500Y-139168750D02*
X147482000Y-139168750D01*
X157007000Y-158218750D02*
X162210750Y-163422500D01*
X156487500Y-158218750D02*
X157007000Y-158218750D01*
X152308000Y-82018750D02*
X157511750Y-87222500D01*
X151725000Y-82018750D02*
X152308000Y-82018750D01*
X152308000Y-101068750D02*
X157511750Y-106272500D01*
X151725000Y-101068750D02*
X152308000Y-101068750D01*
X161833000Y-120118750D02*
X167036750Y-125322500D01*
X161250000Y-120118750D02*
X161833000Y-120118750D01*
X166532000Y-139168750D02*
X171735750Y-144372500D01*
X166012500Y-139168750D02*
X166532000Y-139168750D01*
X176057000Y-158218750D02*
X181260750Y-163422500D01*
X175537500Y-158218750D02*
X176057000Y-158218750D01*
X171358000Y-82018750D02*
X176561750Y-87222500D01*
X170775000Y-82018750D02*
X171358000Y-82018750D01*
X171358000Y-101068750D02*
X176561750Y-106272500D01*
X170775000Y-101068750D02*
X171358000Y-101068750D01*
X180883000Y-120118750D02*
X186086750Y-125322500D01*
X180300000Y-120118750D02*
X180883000Y-120118750D01*
X185582000Y-139168750D02*
X190785750Y-144372500D01*
X185062500Y-139168750D02*
X185582000Y-139168750D01*
X195107000Y-158218750D02*
X200310750Y-163422500D01*
X194587500Y-158218750D02*
X195107000Y-158218750D01*
X197520000Y-177268750D02*
X202723750Y-182472500D01*
X196968750Y-177268750D02*
X197520000Y-177268750D01*
X190408000Y-82018750D02*
X195611750Y-87222500D01*
X189825000Y-82018750D02*
X190408000Y-82018750D01*
X190408000Y-101068750D02*
X195611750Y-106272500D01*
X189825000Y-101068750D02*
X190408000Y-101068750D01*
X199933000Y-120118750D02*
X205136750Y-125322500D01*
X199350000Y-120118750D02*
X199933000Y-120118750D01*
X204632000Y-139168750D02*
X209835750Y-144372500D01*
X204112500Y-139168750D02*
X204632000Y-139168750D01*
X214157000Y-158218750D02*
X219360750Y-163422500D01*
X213637500Y-158218750D02*
X214157000Y-158218750D01*
X209458000Y-82018750D02*
X214661750Y-87222500D01*
X208875000Y-82018750D02*
X209458000Y-82018750D01*
X209458000Y-101068750D02*
X214661750Y-106272500D01*
X208875000Y-101068750D02*
X209458000Y-101068750D01*
X218983000Y-120118750D02*
X224186750Y-125322500D01*
X218400000Y-120118750D02*
X218983000Y-120118750D01*
X223682000Y-139168750D02*
X228885750Y-144372500D01*
X223162500Y-139168750D02*
X223682000Y-139168750D01*
X233207000Y-158218750D02*
X238410750Y-163422500D01*
X232687500Y-158218750D02*
X233207000Y-158218750D01*
X228508000Y-82018750D02*
X233711750Y-87222500D01*
X227925000Y-82018750D02*
X228508000Y-82018750D01*
X228508000Y-101068750D02*
X233711750Y-106272500D01*
X227925000Y-101068750D02*
X228508000Y-101068750D01*
X238033000Y-120118750D02*
X243236750Y-125322500D01*
X237450000Y-120118750D02*
X238033000Y-120118750D01*
X242732000Y-139168750D02*
X247935750Y-144372500D01*
X242212500Y-139168750D02*
X242732000Y-139168750D01*
X252257000Y-158218750D02*
X257460750Y-163422500D01*
X251737500Y-158218750D02*
X252257000Y-158218750D01*
X247558000Y-82018750D02*
X252761750Y-87222500D01*
X246975000Y-82018750D02*
X247558000Y-82018750D01*
X247558000Y-101068750D02*
X252761750Y-106272500D01*
X246975000Y-101068750D02*
X247558000Y-101068750D01*
X257083000Y-120118750D02*
X262286750Y-125322500D01*
X256500000Y-120118750D02*
X257083000Y-120118750D01*
X261782000Y-139168750D02*
X266985750Y-144372500D01*
X261262500Y-139168750D02*
X261782000Y-139168750D01*
X271307000Y-158218750D02*
X276510750Y-163422500D01*
X270787500Y-158218750D02*
X271307000Y-158218750D01*
X271434000Y-177268750D02*
X276637750Y-182472500D01*
X270787500Y-177268750D02*
X271434000Y-177268750D01*
X266608000Y-82018750D02*
X271811750Y-87222500D01*
X266025000Y-82018750D02*
X266608000Y-82018750D01*
X266608000Y-101068750D02*
X271811750Y-106272500D01*
X266025000Y-101068750D02*
X266608000Y-101068750D01*
X276133000Y-120118750D02*
X281336750Y-125322500D01*
X275550000Y-120118750D02*
X276133000Y-120118750D01*
X280832000Y-139168750D02*
X286035750Y-144372500D01*
X280312500Y-139168750D02*
X280832000Y-139168750D01*
X290357000Y-158218750D02*
X295560750Y-163422500D01*
X289837500Y-158218750D02*
X290357000Y-158218750D01*
X285658000Y-82018750D02*
X290861750Y-87222500D01*
X285075000Y-82018750D02*
X285658000Y-82018750D01*
X285658000Y-101068750D02*
X290861750Y-106272500D01*
X285075000Y-101068750D02*
X285658000Y-101068750D01*
X295183000Y-120118750D02*
X300386750Y-125322500D01*
X294600000Y-120118750D02*
X295183000Y-120118750D01*
X299882000Y-139168750D02*
X305085750Y-144372500D01*
X299362500Y-139168750D02*
X299882000Y-139168750D01*
X304835000Y-82018750D02*
X310038750Y-87222500D01*
X304125000Y-82018750D02*
X304835000Y-82018750D01*
X304708000Y-101068750D02*
X309911750Y-106272500D01*
X304125000Y-101068750D02*
X304708000Y-101068750D01*
X314233000Y-120118750D02*
X319436750Y-125322500D01*
X313650000Y-120118750D02*
X314233000Y-120118750D01*
X299882000Y-177268750D02*
X305085750Y-182472500D01*
X299362500Y-177268750D02*
X299882000Y-177268750D01*
X323758000Y-82018750D02*
X328961750Y-87222500D01*
X323175000Y-82018750D02*
X323758000Y-82018750D01*
X330870000Y-139168750D02*
X335946750Y-144245500D01*
X330318750Y-139168750D02*
X330870000Y-139168750D01*
X323631000Y-158218750D02*
X328834750Y-163422500D01*
X316031250Y-158218750D02*
X323631000Y-158218750D01*
X323758000Y-177268750D02*
X328961750Y-182472500D01*
X323175000Y-177268750D02*
X323758000Y-177268750D01*
X342808000Y-82018750D02*
X348011750Y-87222500D01*
X342225000Y-82018750D02*
X342808000Y-82018750D01*
X332700000Y-101068750D02*
X341621500Y-101068750D01*
X346825250Y-106272500D02*
X348011750Y-106272500D01*
X341621500Y-101068750D02*
X346825250Y-106272500D01*
X342681000Y-120118750D02*
X347884750Y-125322500D01*
X337462500Y-120118750D02*
X342681000Y-120118750D01*
X342808000Y-158218750D02*
X348011750Y-163422500D01*
X342225000Y-158218750D02*
X342808000Y-158218750D01*
X342808000Y-177268750D02*
X348011750Y-182472500D01*
X342225000Y-177268750D02*
X342808000Y-177268750D01*
X361858000Y-82018750D02*
X367061750Y-87222500D01*
X361275000Y-82018750D02*
X361858000Y-82018750D01*
X361858000Y-101068750D02*
X367061750Y-106272500D01*
X361275000Y-101068750D02*
X361858000Y-101068750D01*
X361858000Y-120118750D02*
X367061750Y-125322500D01*
X361275000Y-120118750D02*
X361858000Y-120118750D01*
X361858000Y-139168750D02*
X367061750Y-144372500D01*
X361275000Y-139168750D02*
X361858000Y-139168750D01*
X361858000Y-158218750D02*
X367061750Y-163422500D01*
X361275000Y-158218750D02*
X361858000Y-158218750D01*
X361275000Y-177268750D02*
X361858000Y-177268750D01*
X362452750Y-178446500D02*
X361275000Y-177268750D01*
X362452750Y-190182500D02*
X362452750Y-178446500D01*
D16*
X109823250Y-130683000D02*
X107473750Y-133032500D01*
X113538000Y-130683000D02*
X109823250Y-130683000D01*
X227950520Y-117587518D02*
X227750529Y-117387527D01*
X227950520Y-129286000D02*
X227950520Y-117587518D01*
X219070000Y-77211000D02*
X218694000Y-76835000D01*
X227750529Y-117387527D02*
X219070000Y-108706998D01*
X219070000Y-108706998D02*
X219070000Y-77211000D01*
D15*
X69215000Y-100258750D02*
X70525000Y-101568750D01*
X69215000Y-83978750D02*
X69215000Y-100258750D01*
X69215000Y-114546250D02*
X75287500Y-120618750D01*
X69215000Y-103028750D02*
X69215000Y-114546250D01*
X73977500Y-135977500D02*
X77668750Y-139668750D01*
X73977500Y-122078750D02*
X73977500Y-135977500D01*
X76358750Y-152646250D02*
X82431250Y-158718750D01*
X76358750Y-141128750D02*
X76358750Y-152646250D01*
X74031249Y-176643751D02*
X72906250Y-177768750D01*
X75312151Y-175362849D02*
X74031249Y-176643751D01*
X75312151Y-165481847D02*
X75312151Y-175362849D01*
X80615248Y-160178750D02*
X75312151Y-165481847D01*
X81121250Y-160178750D02*
X80615248Y-160178750D01*
X88265000Y-100258750D02*
X89575000Y-101568750D01*
X88265000Y-83978750D02*
X88265000Y-100258750D01*
X88265000Y-109783750D02*
X99100000Y-120618750D01*
X102552500Y-147883750D02*
X113387500Y-158718750D01*
X102552500Y-141128750D02*
X102552500Y-147883750D01*
X112077500Y-160178750D02*
X112077500Y-167417750D01*
X112077500Y-167417750D02*
X105949750Y-173545500D01*
X100942000Y-173545500D02*
X96718750Y-177768750D01*
X105949750Y-173545500D02*
X100942000Y-173545500D01*
X104987499Y-138543751D02*
X103862500Y-139668750D01*
X104987499Y-124574275D02*
X104987499Y-138543751D01*
X102491974Y-122078750D02*
X104987499Y-124574275D01*
X97790000Y-122078750D02*
X102491974Y-122078750D01*
X86741000Y-121285000D02*
X86741000Y-109601000D01*
X88265000Y-108077000D02*
X88265000Y-107569000D01*
X86741000Y-109601000D02*
X88265000Y-108077000D01*
X88265000Y-103028750D02*
X88265000Y-107569000D01*
X88265000Y-107569000D02*
X88265000Y-109783750D01*
X107315000Y-100258750D02*
X108625000Y-101568750D01*
X107315000Y-83978750D02*
X107315000Y-100258750D01*
X107315000Y-109783750D02*
X118150000Y-120618750D01*
X116840000Y-133596250D02*
X122912500Y-139668750D01*
X116840000Y-122078750D02*
X116840000Y-133596250D01*
X121602500Y-147883750D02*
X132437500Y-158718750D01*
X121602500Y-141128750D02*
X121602500Y-147883750D01*
X119221250Y-179078750D02*
X119221250Y-179228750D01*
X131127500Y-167172500D02*
X119221250Y-179078750D01*
X131127500Y-160178750D02*
X131127500Y-167172500D01*
X102888999Y-113900001D02*
X107315000Y-109474000D01*
X102888999Y-115551001D02*
X102888999Y-113900001D01*
X102489000Y-115951000D02*
X102888999Y-115551001D01*
X107315000Y-103028750D02*
X107315000Y-109474000D01*
X107315000Y-109474000D02*
X107315000Y-109783750D01*
X126365000Y-100258750D02*
X127675000Y-101568750D01*
X126365000Y-83978750D02*
X126365000Y-100258750D01*
X126365000Y-109783750D02*
X137200000Y-120618750D01*
X135890000Y-133596250D02*
X141962500Y-139668750D01*
X135890000Y-122078750D02*
X135890000Y-133596250D01*
X140652500Y-147883750D02*
X151487500Y-158718750D01*
X140652500Y-141128750D02*
X140652500Y-147883750D01*
X103505000Y-115951000D02*
X112395000Y-115951000D01*
X120269000Y-115570000D02*
X126365000Y-109474000D01*
X114427000Y-115570000D02*
X120269000Y-115570000D01*
X126365000Y-103028750D02*
X126365000Y-109474000D01*
X126365000Y-109474000D02*
X126365000Y-109783750D01*
X145415000Y-100258750D02*
X146725000Y-101568750D01*
X145415000Y-83978750D02*
X145415000Y-100258750D01*
X145415000Y-109783750D02*
X156250000Y-120618750D01*
X154870001Y-133526251D02*
X159887501Y-138543751D01*
X154870001Y-122148749D02*
X154870001Y-133526251D01*
X159887501Y-138543751D02*
X161012500Y-139668750D01*
X154940000Y-122078750D02*
X154870001Y-122148749D01*
X159702500Y-147883750D02*
X170537500Y-158718750D01*
X159702500Y-141128750D02*
X159702500Y-147883750D01*
X104059701Y-116783051D02*
X113009913Y-116783051D01*
X113009913Y-116783051D02*
X113139314Y-116653650D01*
X145415000Y-109304252D02*
X145415000Y-108458000D01*
X138726031Y-115993221D02*
X145415000Y-109304252D01*
X133599777Y-115993221D02*
X138726031Y-115993221D01*
X133199778Y-115593222D02*
X133599777Y-115993221D01*
X145415000Y-103028750D02*
X145415000Y-108458000D01*
X145415000Y-108458000D02*
X145415000Y-109783750D01*
X164465000Y-100258750D02*
X165775000Y-101568750D01*
X164465000Y-83978750D02*
X164465000Y-100258750D01*
X174175001Y-119493751D02*
X175300000Y-120618750D01*
X164395001Y-103098749D02*
X164395001Y-109713751D01*
X164465000Y-103028750D02*
X164395001Y-103098749D01*
X173990000Y-133596250D02*
X180062500Y-139668750D01*
X173990000Y-122078750D02*
X173990000Y-133596250D01*
X188462501Y-157593751D02*
X189587500Y-158718750D01*
X178682501Y-147813751D02*
X188462501Y-157593751D01*
X178682501Y-141198749D02*
X178682501Y-147813751D01*
X178752500Y-141128750D02*
X178682501Y-141198749D01*
X188277500Y-174077500D02*
X191968750Y-177768750D01*
X188277500Y-160178750D02*
X188277500Y-174077500D01*
X104648000Y-117729000D02*
X107950000Y-117729000D01*
X107950000Y-117729000D02*
X109093000Y-117729000D01*
X160800999Y-114154001D02*
X164818125Y-110136875D01*
X160800999Y-115932001D02*
X160800999Y-114154001D01*
X160401000Y-116332000D02*
X160800999Y-115932001D01*
X164395001Y-109713751D02*
X164818125Y-110136875D01*
X164818125Y-110136875D02*
X174175001Y-119493751D01*
X183515000Y-100258750D02*
X184825000Y-101568750D01*
X183515000Y-83978750D02*
X183515000Y-100258750D01*
X183515000Y-109783750D02*
X194350000Y-120618750D01*
X183515000Y-103028750D02*
X183515000Y-109783750D01*
X193040000Y-133596250D02*
X199112500Y-139668750D01*
X193040000Y-122078750D02*
X193040000Y-133596250D01*
X197802500Y-147883750D02*
X208637500Y-158718750D01*
X197802500Y-141128750D02*
X197802500Y-147883750D01*
X101981000Y-137566252D02*
X101981000Y-129667000D01*
X101344751Y-138202501D02*
X101981000Y-137566252D01*
X96932750Y-137477500D02*
X97657751Y-138202501D01*
X97657751Y-138202501D02*
X101344751Y-138202501D01*
X108388685Y-129540000D02*
X108515685Y-129413000D01*
X107823000Y-129540000D02*
X108388685Y-129540000D01*
X108515685Y-129413000D02*
X115316000Y-129413000D01*
X118491000Y-129978685D02*
X121666000Y-133153685D01*
X118491000Y-129413000D02*
X118491000Y-129978685D01*
X121666000Y-133153685D02*
X121666000Y-136017000D01*
X197078065Y-141128750D02*
X197802500Y-141128750D01*
X194564000Y-138614685D02*
X197078065Y-141128750D01*
X194564000Y-138049000D02*
X194564000Y-138614685D01*
X202565000Y-100258750D02*
X203875000Y-101568750D01*
X202565000Y-83978750D02*
X202565000Y-100258750D01*
X202565000Y-109783750D02*
X213400000Y-120618750D01*
X202565000Y-103028750D02*
X202565000Y-109783750D01*
X217037501Y-138543751D02*
X218162500Y-139668750D01*
X213581099Y-135087349D02*
X217037501Y-138543751D01*
X213581099Y-124966849D02*
X213581099Y-135087349D01*
X212090000Y-123475750D02*
X213581099Y-124966849D01*
X212090000Y-122078750D02*
X212090000Y-123475750D01*
X216852500Y-147883750D02*
X227687500Y-158718750D01*
X216852500Y-141128750D02*
X216852500Y-147883750D01*
X103124000Y-137059662D02*
X103124000Y-133813490D01*
X101243135Y-138940527D02*
X103124000Y-137059662D01*
X96970472Y-138540528D02*
X97370471Y-138940527D01*
X97370471Y-138940527D02*
X101243135Y-138940527D01*
X106426000Y-133813490D02*
X112185510Y-139573000D01*
X112185510Y-139573000D02*
X115697000Y-139573000D01*
X115710751Y-143832499D02*
X115710751Y-153910249D01*
X115697000Y-139573000D02*
X115697000Y-143818748D01*
X115697000Y-143818748D02*
X115710751Y-143832499D01*
X115710751Y-153910249D02*
X117248502Y-155448000D01*
X117248502Y-155448000D02*
X120396000Y-155448000D01*
X120396000Y-155448000D02*
X121793000Y-156845000D01*
X222046749Y-155847999D02*
X226377500Y-160178750D01*
X218966999Y-155847999D02*
X222046749Y-155847999D01*
X218567000Y-155448000D02*
X218966999Y-155847999D01*
X221615000Y-100258750D02*
X222925000Y-101568750D01*
X221615000Y-83978750D02*
X221615000Y-100258750D01*
X221615000Y-109783750D02*
X232450000Y-120618750D01*
X221615000Y-103028750D02*
X221615000Y-109783750D01*
X236087501Y-138543751D02*
X237212500Y-139668750D01*
X231070001Y-133526251D02*
X236087501Y-138543751D01*
X231070001Y-122148749D02*
X231070001Y-133526251D01*
X231140000Y-122078750D02*
X231070001Y-122148749D01*
X245612501Y-157593751D02*
X246737500Y-158718750D01*
X235832501Y-147813751D02*
X245612501Y-157593751D01*
X235832501Y-141198749D02*
X235832501Y-147813751D01*
X235902500Y-141128750D02*
X235832501Y-141198749D01*
X97790000Y-139845670D02*
X97790000Y-141560347D01*
X96917786Y-139539141D02*
X97483471Y-139539141D01*
X97483471Y-139539141D02*
X97790000Y-139845670D01*
X97790000Y-141560347D02*
X99783753Y-143554100D01*
X99783753Y-143554100D02*
X99783753Y-155408343D01*
X99783753Y-155408343D02*
X107950000Y-163574590D01*
X107950000Y-163574590D02*
X107950000Y-165481000D01*
X245427500Y-166052500D02*
X245427500Y-160178750D01*
X244729000Y-166751000D02*
X245427500Y-166052500D01*
X240850001Y-100443751D02*
X241975000Y-101568750D01*
X240595001Y-100188751D02*
X240850001Y-100443751D01*
X240595001Y-84048749D02*
X240595001Y-100188751D01*
X240665000Y-83978750D02*
X240595001Y-84048749D01*
X250190000Y-119308750D02*
X250190000Y-122078750D01*
X240665000Y-109783750D02*
X250190000Y-119308750D01*
X240665000Y-103028750D02*
X240665000Y-109783750D01*
X250190000Y-133596250D02*
X256262500Y-139668750D01*
X250190000Y-122078750D02*
X250190000Y-133596250D01*
X254952500Y-147883750D02*
X265787500Y-158718750D01*
X254952500Y-141128750D02*
X254952500Y-147883750D01*
X264662501Y-176643751D02*
X265787500Y-177768750D01*
X264407501Y-176388751D02*
X264662501Y-176643751D01*
X264407501Y-160248749D02*
X264407501Y-176388751D01*
X264477500Y-160178750D02*
X264407501Y-160248749D01*
X96949052Y-141355809D02*
X99333743Y-143740500D01*
X96949052Y-140538655D02*
X96949052Y-141355809D01*
X99333743Y-143740500D02*
X99333743Y-155594743D01*
X99333743Y-155594743D02*
X107061000Y-163322000D01*
X107061000Y-163322000D02*
X107061000Y-165989000D01*
X263971498Y-160178750D02*
X264477500Y-160178750D01*
X261112000Y-163038248D02*
X263971498Y-160178750D01*
X261112000Y-164465000D02*
X261112000Y-163038248D01*
X259715000Y-100258750D02*
X261025000Y-101568750D01*
X259715000Y-83978750D02*
X259715000Y-100258750D01*
X259715000Y-109783750D02*
X270550000Y-120618750D01*
X259715000Y-103028750D02*
X259715000Y-109783750D01*
X274187501Y-138543751D02*
X275312500Y-139668750D01*
X269170001Y-133526251D02*
X274187501Y-138543751D01*
X269170001Y-122148749D02*
X269170001Y-133526251D01*
X269240000Y-122078750D02*
X269170001Y-122148749D01*
X283527500Y-157408750D02*
X283527500Y-160178750D01*
X274002500Y-147883750D02*
X283527500Y-157408750D01*
X274002500Y-141128750D02*
X274002500Y-147883750D01*
X92849751Y-140798499D02*
X92849751Y-140957249D01*
X93249750Y-140398500D02*
X92849751Y-140798499D01*
X92849751Y-140957249D02*
X86810010Y-146996990D01*
X86810010Y-146996990D02*
X86810010Y-153102600D01*
X92710000Y-157422998D02*
X92710000Y-157493750D01*
X86810010Y-153102600D02*
X88389602Y-153102600D01*
X88389602Y-153102600D02*
X92710000Y-157422998D01*
X94365653Y-161158347D02*
X87506654Y-168017346D01*
X87506654Y-168017346D02*
X87506654Y-168024654D01*
X283527500Y-170751500D02*
X283527500Y-160178750D01*
X281051000Y-173228000D02*
X283527500Y-170751500D01*
X278765000Y-100258750D02*
X280075000Y-101568750D01*
X278765000Y-83978750D02*
X278765000Y-100258750D01*
X288475001Y-119493751D02*
X289600000Y-120618750D01*
X278695001Y-109713751D02*
X288475001Y-119493751D01*
X278695001Y-103098749D02*
X278695001Y-109713751D01*
X278765000Y-103028750D02*
X278695001Y-103098749D01*
X288290000Y-133596250D02*
X294362500Y-139668750D01*
X288290000Y-122078750D02*
X288290000Y-133596250D01*
X91837097Y-141209313D02*
X91662743Y-141383667D01*
X92237096Y-140385849D02*
X91837097Y-140785848D01*
X91837097Y-140785848D02*
X91837097Y-141209313D01*
X91662743Y-141383667D02*
X86360000Y-146686410D01*
X86360000Y-146686410D02*
X86360000Y-153289000D01*
X86360000Y-153289000D02*
X89789000Y-156718000D01*
X89789000Y-156718000D02*
X90932000Y-156718000D01*
X86485002Y-168021000D02*
X85471000Y-168021000D01*
X93095653Y-159888347D02*
X93095653Y-161410349D01*
X93095653Y-161410349D02*
X86485002Y-168021000D01*
X300754999Y-172574001D02*
X300754999Y-170923001D01*
X300355000Y-172974000D02*
X300754999Y-172574001D01*
X300754999Y-170923001D02*
X301879000Y-169799000D01*
X300482000Y-166243000D02*
X300482000Y-153543000D01*
X293052500Y-146113500D02*
X293052500Y-141128750D01*
X300482000Y-153543000D02*
X293052500Y-146113500D01*
X298000001Y-100443751D02*
X299125000Y-101568750D01*
X297745001Y-100188751D02*
X298000001Y-100443751D01*
X297745001Y-84048749D02*
X297745001Y-100188751D01*
X297815000Y-83978750D02*
X297745001Y-84048749D01*
X297815000Y-109783750D02*
X308650000Y-120618750D01*
X297815000Y-103028750D02*
X297815000Y-109783750D01*
X294362500Y-176177760D02*
X294362500Y-177768750D01*
X294362500Y-175031498D02*
X294362500Y-176177760D01*
X307340000Y-162053998D02*
X294362500Y-175031498D01*
X307340000Y-122078750D02*
X307340000Y-162053998D01*
X91212734Y-141197266D02*
X85736020Y-146673980D01*
X91212734Y-140390660D02*
X91212734Y-141197266D01*
X87700161Y-161419277D02*
X87700160Y-164018224D01*
X85736020Y-146673980D02*
X85736020Y-159455136D01*
X85736020Y-159455136D02*
X87700161Y-161419277D01*
X87700160Y-164018224D02*
X84080140Y-167638244D01*
X84080140Y-167638244D02*
X84080140Y-168027140D01*
X291947065Y-179228750D02*
X293052500Y-179228750D01*
X291211000Y-178492685D02*
X291947065Y-179228750D01*
X291211000Y-177927000D02*
X291211000Y-178492685D01*
X325318750Y-138077760D02*
X325318750Y-139668750D01*
X325318750Y-117448526D02*
X325318750Y-138077760D01*
X316412999Y-108542775D02*
X325318750Y-117448526D01*
X316412999Y-97696229D02*
X316412999Y-108542775D01*
X316865000Y-97244228D02*
X316412999Y-97696229D01*
X316865000Y-83978750D02*
X316865000Y-97244228D01*
X311031250Y-157127760D02*
X311031250Y-158718750D01*
X311031250Y-153341276D02*
X311031250Y-157127760D01*
X323243776Y-141128750D02*
X311031250Y-153341276D01*
X324008750Y-141128750D02*
X323243776Y-141128750D01*
X317050001Y-176643751D02*
X318175000Y-177768750D01*
X309651251Y-169245001D02*
X317050001Y-176643751D01*
X309651251Y-160248749D02*
X309651251Y-169245001D01*
X309721250Y-160178750D02*
X309651251Y-160248749D01*
X90212854Y-141436556D02*
X89662911Y-141986499D01*
X90212854Y-140406245D02*
X90212854Y-141436556D01*
X85286010Y-146363400D02*
X85286010Y-159641536D01*
X85286010Y-159641536D02*
X87250151Y-161605677D01*
X87250151Y-161605677D02*
X87250151Y-163831823D01*
X87250151Y-163831823D02*
X82933974Y-168148000D01*
X89662911Y-141986499D02*
X85286010Y-146363400D01*
X82933974Y-168148000D02*
X81407000Y-168148000D01*
X316865000Y-184277000D02*
X316865000Y-179228750D01*
X316103000Y-185039000D02*
X316865000Y-184277000D01*
X335915000Y-93353750D02*
X327700000Y-101568750D01*
X335915000Y-83978750D02*
X335915000Y-93353750D01*
X326390000Y-114546250D02*
X332462500Y-120618750D01*
X326390000Y-103028750D02*
X326390000Y-114546250D01*
X337225000Y-157127760D02*
X337225000Y-158718750D01*
X337225000Y-136888522D02*
X337225000Y-157127760D01*
X331152500Y-130816022D02*
X337225000Y-136888522D01*
X331152500Y-122078750D02*
X331152500Y-130816022D01*
X335915000Y-176458750D02*
X337225000Y-177768750D01*
X335915000Y-160178750D02*
X335915000Y-176458750D01*
X89212902Y-140396228D02*
X89212902Y-141800098D01*
X89212902Y-141800098D02*
X84836000Y-146177000D01*
X80264000Y-164082002D02*
X80264000Y-168148000D01*
X84836000Y-146177000D02*
X84836000Y-159510002D01*
X84836000Y-159510002D02*
X80264000Y-164082002D01*
X335915000Y-182274752D02*
X335915000Y-179228750D01*
X332515752Y-185674000D02*
X335915000Y-182274752D01*
X331343000Y-185674000D02*
X332515752Y-185674000D01*
X355150001Y-100443751D02*
X356275000Y-101568750D01*
X354895001Y-100188751D02*
X355150001Y-100443751D01*
X354895001Y-84048749D02*
X354895001Y-100188751D01*
X354965000Y-83978750D02*
X354895001Y-84048749D01*
X354965000Y-119308750D02*
X356275000Y-120618750D01*
X354965000Y-103028750D02*
X354965000Y-119308750D01*
X355150001Y-138543751D02*
X356275000Y-139668750D01*
X354895001Y-138288751D02*
X355150001Y-138543751D01*
X354895001Y-122148749D02*
X354895001Y-138288751D01*
X354965000Y-122078750D02*
X354895001Y-122148749D01*
X354965000Y-157408750D02*
X356275000Y-158718750D01*
X354965000Y-141128750D02*
X354965000Y-157408750D01*
X355150001Y-176643751D02*
X356275000Y-177768750D01*
X354895001Y-176388751D02*
X355150001Y-176643751D01*
X354895001Y-160248749D02*
X354895001Y-176388751D01*
X354965000Y-160178750D02*
X354895001Y-160248749D01*
X80391000Y-135636000D02*
X80391000Y-128651000D01*
X80391000Y-128651000D02*
X81280000Y-127762000D01*
X81280000Y-127762000D02*
X81280000Y-123952000D01*
X81280000Y-123952000D02*
X83185000Y-122047000D01*
X83185000Y-122047000D02*
X83185000Y-80391000D01*
X83185000Y-80391000D02*
X84201000Y-79375000D01*
X354965000Y-82042000D02*
X354965000Y-83978750D01*
X352933000Y-80010000D02*
X354965000Y-82042000D01*
X227225520Y-134046662D02*
X227500510Y-134321652D01*
X227225520Y-117604994D02*
X227225520Y-134046662D01*
X218544990Y-108924464D02*
X227225520Y-117604994D01*
X218544990Y-78318628D02*
X218544990Y-108924464D01*
X217937159Y-77710797D02*
X218544990Y-78318628D01*
X226775510Y-117791394D02*
X226775510Y-134954510D01*
X216920528Y-77719472D02*
X218094980Y-78893924D01*
X218094980Y-78893924D02*
X218094980Y-109110864D01*
X226775510Y-134954510D02*
X227076000Y-135255000D01*
X218094980Y-109110864D02*
X226775510Y-117791394D01*
D16*
X216211685Y-78142000D02*
X217569971Y-79500286D01*
X215646000Y-78142000D02*
X216211685Y-78142000D01*
X217569971Y-79500286D02*
X217569972Y-109328332D01*
X226250500Y-118008860D02*
X226250500Y-136842500D01*
X217569972Y-109328332D02*
X226250500Y-118008860D01*
M02*
