G04 #@! TF.GenerationSoftware,KiCad,Pcbnew,(5.1.4)-1*
G04 #@! TF.CreationDate,2020-09-27T22:15:01+10:00*
G04 #@! TF.ProjectId,merchants 60,6d657263-6861-46e7-9473-2036302e6b69,rev?*
G04 #@! TF.SameCoordinates,Original*
G04 #@! TF.FileFunction,Legend,Top*
G04 #@! TF.FilePolarity,Positive*
%FSLAX46Y46*%
G04 Gerber Fmt 4.6, Leading zero omitted, Abs format (unit mm)*
G04 Created by KiCad (PCBNEW (5.1.4)-1) date 2020-09-27 22:15:01*
%MOMM*%
%LPD*%
G04 APERTURE LIST*
%ADD10C,1.852000*%
%ADD11C,4.089800*%
%ADD12C,3.150000*%
%ADD13C,1.702000*%
%ADD14R,1.702000X1.702000*%
G04 APERTURE END LIST*
%LPC*%
D10*
X106680000Y-124618750D03*
X96520000Y-124618750D03*
D11*
X101600000Y-124618750D03*
D10*
X82867500Y-124618750D03*
X72707500Y-124618750D03*
D11*
X77787500Y-124618750D03*
D10*
X363855000Y-86518750D03*
X353695000Y-86518750D03*
D11*
X358775000Y-86518750D03*
D10*
X363855000Y-181768750D03*
X353695000Y-181768750D03*
D11*
X358775000Y-181768750D03*
D10*
X111442500Y-143668750D03*
X101282500Y-143668750D03*
D11*
X106362500Y-143668750D03*
D10*
X363855000Y-162718750D03*
X353695000Y-162718750D03*
D11*
X358775000Y-162718750D03*
D10*
X363855000Y-143668750D03*
X353695000Y-143668750D03*
D11*
X358775000Y-143668750D03*
D10*
X363855000Y-124618750D03*
X353695000Y-124618750D03*
D11*
X358775000Y-124618750D03*
D10*
X363855000Y-105568750D03*
X353695000Y-105568750D03*
D11*
X358775000Y-105568750D03*
D10*
X344805000Y-181768750D03*
X334645000Y-181768750D03*
D11*
X339725000Y-181768750D03*
D10*
X344805000Y-162718750D03*
X334645000Y-162718750D03*
D11*
X339725000Y-162718750D03*
D10*
X340042500Y-124618750D03*
X329882500Y-124618750D03*
D11*
X334962500Y-124618750D03*
X342138000Y-113823750D03*
X318262000Y-113823750D03*
D12*
X342138000Y-98583750D03*
X318262000Y-98583750D03*
D10*
X335280000Y-105568750D03*
X325120000Y-105568750D03*
D11*
X330200000Y-105568750D03*
D10*
X344805000Y-86518750D03*
X334645000Y-86518750D03*
D11*
X339725000Y-86518750D03*
D10*
X325755000Y-181768750D03*
X315595000Y-181768750D03*
D11*
X320675000Y-181768750D03*
D10*
X318611250Y-162718750D03*
X308451250Y-162718750D03*
D11*
X313531250Y-162718750D03*
X339756750Y-151923750D03*
X315880750Y-151923750D03*
D12*
X339756750Y-136683750D03*
X315880750Y-136683750D03*
D10*
X332898750Y-143668750D03*
X322738750Y-143668750D03*
D11*
X327818750Y-143668750D03*
D10*
X325755000Y-86518750D03*
X315595000Y-86518750D03*
D11*
X320675000Y-86518750D03*
D10*
X301942500Y-181768750D03*
X291782500Y-181768750D03*
D11*
X296862500Y-181768750D03*
D10*
X316230000Y-124618750D03*
X306070000Y-124618750D03*
D11*
X311150000Y-124618750D03*
D10*
X306705000Y-105568750D03*
X296545000Y-105568750D03*
D11*
X301625000Y-105568750D03*
D10*
X306705000Y-86518750D03*
X296545000Y-86518750D03*
D11*
X301625000Y-86518750D03*
D10*
X301942500Y-143668750D03*
X291782500Y-143668750D03*
D11*
X296862500Y-143668750D03*
D10*
X297180000Y-124618750D03*
X287020000Y-124618750D03*
D11*
X292100000Y-124618750D03*
D10*
X287655000Y-105568750D03*
X277495000Y-105568750D03*
D11*
X282575000Y-105568750D03*
D10*
X287655000Y-86518750D03*
X277495000Y-86518750D03*
D11*
X282575000Y-86518750D03*
D10*
X292417500Y-162718750D03*
X282257500Y-162718750D03*
D11*
X287337500Y-162718750D03*
D10*
X282892500Y-143668750D03*
X272732500Y-143668750D03*
D11*
X277812500Y-143668750D03*
D10*
X278130000Y-124618750D03*
X267970000Y-124618750D03*
D11*
X273050000Y-124618750D03*
D10*
X268605000Y-105568750D03*
X258445000Y-105568750D03*
D11*
X263525000Y-105568750D03*
D10*
X268605000Y-86518750D03*
X258445000Y-86518750D03*
D11*
X263525000Y-86518750D03*
D10*
X273367500Y-181768750D03*
X263207500Y-181768750D03*
D11*
X268287500Y-181768750D03*
D10*
X273367500Y-162718750D03*
X263207500Y-162718750D03*
D11*
X268287500Y-162718750D03*
D10*
X263842500Y-143668750D03*
X253682500Y-143668750D03*
D11*
X258762500Y-143668750D03*
D10*
X259080000Y-124618750D03*
X248920000Y-124618750D03*
D11*
X254000000Y-124618750D03*
D10*
X249555000Y-105568750D03*
X239395000Y-105568750D03*
D11*
X244475000Y-105568750D03*
D10*
X249555000Y-86518750D03*
X239395000Y-86518750D03*
D11*
X244475000Y-86518750D03*
D10*
X254317500Y-162718750D03*
X244157500Y-162718750D03*
D11*
X249237500Y-162718750D03*
D10*
X244792500Y-143668750D03*
X234632500Y-143668750D03*
D11*
X239712500Y-143668750D03*
D10*
X240030000Y-124618750D03*
X229870000Y-124618750D03*
D11*
X234950000Y-124618750D03*
D10*
X230505000Y-105568750D03*
X220345000Y-105568750D03*
D11*
X225425000Y-105568750D03*
D10*
X230505000Y-86518750D03*
X220345000Y-86518750D03*
D11*
X225425000Y-86518750D03*
D10*
X235267500Y-162718750D03*
X225107500Y-162718750D03*
D11*
X230187500Y-162718750D03*
D10*
X225742500Y-143668750D03*
X215582500Y-143668750D03*
D11*
X220662500Y-143668750D03*
D10*
X220980000Y-124618750D03*
X210820000Y-124618750D03*
D11*
X215900000Y-124618750D03*
D10*
X211455000Y-105568750D03*
X201295000Y-105568750D03*
D11*
X206375000Y-105568750D03*
D10*
X211455000Y-86518750D03*
X201295000Y-86518750D03*
D11*
X206375000Y-86518750D03*
D10*
X216217500Y-162718750D03*
X206057500Y-162718750D03*
D11*
X211137500Y-162718750D03*
D10*
X206692500Y-143668750D03*
X196532500Y-143668750D03*
D11*
X201612500Y-143668750D03*
D10*
X201930000Y-124618750D03*
X191770000Y-124618750D03*
D11*
X196850000Y-124618750D03*
D10*
X192405000Y-105568750D03*
X182245000Y-105568750D03*
D11*
X187325000Y-105568750D03*
D10*
X192405000Y-86518750D03*
X182245000Y-86518750D03*
D11*
X187325000Y-86518750D03*
X244468650Y-190023750D03*
X144468850Y-190023750D03*
D12*
X244468650Y-174783750D03*
X144468850Y-174783750D03*
D10*
X199548750Y-181768750D03*
X189388750Y-181768750D03*
D11*
X194468750Y-181768750D03*
D10*
X197167500Y-162718750D03*
X187007500Y-162718750D03*
D11*
X192087500Y-162718750D03*
D10*
X187642500Y-143668750D03*
X177482500Y-143668750D03*
D11*
X182562500Y-143668750D03*
D10*
X182880000Y-124618750D03*
X172720000Y-124618750D03*
D11*
X177800000Y-124618750D03*
D10*
X173355000Y-105568750D03*
X163195000Y-105568750D03*
D11*
X168275000Y-105568750D03*
D10*
X173355000Y-86518750D03*
X163195000Y-86518750D03*
D11*
X168275000Y-86518750D03*
D10*
X178117500Y-162718750D03*
X167957500Y-162718750D03*
D11*
X173037500Y-162718750D03*
D10*
X168592500Y-143668750D03*
X158432500Y-143668750D03*
D11*
X163512500Y-143668750D03*
D10*
X163830000Y-124618750D03*
X153670000Y-124618750D03*
D11*
X158750000Y-124618750D03*
D10*
X154305000Y-105568750D03*
X144145000Y-105568750D03*
D11*
X149225000Y-105568750D03*
D10*
X154305000Y-86518750D03*
X144145000Y-86518750D03*
D11*
X149225000Y-86518750D03*
D10*
X159067500Y-162718750D03*
X148907500Y-162718750D03*
D11*
X153987500Y-162718750D03*
D10*
X149542500Y-143668750D03*
X139382500Y-143668750D03*
D11*
X144462500Y-143668750D03*
D10*
X144780000Y-124618750D03*
X134620000Y-124618750D03*
D11*
X139700000Y-124618750D03*
D10*
X135255000Y-105568750D03*
X125095000Y-105568750D03*
D11*
X130175000Y-105568750D03*
D10*
X135255000Y-86518750D03*
X125095000Y-86518750D03*
D11*
X130175000Y-86518750D03*
D10*
X128111250Y-181768750D03*
X117951250Y-181768750D03*
D11*
X123031250Y-181768750D03*
D10*
X140017500Y-162718750D03*
X129857500Y-162718750D03*
D11*
X134937500Y-162718750D03*
D10*
X130492500Y-143668750D03*
X120332500Y-143668750D03*
D11*
X125412500Y-143668750D03*
D10*
X125730000Y-124618750D03*
X115570000Y-124618750D03*
D11*
X120650000Y-124618750D03*
D10*
X116205000Y-105568750D03*
X106045000Y-105568750D03*
D11*
X111125000Y-105568750D03*
D10*
X116205000Y-86518750D03*
X106045000Y-86518750D03*
D11*
X111125000Y-86518750D03*
D10*
X104298750Y-181768750D03*
X94138750Y-181768750D03*
D11*
X99218750Y-181768750D03*
D10*
X120967500Y-162718750D03*
X110807500Y-162718750D03*
D11*
X115887500Y-162718750D03*
D10*
X97155000Y-105568750D03*
X86995000Y-105568750D03*
D11*
X92075000Y-105568750D03*
D10*
X97155000Y-86518750D03*
X86995000Y-86518750D03*
D11*
X92075000Y-86518750D03*
D10*
X80486250Y-181768750D03*
X70326250Y-181768750D03*
D11*
X75406250Y-181768750D03*
X96869250Y-170973750D03*
X72993250Y-170973750D03*
D12*
X96869250Y-155733750D03*
X72993250Y-155733750D03*
D10*
X90011250Y-162718750D03*
X79851250Y-162718750D03*
D11*
X84931250Y-162718750D03*
D10*
X85248750Y-143668750D03*
X75088750Y-143668750D03*
D11*
X80168750Y-143668750D03*
D10*
X78105000Y-105568750D03*
X67945000Y-105568750D03*
D11*
X73025000Y-105568750D03*
D10*
X78105000Y-86518750D03*
X67945000Y-86518750D03*
D11*
X73025000Y-86518750D03*
D13*
X362452750Y-190182500D03*
D14*
X354652750Y-190182500D03*
D13*
X367061750Y-163422500D03*
D14*
X367061750Y-171222500D03*
D13*
X367061750Y-144372500D03*
D14*
X367061750Y-152172500D03*
D13*
X367061750Y-125322500D03*
D14*
X367061750Y-133122500D03*
D13*
X367061750Y-106272500D03*
D14*
X367061750Y-114072500D03*
D13*
X367061750Y-87222500D03*
D14*
X367061750Y-95022500D03*
D13*
X348011750Y-182472500D03*
D14*
X348011750Y-190272500D03*
D13*
X348011750Y-163422500D03*
D14*
X348011750Y-171222500D03*
D13*
X347884750Y-125322500D03*
D14*
X347884750Y-133122500D03*
D13*
X348011750Y-106272500D03*
D14*
X348011750Y-114072500D03*
D13*
X348011750Y-87222500D03*
D14*
X348011750Y-95022500D03*
D13*
X328961750Y-182472500D03*
D14*
X328961750Y-190272500D03*
D13*
X328834750Y-163422500D03*
D14*
X328834750Y-171222500D03*
D13*
X335946750Y-144245500D03*
D14*
X335946750Y-152045500D03*
D13*
X328961750Y-87222500D03*
D14*
X328961750Y-95022500D03*
D13*
X305085750Y-182472500D03*
D14*
X305085750Y-190272500D03*
D13*
X319436750Y-125322500D03*
D14*
X319436750Y-133122500D03*
D13*
X309911750Y-106272500D03*
D14*
X309911750Y-114072500D03*
D13*
X310038750Y-87222500D03*
D14*
X310038750Y-95022500D03*
D13*
X305085750Y-144372500D03*
D14*
X305085750Y-152172500D03*
D13*
X300386750Y-125322500D03*
D14*
X300386750Y-133122500D03*
D13*
X290861750Y-106272500D03*
D14*
X290861750Y-114072500D03*
D13*
X290861750Y-87222500D03*
D14*
X290861750Y-95022500D03*
D13*
X295560750Y-163422500D03*
D14*
X295560750Y-171222500D03*
D13*
X286035750Y-144372500D03*
D14*
X286035750Y-152172500D03*
D13*
X281336750Y-125322500D03*
D14*
X281336750Y-133122500D03*
D13*
X271811750Y-106272500D03*
D14*
X271811750Y-114072500D03*
D13*
X271811750Y-87222500D03*
D14*
X271811750Y-95022500D03*
D13*
X276637750Y-182472500D03*
D14*
X276637750Y-190272500D03*
D13*
X276510750Y-163422500D03*
D14*
X276510750Y-171222500D03*
D13*
X266985750Y-144372500D03*
D14*
X266985750Y-152172500D03*
D13*
X262286750Y-125322500D03*
D14*
X262286750Y-133122500D03*
D13*
X252761750Y-106272500D03*
D14*
X252761750Y-114072500D03*
D13*
X252761750Y-87222500D03*
D14*
X252761750Y-95022500D03*
D13*
X257460750Y-163422500D03*
D14*
X257460750Y-171222500D03*
D13*
X247935750Y-144372500D03*
D14*
X247935750Y-152172500D03*
D13*
X243236750Y-125322500D03*
D14*
X243236750Y-133122500D03*
D13*
X233711750Y-106272500D03*
D14*
X233711750Y-114072500D03*
D13*
X233711750Y-87222500D03*
D14*
X233711750Y-95022500D03*
D13*
X238410750Y-163422500D03*
D14*
X238410750Y-171222500D03*
D13*
X228885750Y-144372500D03*
D14*
X228885750Y-152172500D03*
D13*
X224186750Y-125322500D03*
D14*
X224186750Y-133122500D03*
D13*
X214661750Y-106272500D03*
D14*
X214661750Y-114072500D03*
D13*
X214661750Y-87222500D03*
D14*
X214661750Y-95022500D03*
D13*
X219360750Y-163422500D03*
D14*
X219360750Y-171222500D03*
D13*
X209835750Y-144372500D03*
D14*
X209835750Y-152172500D03*
D13*
X205136750Y-125322500D03*
D14*
X205136750Y-133122500D03*
D13*
X195611750Y-106272500D03*
D14*
X195611750Y-114072500D03*
D13*
X195611750Y-87222500D03*
D14*
X195611750Y-95022500D03*
D13*
X202723750Y-182472500D03*
D14*
X202723750Y-190272500D03*
D13*
X200310750Y-163422500D03*
D14*
X200310750Y-171222500D03*
D13*
X190785750Y-144372500D03*
D14*
X190785750Y-152172500D03*
D13*
X186086750Y-125322500D03*
D14*
X186086750Y-133122500D03*
D13*
X176561750Y-106272500D03*
D14*
X176561750Y-114072500D03*
D13*
X176561750Y-87222500D03*
D14*
X176561750Y-95022500D03*
D13*
X181260750Y-163422500D03*
D14*
X181260750Y-171222500D03*
D13*
X171735750Y-144372500D03*
D14*
X171735750Y-152172500D03*
D13*
X167036750Y-125322500D03*
D14*
X167036750Y-133122500D03*
D13*
X157511750Y-106272500D03*
D14*
X157511750Y-114072500D03*
D13*
X157511750Y-87222500D03*
D14*
X157511750Y-95022500D03*
D13*
X162210750Y-163422500D03*
D14*
X162210750Y-171222500D03*
D13*
X152685750Y-144372500D03*
D14*
X152685750Y-152172500D03*
D13*
X147986750Y-125322500D03*
D14*
X147986750Y-133122500D03*
D13*
X138461750Y-106272500D03*
D14*
X138461750Y-114072500D03*
D13*
X138461750Y-87222500D03*
D14*
X138461750Y-95022500D03*
D13*
X133635750Y-182345500D03*
D14*
X133635750Y-190145500D03*
D13*
X143160750Y-163422500D03*
D14*
X143160750Y-171222500D03*
D13*
X133762750Y-144372500D03*
D14*
X133762750Y-152172500D03*
D13*
X128936750Y-125322500D03*
D14*
X128936750Y-133122500D03*
D13*
X119411750Y-106272500D03*
D14*
X119411750Y-114072500D03*
D13*
X119411750Y-87146500D03*
D14*
X119411750Y-94946500D03*
D13*
X109886750Y-182472500D03*
D14*
X109886750Y-190272500D03*
D13*
X124110750Y-163422500D03*
D14*
X124110750Y-171222500D03*
D13*
X114585750Y-144372500D03*
D14*
X114585750Y-152172500D03*
D13*
X109886750Y-125322500D03*
D14*
X109886750Y-133122500D03*
D13*
X100361750Y-106272500D03*
D14*
X100361750Y-114072500D03*
D13*
X100361750Y-87222500D03*
D14*
X100361750Y-95022500D03*
D13*
X86010750Y-182472500D03*
D14*
X86010750Y-190272500D03*
D13*
X105060750Y-163422500D03*
D14*
X105060750Y-171222500D03*
D13*
X83216750Y-146226700D03*
D14*
X83216750Y-154026700D03*
D13*
X84625350Y-117589300D03*
D14*
X92425350Y-117589300D03*
D13*
X81311750Y-106272500D03*
D14*
X81311750Y-114072500D03*
D13*
X81311750Y-87222500D03*
D14*
X81311750Y-95022500D03*
M02*
